<svg width="25" height="25" viewBox="0 0 25 25" fill="none" xmlns="http://www.w3.org/2000/svg">
<g clip-path="url(#clip0_604_148)">
<path d="M3.17514 6.3441C4.09264 5.3973 5.34867 4.85376 6.66692 4.83305C7.98517 4.81233 9.25765 5.31614 10.2044 6.23363L17.3442 13.1525C18.5273 14.2989 18.5569 16.187 17.4105 17.3701C16.264 18.5531 14.3829 18.5756 13.1998 17.4292L6.06006 10.5104L7.43691 9.08954L14.5767 16.0084C14.766 16.1919 15.0205 16.2926 15.2842 16.2885C15.5478 16.2844 15.799 16.1756 15.9825 15.9863C16.166 15.7969 16.2668 15.5424 16.2627 15.2788C16.2585 15.0151 16.1498 14.7639 15.9604 14.5804L8.82068 7.66159C8.5394 7.38901 8.20718 7.1745 7.843 7.03031C7.47882 6.88613 7.0898 6.81508 6.69816 6.82124C6.30652 6.82739 5.91993 6.91062 5.56046 7.06618C5.20099 7.22174 4.87567 7.44658 4.60309 7.72787C4.33052 8.00915 4.11601 8.34136 3.97182 8.70555C3.82763 9.06973 3.75659 9.45874 3.76274 9.85038C3.7689 10.242 3.85213 10.6286 4.00769 10.9881C4.16325 11.3476 4.38809 11.6729 4.66937 11.9454L11.8984 18.9508C13.8704 20.8618 16.9275 20.7258 18.8384 18.7538C20.7494 16.7818 20.7 13.6355 18.728 11.7245L15.1581 8.2651L16.5419 6.83715L20.1118 10.2966C22.872 12.9714 22.9412 17.3774 20.2664 20.1376C17.5916 22.8978 13.1925 22.9599 10.4323 20.2851L3.29252 13.3663C1.32052 11.4553 1.26416 8.3161 3.17514 6.3441Z" fill="#5D6062"/>
</g>
<defs>
<clipPath id="clip0_604_148">
<rect width="23.8612" height="23.8612" fill="white" transform="translate(0.490479 0.592712)"/>
</clipPath>
</defs>
</svg>
