<svg width="45" height="41" viewBox="0 0 45 41" fill="none" xmlns="http://www.w3.org/2000/svg">
<path d="M25.625 0L42.4042 8.4375V25.3125L25.625 33.75L8.84576 25.3125V8.4375L25.625 0Z" fill="#B6EDD2"/>
<path d="M0.625 13.2349L16.2957 5.79756L32.8526 13.5242V32.2035L16.3006 39.9278L0.625 32.2126V13.2349Z" stroke="#06335B" stroke-width="1.25"/>
<path d="M16.2934 40.048V21.1454M16.2934 21.1454L20.3031 19.4269M16.2934 21.1454L14.575 19.9997" stroke="#06335B" stroke-width="1.25" stroke-linecap="round"/>
<path d="M6.8439 10.2444L11.1427 8.09475L27.5393 16.0286L23.7158 18.1526L6.8439 10.2444Z" stroke="#06335B" stroke-width="1.25"/>
<line x1="33.1587" y1="13.6972" x2="22.8481" y2="18.2796" stroke="#06335B" stroke-width="1.25"/>
<path d="M23.2193 18.6676L26.5518 17.0014L26.5518 22.4775L23.2193 24.1438L23.2193 18.6676Z" stroke="#06335B" stroke-width="1.25"/>
<line x1="1.66613" y1="13.9922" x2="12.0042" y2="19.1612" stroke="#06335B" stroke-width="1.25" stroke-linecap="round"/>
<line x1="2.83073" y1="26.6591" x2="7.48694" y2="29.4528" stroke="#06335B" stroke-width="1.25" stroke-linecap="round"/>
<line x1="2.83996" y1="28.9914" x2="5.23674" y2="30.5892" stroke="#06335B" stroke-width="1.25" stroke-linecap="round"/>
</svg>
