<svg width="25" height="25" viewBox="0 0 25 25" fill="none" xmlns="http://www.w3.org/2000/svg">
<path d="M12.213 9.54065C10.5964 9.54065 9.23035 10.9067 9.23035 12.5233C9.23035 14.1399 10.5964 15.5059 12.213 15.5059C13.8296 15.5059 15.1956 14.1399 15.1956 12.5233C15.1956 10.9067 13.8296 9.54065 12.213 9.54065Z" fill="#5D6062"/>
<path d="M20.1667 5.5638H17.5956L14.9043 2.87245C14.8121 2.77995 14.7025 2.70659 14.5819 2.65659C14.4613 2.6066 14.3319 2.58096 14.2014 2.58115H10.2245C10.0939 2.58096 9.96457 2.6066 9.84393 2.65659C9.7233 2.70659 9.61374 2.77995 9.52157 2.87245L6.83023 5.5638H4.25919C3.16256 5.5638 2.27075 6.45561 2.27075 7.55223V18.4886C2.27075 19.5852 3.16256 20.477 4.25919 20.477H20.1667C21.2633 20.477 22.1551 19.5852 22.1551 18.4886V7.55223C22.1551 6.45561 21.2633 5.5638 20.1667 5.5638ZM12.2129 17.4944C9.51859 17.4944 7.24184 15.2176 7.24184 12.5233C7.24184 9.82899 9.51859 7.55223 12.2129 7.55223C14.9072 7.55223 17.184 9.82899 17.184 12.5233C17.184 15.2176 14.9072 17.4944 12.2129 17.4944Z" fill="#5D6062"/>
</svg>
