<svg width="28" height="28" viewBox="0 0 28 28" fill="none" xmlns="http://www.w3.org/2000/svg">
<path fill-rule="evenodd" clip-rule="evenodd" d="M3.577 11.3253C3.5 11.9101 3.5 12.6067 3.5 14C3.5 15.3933 3.5 16.0899 3.577 16.6747C4.10869 20.7133 7.28666 23.8913 11.3253 24.423C11.9101 24.5 12.6067 24.5 14 24.5H19.25C21.3567 24.5 22.41 24.5 23.1667 23.9944C23.4943 23.7755 23.7755 23.4943 23.9944 23.1667C24.5 22.41 24.5 21.3567 24.5 19.25V14C24.5 12.6067 24.5 11.9101 24.423 11.3253C23.8913 7.28666 20.7133 4.10869 16.6747 3.577C16.0899 3.5 15.3933 3.5 14 3.5C12.6067 3.5 11.9101 3.5 11.3253 3.577C7.28666 4.10869 4.10869 7.28666 3.577 11.3253ZM9.5 12.8333C9.5 12.281 9.94772 11.8333 10.5 11.8333H17.5C18.0523 11.8333 18.5 12.281 18.5 12.8333C18.5 13.3856 18.0523 13.8333 17.5 13.8333H10.5C9.94772 13.8333 9.5 13.3856 9.5 12.8333ZM13 17.5C13 16.9477 13.4477 16.5 14 16.5H17.5C18.0523 16.5 18.5 16.9477 18.5 17.5C18.5 18.0523 18.0523 18.5 17.5 18.5H14C13.4477 18.5 13 18.0523 13 17.5Z" fill="#06335B"/>
</svg>
