<svg width="30" height="30" viewBox="0 0 30 30" fill="none" xmlns="http://www.w3.org/2000/svg">
<path fill-rule="evenodd" clip-rule="evenodd" d="M25 13.75C25 10.2388 25 8.48327 24.1573 7.22215C23.7926 6.6762 23.3238 6.20744 22.7779 5.84265C21.5167 5 19.7612 5 16.25 5H13.75C10.2388 5 8.48327 5 7.22215 5.84265C6.6762 6.20744 6.20744 6.6762 5.84265 7.22215C5 8.48327 5 10.2388 5 13.75C5 17.2612 5 19.0167 5.84265 20.2779C6.20744 20.8238 6.6762 21.2926 7.22215 21.6573C8.32384 22.3935 9.80287 22.4865 12.5 22.4983V22.5L13.882 25.2639C14.3426 26.1852 15.6574 26.1852 16.118 25.2639L17.5 22.5V22.4983C20.1971 22.4865 21.6762 22.3935 22.7779 21.6573C23.3238 21.2926 23.7926 20.8238 24.1573 20.2779C25 19.0167 25 17.2612 25 13.75ZM11.25 10.25C10.6977 10.25 10.25 10.6977 10.25 11.25C10.25 11.8023 10.6977 12.25 11.25 12.25H18.75C19.3023 12.25 19.75 11.8023 19.75 11.25C19.75 10.6977 19.3023 10.25 18.75 10.25H11.25ZM11.25 15.25C10.6977 15.25 10.25 15.6977 10.25 16.25C10.25 16.8023 10.6977 17.25 11.25 17.25H15C15.5523 17.25 16 16.8023 16 16.25C16 15.6977 15.5523 15.25 15 15.25H11.25Z" fill="white"/>
</svg>
