<svg width="27" height="29" viewBox="0 0 32 34" fill="none" xmlns="http://www.w3.org/2000/svg">
<path d="M30.2645 3.92268C29.6218 2.95963 28.7953 2.1329 27.8324 1.48987L25.8726 4.4234C26.4515 4.80925 26.9482 5.30593 27.3341 5.88478L30.2645 3.92268ZM27.8324 1.48987C26.5597 0.69882 25.109 0.239481 23.6129 0.153853C22.0431 -0.0045916 20.0794 1.39013e-05 17.6381 1.39013e-05V3.52811C20.1517 3.52811 21.9054 3.52811 23.2529 3.66732C24.1738 3.69615 25.0728 3.95502 25.868 4.42032L27.8324 1.48987ZM17.6397 1.39013e-05H14.1116V3.52811H17.6397V1.39013e-05ZM14.1116 1.39013e-05C11.6703 1.39013e-05 9.70665 2.32892e-05 8.13682 0.153853C6.64206 0.237936 5.1922 0.695119 3.91959 1.48369L5.87936 4.41725C6.67457 3.95195 7.57361 3.69308 8.49449 3.66425C9.84589 3.52657 11.5988 3.52503 14.1093 3.52503L14.1116 1.39013e-05ZM3.92264 1.48679C2.95948 2.12969 2.13276 2.95644 1.48985 3.91961L4.42336 5.8794C4.80922 5.30056 5.30592 4.80386 5.88476 4.418L3.92264 1.48679ZM1.48985 3.91961C0.701216 5.19246 0.24401 6.64259 0.159989 8.1376C0.00154431 9.70744 0.00614982 11.6711 0.00614982 14.1124H3.53422C3.53422 11.5988 3.53424 9.84513 3.67346 8.49758C3.70239 7.57671 3.96125 6.67772 4.42646 5.88248L1.48985 3.91961ZM0 14.1116C0 16.5529 9.38674e-06 18.5165 0.153839 20.0863C0.23786 21.5814 0.695066 23.0315 1.4837 24.3044L4.41721 22.3446C3.952 21.5493 3.69314 20.6503 3.66421 19.7295C3.52653 18.3781 3.52502 16.6252 3.52502 14.1147L0 14.1116ZM1.48675 24.3036C2.12919 25.2671 2.95604 26.094 3.91959 26.7364L5.87936 23.8044C5.30102 23.418 4.80448 22.9214 4.41801 22.343L1.48675 24.3036ZM3.91959 26.7364C5.01107 27.4296 6.24854 27.8601 7.5346 27.994C9.12924 28.1722 10.7336 28.2493 12.3379 28.2247L12.3525 24.6966C10.9052 24.7216 9.4577 24.6569 8.01837 24.5028C7.26079 24.4402 6.52794 24.2033 5.87706 23.8106L3.91959 26.7364ZM10.5843 26.458H14.1124H10.5843ZM10.7712 27.2479L12.7202 31.1483L15.8737 29.5715L13.9224 25.6712L10.7712 27.2479ZM12.7202 31.1483C13.013 31.7346 13.4633 32.2278 14.0207 32.5726C14.5782 32.9173 15.2206 33.0999 15.876 33.0999C16.5314 33.0999 17.1739 32.9173 17.7313 32.5726C18.2887 32.2278 18.7391 31.7346 19.0318 31.1483L15.8783 29.5715L12.7202 31.1483ZM19.0318 31.1483L20.9809 27.2479L17.8273 25.6712L15.8768 29.5715L19.0318 31.1483ZM21.1678 26.4564H17.6397H21.1678ZM19.411 28.2186C21.0154 28.2431 22.6197 28.166 24.2144 27.9878C25.5004 27.8539 26.7379 27.4235 27.8294 26.7303L25.8696 23.7983C25.2187 24.191 24.4858 24.4279 23.7282 24.4905C22.2889 24.6446 20.8415 24.7093 19.3941 24.6843L19.411 28.2186ZM27.8324 26.7333C28.7957 26.0908 29.6223 25.264 30.2645 24.3005L27.331 22.3407C26.9445 22.9191 26.4479 23.4157 25.8696 23.8021L27.8324 26.7333ZM30.2645 24.3005C31.0533 23.0277 31.5105 21.5775 31.5944 20.0825C31.7528 18.5127 31.7482 16.549 31.7482 14.1078H28.2201C28.2201 16.6213 28.2201 18.375 28.0809 19.7225C28.0519 20.6434 27.7931 21.5424 27.3279 22.3376L30.2645 24.3005ZM31.7513 14.1085C31.7513 11.6672 31.7513 9.70361 31.5974 8.13378C31.5136 6.63873 31.0564 5.18853 30.2676 3.91576L27.3341 5.87555C27.7993 6.6708 28.0581 7.56979 28.0871 8.49065C28.2247 9.84205 28.2262 11.5949 28.2262 14.1054L31.7513 14.1085ZM26.851 2.9497L25.8719 4.41725L26.851 2.9497ZM4.90023 2.9497L5.87936 4.41725L4.90023 2.9497ZM2.95276 4.89719L4.42031 5.87633L2.95276 4.89719ZM2.95276 23.3199L4.42031 22.3407L2.95276 23.3199ZM4.90023 25.2674L5.87936 23.8013L4.90023 25.2674ZM12.3479 26.4541H14.1116C14.1118 25.9875 13.927 25.5399 13.5977 25.2093C13.2684 24.8787 12.8215 24.6921 12.3548 24.6905L12.3479 26.4541ZM12.3479 26.4541H10.5835C10.5834 26.7279 10.6474 26.9979 10.7704 27.2425L12.3479 26.4541ZM19.4041 26.4541L20.9809 27.2425C21.1039 26.9979 21.1679 26.7279 21.1678 26.4541H19.4041ZM19.4041 26.4541L19.3972 24.6905C18.9306 24.6921 18.4836 24.8787 18.1543 25.2093C17.8251 25.5399 17.6402 25.9875 17.6404 26.4541H19.4041ZM26.8518 25.2674L25.8726 23.8013L26.8518 25.2674ZM28.7993 23.3199L27.3317 22.3407L28.7993 23.3199ZM28.7993 4.89719L27.3317 5.87633L28.7993 4.89719Z" fill="#121212"/>
<path opacity="0.68" d="M22.9315 15.8752C23.9055 15.8752 24.6951 15.0856 24.6951 14.1116C24.6951 13.1375 23.9055 12.3479 22.9315 12.3479C21.9574 12.3479 21.1678 13.1375 21.1678 14.1116C21.1678 15.0856 21.9574 15.8752 22.9315 15.8752Z" fill="#121212"/>
<path d="M22.9315 13.2294C23.1655 13.2294 23.3899 13.3223 23.5553 13.4877C23.7208 13.6532 23.8137 13.8776 23.8137 14.1116H25.5774C25.5772 13.4099 25.2983 12.737 24.8022 12.2409C24.306 11.7447 23.6332 11.4659 22.9315 11.4657V13.2294ZM22.0493 14.1116C22.0493 13.8776 22.1423 13.6532 22.3077 13.4877C22.4732 13.3223 22.6975 13.2294 22.9315 13.2294V11.4657C22.2299 11.4659 21.557 11.7447 21.0608 12.2409C20.5647 12.737 20.2858 13.4099 20.2856 14.1116H22.0493ZM22.9315 14.9938C22.6975 14.9938 22.4732 14.9008 22.3077 14.7354C22.1423 14.5699 22.0493 14.3456 22.0493 14.1116H20.2856C20.2858 14.8132 20.5647 15.4861 21.0608 15.9823C21.557 16.4784 22.2299 16.7572 22.9315 16.7575V14.9938ZM23.8137 14.1116C23.8137 14.3456 23.7208 14.5699 23.5553 14.7354C23.3899 14.9008 23.1655 14.9938 22.9315 14.9938V16.7575C23.6332 16.7572 24.306 16.4784 24.8022 15.9823C25.2983 15.4861 25.5772 14.8132 25.5774 14.1116H23.8137Z" fill="#121212"/>
<path opacity="0.68" d="M15.8754 15.8752C16.8495 15.8752 17.6391 15.0856 17.6391 14.1116C17.6391 13.1375 16.8495 12.3479 15.8754 12.3479C14.9014 12.3479 14.1118 13.1375 14.1118 14.1116C14.1118 15.0856 14.9014 15.8752 15.8754 15.8752Z" fill="#121212"/>
<path d="M15.8755 13.2294C16.1094 13.2294 16.3338 13.3223 16.4993 13.4877C16.6647 13.6532 16.7577 13.8776 16.7577 14.1116H18.5213C18.5211 13.4099 18.2423 12.737 17.7461 12.2409C17.25 11.7447 16.5771 11.4659 15.8755 11.4657V13.2294ZM14.9933 14.1116C14.9933 13.8776 15.0862 13.6532 15.2517 13.4877C15.4171 13.3223 15.6415 13.2294 15.8755 13.2294V11.4657C15.1738 11.4659 14.5009 11.7447 14.0048 12.2409C13.5086 12.737 13.2298 13.4099 13.2296 14.1116H14.9933ZM15.8755 14.9938C15.6415 14.9938 15.4171 14.9008 15.2517 14.7354C15.0862 14.5699 14.9933 14.3456 14.9933 14.1116H13.2296C13.2298 14.8132 13.5086 15.4861 14.0048 15.9823C14.5009 16.4784 15.1738 16.7572 15.8755 16.7575V14.9938ZM16.7577 14.1116C16.7577 14.3456 16.6647 14.5699 16.4993 14.7354C16.3338 14.9008 16.1094 14.9938 15.8755 14.9938V16.7575C16.5771 16.7572 17.25 16.4784 17.7461 15.9823C18.2423 15.4861 18.5211 14.8132 18.5213 14.1116H16.7577Z" fill="#121212"/>
<path opacity="0.68" d="M8.81981 15.8752C9.79385 15.8752 10.5835 15.0856 10.5835 14.1116C10.5835 13.1375 9.79385 12.3479 8.81981 12.3479C7.84577 12.3479 7.05615 13.1375 7.05615 14.1116C7.05615 15.0856 7.84577 15.8752 8.81981 15.8752Z" fill="#121212"/>
<path d="M8.81977 13.2294C9.05374 13.2294 9.27813 13.3223 9.44357 13.4877C9.60902 13.6532 9.70196 13.8776 9.70196 14.1116H11.4656C11.4654 13.4099 11.1866 12.737 10.6904 12.2409C10.1943 11.7447 9.52143 11.4659 8.81977 11.4657V13.2294ZM7.93757 14.1116C7.93757 13.9957 7.96037 13.881 8.0047 13.774C8.04904 13.6669 8.11404 13.5697 8.19596 13.4877C8.27788 13.4058 8.3751 13.3408 8.48214 13.2965C8.58917 13.2522 8.70391 13.2294 8.81977 13.2294V11.4657C8.1181 11.4659 7.44525 11.7447 6.94909 12.2409C6.45294 12.737 6.17409 13.4099 6.17389 14.1116H7.93757ZM8.81977 14.9938C8.70391 14.9938 8.58917 14.971 8.48214 14.9266C8.3751 14.8823 8.27788 14.8173 8.19596 14.7354C8.11404 14.6535 8.04904 14.5562 8.0047 14.4492C7.96037 14.3421 7.93757 14.2274 7.93757 14.1116H6.17389C6.17409 14.8132 6.45294 15.4861 6.94909 15.9823C7.44525 16.4784 8.1181 16.7572 8.81977 16.7575V14.9938ZM9.70196 14.1116C9.70196 14.3456 9.60902 14.5699 9.44357 14.7354C9.27813 14.9008 9.05374 14.9938 8.81977 14.9938V16.7575C9.52143 16.7572 10.1943 16.4784 10.6904 15.9823C11.1866 15.4861 11.4654 14.8132 11.4656 14.1116H9.70196Z" fill="#121212"/>
</svg>
