<svg width="26" height="26" viewBox="0 0 26 26" fill="none" xmlns="http://www.w3.org/2000/svg">
<rect width="26" height="26" fill="none"/>
<g clip-path="url(#clip0_2752_668)">
<rect width="1024" height="2535" transform="translate(-447 -2151)" fill="nonr"/>
<path fill-rule="evenodd" clip-rule="evenodd" d="M6.13305 14.1862C4.83171 15.3997 4.8059 17.3942 6.07539 18.641C7.34489 19.8878 9.42896 19.9148 10.7303 18.7013L13.2605 16.3418C13.7884 15.8495 14.6339 15.8604 15.1489 16.3662C15.6639 16.872 15.6534 17.6812 15.1255 18.1735L12.5953 20.5329C10.2381 22.7311 6.46312 22.6822 4.16362 20.4238C1.86412 18.1654 1.91087 14.5527 4.26805 12.3545L6.79823 9.99505C7.32615 9.50275 8.17161 9.51369 8.68661 10.0195C9.20162 10.5253 9.19114 11.3344 8.66322 11.8267L6.13305 14.1862Z" fill="#57CC99"/>
<path fill-rule="evenodd" clip-rule="evenodd" d="M8.33676 16.5324C7.82176 16.0266 7.83223 15.2175 8.36015 14.7252L15.0371 8.49872C15.565 8.00642 16.4105 8.01736 16.9255 8.52316C17.4405 9.02896 17.43 9.83809 16.9021 10.3304L10.2251 16.5568C9.69723 17.0492 8.85177 17.0382 8.33676 16.5324Z" fill="#57CC99"/>
<path fill-rule="evenodd" clip-rule="evenodd" d="M14.5319 6.35411C15.8332 5.14057 17.9173 5.16754 19.1868 6.41435C20.4563 7.66116 20.4305 9.65566 19.1291 10.8692L16.599 13.2287C16.071 13.721 16.0606 14.5301 16.5756 15.0359C17.0906 15.5417 17.936 15.5526 18.4639 15.0603L20.9941 12.7009C23.3513 10.5027 23.3981 6.88997 21.0986 4.63157C18.7991 2.37316 15.0241 2.3243 12.6669 4.52244L10.1367 6.8819C9.60879 7.37421 9.59832 8.18333 10.1133 8.68913C10.6283 9.19493 11.4738 9.20587 12.0017 8.71357L14.5319 6.35411Z" fill="#57CC99"/>
</g>
<defs>
<clipPath id="clip0_2752_668">
<rect width="1024" height="2535" fill="white" transform="translate(-447 -2151)"/>
</clipPath>
</defs>
</svg>
