<svg width="14" height="14" viewBox="0 0 14 14" fill="none" xmlns="http://www.w3.org/2000/svg">
<path d="M0.0980001 6.7C0.0260001 10.282 3.086 13.324 6.668 13.252C10.25 13.324 13.31 10.282 13.238 6.7C13.31 3.118 10.25 0.075999 6.668 0.147999C3.086 0.075999 0.0260001 3.118 0.0980001 6.7ZM11.87 6.7C11.924 9.562 9.584 12.082 6.668 12.01C3.77 12.082 1.394 9.562 1.448 6.7C1.394 3.838 3.77 1.318 6.668 1.39C9.584 1.318 11.924 3.838 11.87 6.7ZM3.23 6.7C3.23 8.824 4.652 10.3 6.794 10.3C8.144 10.3 9.188 9.742 9.764 8.734L8.594 7.924C8.18 8.572 7.586 8.896 6.812 8.896C5.606 8.896 4.814 8.014 4.814 6.7C4.814 5.35 5.606 4.504 6.812 4.504C7.586 4.504 8.18 4.828 8.594 5.476L9.764 4.648C9.188 3.64 8.144 3.082 6.794 3.082C4.652 3.082 3.23 4.576 3.23 6.7Z" fill="#BDBDBD"/>
</svg>
