<svg width="27" height="27" viewBox="0 0 27 27" fill="none" xmlns="http://www.w3.org/2000/svg">
<g clip-path="url(#clip0_2372_783)">
<path d="M26.4439 13.4812C26.4439 10.9258 25.6813 8.42773 24.2526 6.30296C22.8239 4.17818 20.7932 2.52212 18.4173 1.54419C16.0415 0.566267 13.4271 0.310397 10.9049 0.80894C8.38273 1.30748 6.06594 2.53805 4.24753 4.34502C2.42912 6.15199 1.19076 8.45422 0.689066 10.9606C0.187368 13.4669 0.444858 16.0648 1.42897 18.4257C2.41309 20.7866 4.07963 22.8046 6.21786 24.2243C8.35608 25.644 10.8699 26.4018 13.4416 26.4018C16.89 26.4018 20.1972 25.0405 22.6356 22.6175C25.074 20.1944 26.4439 16.908 26.4439 13.4812Z" fill="#C9CFE3"/>
<path d="M24.643 13.4812C24.6425 10.9066 23.7437 8.41178 22.0997 6.42183C20.4557 4.43189 18.1683 3.06992 15.6271 2.56798C13.0859 2.06605 10.4481 2.4552 8.16327 3.66913C5.87842 4.88306 4.08782 6.84667 3.09654 9.22541C2.10525 11.6041 1.97462 14.2508 2.72689 16.7145C3.47917 19.1783 5.0678 21.3066 7.22214 22.7369C9.37648 24.1672 11.9632 24.8109 14.5417 24.5585C17.1201 24.3061 19.5307 23.1731 21.3628 21.3526C22.4045 20.32 23.2305 19.0931 23.7935 17.7422C24.3564 16.3914 24.6451 14.9433 24.643 13.4812ZM21.8664 5.11146C23.815 7.04809 25.0276 9.5962 25.2976 12.3216C25.5676 15.0471 24.8782 17.7812 23.347 20.0582C21.8158 22.3352 19.5375 24.0142 16.9002 24.8091C14.2629 25.604 11.4298 25.4657 8.88369 24.4177C6.33754 23.3696 4.23583 21.4768 2.93666 19.0616C1.63748 16.6463 1.22121 13.8582 1.75878 11.1722C2.29635 8.48622 3.75449 6.06853 5.88477 4.33107C8.01504 2.59361 10.6857 1.64388 13.4416 1.64369C15.0065 1.64163 16.5565 1.94693 18.0023 2.54205C19.4481 3.13717 20.7613 4.01037 21.8664 5.11146Z" fill="#F3F8FC"/>
<path d="M9.58999 6.90114C5.97752 7.73811 7.3023 12.7579 7.3023 12.7579L9.58999 23.8825L10.4365 24.2421L9.58999 6.89483V6.90114ZM8.74348 4.74771H7.7827L9.11594 5.22718C9.11594 5.22718 7.79116 5.22718 7.79116 6.06836C10.6735 5.94429 11.9962 6.6593 11.9962 6.6593L8.7456 4.74561L8.74348 4.74771Z" fill="#F0F4FF"/>
<path d="M16.4509 24.8456C16.4509 24.8456 13.5601 20.3011 13.5601 17.3086C13.5601 11.6874 17.2911 16.4674 17.2911 12.0512C17.2911 7.63498 13.5601 6.54145 13.5601 6.54145C11.7549 4.27025 8.26944 4.74762 8.26944 4.74762L9.11594 5.2271C9.11594 5.2271 8.26944 5.46473 8.03242 5.70447C7.79539 5.94421 10.3201 5.34697 11.4036 6.30381C6.94042 6.65921 7.66207 10.2511 7.66207 10.2511L10.191 24.6079L16.4509 24.8456Z" fill="#F3F8FC"/>
<path d="M16.4509 13.3614L21.0263 12.1648C25.1191 12.7578 17.5344 15.0374 17.0541 14.9176C13.4416 14.3182 14.5145 17.3086 18.8592 16.3518C23.2039 15.3949 19.9428 18.7449 15.9705 17.4285C10.3116 15.8744 13.321 13.1216 16.4509 13.3614Z" fill="#F3F8FC"/>
<path d="M15.2531 22.812L15.4944 22.4545C18.1439 23.4114 18.2646 23.7689 18.1439 21.3778C18.0233 18.9868 18.1439 18.9847 15.3737 21.0182C15.3737 20.421 13.8098 20.6586 13.5686 21.0182C11.0396 19.9415 10.7984 19.5819 10.919 21.258C11.1603 24.7278 11.0396 24.1285 13.4479 22.9403L15.2531 22.8204V22.812Z" fill="#C9CFE3"/>
<path d="M13.321 21.4977V22.9319C13.4416 23.1716 15.3674 23.1716 15.3674 22.6922C15.3674 22.2127 14.4045 23.0518 13.8035 22.812C13.2025 22.5723 13.5601 21.2579 13.5601 21.2579L13.3188 21.4977H13.321Z" fill="#F3F8FC"/>
<path d="M10.6735 9.65385C10.0704 8.93464 8.50646 9.53398 8.86623 10.495C8.98686 10.0156 9.82913 9.29845 10.6735 9.65385ZM14.5251 9.65385C14.6458 8.93464 15.8499 8.81266 16.2181 9.53398C15.9503 9.40411 15.6527 9.34681 15.3554 9.36786C15.0581 9.3889 14.7717 9.48756 14.5251 9.65385ZM10.5529 11.5675C10.5676 11.511 10.6025 11.4618 10.6511 11.4291C10.6997 11.3963 10.7586 11.3823 10.8169 11.3896C10.8751 11.397 10.9287 11.4252 10.9675 11.469C11.0063 11.5128 11.0277 11.5691 11.0277 11.6275C11.0277 11.6858 11.0063 11.7422 10.9675 11.786C10.9287 11.8297 10.8751 11.8579 10.8169 11.8653C10.7586 11.8726 10.6997 11.8586 10.6511 11.8259C10.6025 11.7931 10.5676 11.7439 10.5529 11.6874V11.5675ZM9.58999 12.0449C9.60562 12.2623 9.70551 12.4651 9.86863 12.6107C10.0318 12.7563 10.2454 12.8334 10.4645 12.8256C10.6837 12.8179 10.8912 12.7259 11.0435 12.5691C11.1958 12.4123 11.2809 12.2029 11.2809 11.985C11.2809 11.7671 11.1958 11.5577 11.0435 11.4009C10.8912 11.2441 10.6837 11.1521 10.4645 11.1443C10.2454 11.1366 10.0318 11.2136 9.86863 11.3592C9.70551 11.5048 9.60562 11.7077 9.58999 11.925V12.0449ZM15.8499 11.2037C15.8646 11.1472 15.8995 11.098 15.9481 11.0652C15.9967 11.0325 16.0556 11.0185 16.1139 11.0258C16.1721 11.0332 16.2257 11.0614 16.2645 11.1052C16.3033 11.149 16.3248 11.2053 16.3248 11.2637C16.3248 11.322 16.3033 11.3784 16.2645 11.4221C16.2257 11.4659 16.1721 11.4941 16.1139 11.5015C16.0556 11.5088 15.9967 11.4948 15.9481 11.4621C15.8995 11.4293 15.8646 11.3801 15.8499 11.3236V11.2037ZM15.1261 11.6874C15.1417 11.8723 15.2286 12.0441 15.3686 12.1668C15.5086 12.2896 15.691 12.3538 15.8776 12.3461C16.0641 12.3383 16.2405 12.2592 16.3697 12.1253C16.499 11.9914 16.5712 11.813 16.5712 11.6275C16.5712 11.4419 16.499 11.2635 16.3697 11.1296C16.2405 10.9957 16.0641 10.9166 15.8776 10.9089C15.691 10.9011 15.5086 10.9654 15.3686 11.0881C15.2286 11.2109 15.1417 11.3826 15.1261 11.5675V11.6874Z" fill="#C9CFE3"/>
</g>
<defs>
<clipPath id="clip0_2372_783">
<rect width="26.0047" height="25.8411" fill="white" transform="translate(0.439255 0.560669)"/>
</clipPath>
</defs>
</svg>
