<svg width="117" height="37" viewBox="0 0 117 37" fill="none" xmlns="http://www.w3.org/2000/svg">
<rect x="0.62262" y="0.324951" width="115.755" height="36.6557" rx="18.3278" fill="#1877F2"/>
<circle cx="31.4906" cy="17.688" r="11.5755" fill="white"/>
<g clip-path="url(#clip0_3002_1283)">
<path d="M35.3337 22.2709L35.8908 18.8474H32.4061V16.6267C32.4061 15.6898 32.892 14.7761 34.4527 14.7761H36.038V11.8614C36.038 11.8614 34.6 11.6301 33.2257 11.6301C30.3545 11.6301 28.4796 13.2702 28.4796 16.2381V18.8474H25.2894V22.2709H28.4796V30.5476C29.1201 30.6425 29.7754 30.6911 30.4429 30.6911C31.1104 30.6911 31.7656 30.6425 32.4061 30.5476V22.2709H35.3337Z" fill="#1877F2"/>
</g>
<path d="M51.493 21.6714C52.1103 23.2611 53.6846 24.1871 55.8608 24.1871C58.392 24.1871 59.8891 22.8907 59.8891 21.0077C59.8891 19.5261 58.9785 18.5846 56.8949 18.0907L55.1508 17.674C53.7463 17.3499 53.2062 16.8406 53.2062 15.9763C53.2062 14.8496 54.1322 14.1859 55.6756 14.1859C57.0183 14.1859 58.0524 14.6953 58.5617 15.575L59.6267 14.9268C59.0865 13.7538 57.6203 12.9512 55.7065 12.9512C53.3142 12.9512 51.8171 14.2168 51.8171 15.9917C51.8171 17.4271 52.8203 18.3994 54.8267 18.8779L56.5708 19.2946C57.9135 19.6187 58.4846 20.1743 58.4846 21.0541C58.4846 22.2116 57.4968 22.9524 55.8762 22.9524C54.3328 22.9524 53.1599 22.2733 52.5888 21.0386L51.493 21.6714ZM68.8052 18.9705C68.8052 17.0412 67.802 15.9454 66.0271 15.9454C64.7461 15.9454 63.7428 16.501 63.3107 17.4888V12.6734H62.0142V23.9711H63.3107V19.3254C63.3107 18.0136 64.3139 17.1493 65.7184 17.1493C66.9531 17.1493 67.5087 17.7975 67.5087 19.2791V23.9711H68.8052V18.9705ZM77.5749 16.1615V17.5968C77.1273 16.5936 76.0007 15.9454 74.6888 15.9454C72.5435 15.9454 70.9692 17.6586 70.9692 20.0663C70.9692 22.474 72.5435 24.1871 74.6888 24.1871C76.0007 24.1871 77.1273 23.5389 77.5749 22.5357V23.9711H78.8714V16.1615H77.5749ZM77.6367 20.0663C77.6367 20.9151 77.3897 21.6251 76.8958 22.1653C76.4174 22.7055 75.7692 22.9833 74.982 22.9833C74.1949 22.9833 73.5467 22.7055 73.0528 22.1653C72.5743 21.6251 72.3274 20.9151 72.3274 20.0663C72.3274 19.2174 72.5743 18.5074 73.0528 17.9673C73.5467 17.4271 74.1949 17.1493 74.982 17.1493C75.7692 17.1493 76.4174 17.4271 76.8958 17.9673C77.3897 18.5074 77.6367 19.2174 77.6367 20.0663ZM86.0366 16.1461C85.836 16.0689 85.589 16.038 85.3266 16.038C84.1691 16.038 83.3048 16.6245 82.9498 17.6277V16.1615H81.6534V23.9711H82.9498V19.9737C82.9498 18.137 83.8295 17.2419 85.3575 17.2419C85.589 17.2419 85.8051 17.2573 86.0366 17.2882V16.1461ZM94.5238 20.4676C94.5547 20.2361 94.5701 20.0045 94.5701 19.773C94.5701 17.5042 93.0267 15.9454 90.8505 15.9454C88.5509 15.9454 86.9458 17.6894 86.9458 20.0817C86.9458 22.5048 88.5972 24.1871 90.9586 24.1871C92.3939 24.1871 93.5978 23.5698 94.3541 22.5048L93.4743 21.764C92.8261 22.582 91.9927 22.9833 90.9895 22.9833C89.4615 22.9833 88.412 22.0264 88.2731 20.4676H94.5238ZM88.3039 19.4181C88.5355 18.0136 89.4769 17.1493 90.8505 17.1493C92.2087 17.1493 93.1193 17.9827 93.2428 19.4181H88.3039Z" fill="white"/>
<defs>
<clipPath id="clip0_3002_1283">
<rect width="21.4973" height="20.0641" fill="white" transform="translate(19.9151 11.1285)"/>
</clipPath>
</defs>
</svg>
