<svg width="37" height="37" viewBox="0 0 37 37" fill="none" xmlns="http://www.w3.org/2000/svg">
<path d="M36.2313 18.68C36.2307 15.245 35.246 11.8821 33.3936 8.98942C31.5412 6.09672 28.8987 3.79535 25.7791 2.35776C22.6594 0.920173 19.1931 0.406567 15.7906 0.877746C12.3881 1.34893 9.19184 2.78516 6.58022 5.01642C3.96861 7.24768 2.05099 10.1805 1.0544 13.4678C0.0578148 16.755 0.0239817 20.2589 0.95691 23.5648C1.88984 26.8706 3.75046 29.84 6.3185 32.1212C8.88655 34.4025 12.0545 35.9002 15.4473 36.437V23.876H10.8813V18.676H15.4452V14.716C15.4452 10.216 18.1292 7.72299 22.2342 7.72299C23.5823 7.7417 24.9273 7.85902 26.2582 8.07399V12.505H23.9942C23.6088 12.4544 23.2169 12.4909 22.8474 12.6117C22.4778 12.7326 22.1401 12.9348 21.8591 13.2035C21.5781 13.4721 21.3609 13.8004 21.2235 14.1641C21.0861 14.5278 21.032 14.9176 21.0653 15.305V18.677H26.0502L25.2502 23.877H21.0653V36.437C25.2932 35.7672 29.1435 33.6109 31.9236 30.3559C34.7036 27.1008 36.2311 22.9607 36.2313 18.68Z" fill="#1877F2"/>
<path d="M25.2522 23.875L26.0522 18.675H21.0672V15.303C21.0329 14.9151 21.0861 14.5244 21.223 14.1598C21.3599 13.7952 21.577 13.4661 21.8581 13.1966C22.1393 12.9272 22.4774 12.7243 22.8475 12.6031C23.2175 12.4818 23.6101 12.4452 23.9962 12.496H26.2632V8.07199C24.9322 7.85701 23.5873 7.73969 22.2392 7.72098C18.1332 7.72098 15.4502 10.209 15.4502 14.714V18.674H10.8862V23.874H15.4502V36.435C17.3112 36.7261 19.2062 36.7261 21.0672 36.435V23.875H25.2552" fill="white"/>
</svg>
