<svg width="27" height="26" viewBox="0 0 27 26" fill="none" xmlns="http://www.w3.org/2000/svg">
<path d="M26.686 12.9994C26.6858 10.5149 25.9736 8.08245 24.6338 5.99012C23.2941 3.89779 21.3828 2.23317 19.1263 1.19336C16.8699 0.153543 14.3627 -0.217922 11.9017 0.122942C9.44064 0.463806 7.12881 1.50272 5.23991 3.11669C3.35101 4.73066 1.96413 6.85209 1.24348 9.2298C0.522826 11.6075 0.498583 14.1419 1.17362 16.533C1.84865 18.9241 3.1947 21.0716 5.05238 22.7214C6.91007 24.3712 9.20159 25.4542 11.6557 25.8421V16.7577H8.35278V12.9994H11.6557V10.1354C11.6557 6.87725 13.5965 5.07712 16.5638 5.07712C17.5387 5.09073 18.5114 5.17565 19.474 5.33119V8.53013H17.8355C17.5561 8.49264 17.2719 8.51858 17.0039 8.60603C16.7359 8.69348 16.491 8.84019 16.2875 9.03525C16.0839 9.23032 15.927 9.46874 15.8282 9.73279C15.7295 9.99684 15.6915 10.2798 15.7171 10.5605V12.9994H19.326L18.7486 16.7577H15.7171V25.8421C18.7754 25.3581 21.5606 23.7987 23.5717 21.4445C25.5828 19.0903 26.6879 16.0957 26.6882 12.9994" fill="#1877F2"/>
</svg>
