<svg width="23" height="25" viewBox="0 0 23 25" fill="none" xmlns="http://www.w3.org/2000/svg">
<path d="M3.97812 14.1946L10.8315 21.1925C11.1232 21.4903 11.2691 21.6393 11.4487 21.6578C11.4828 21.6613 11.5171 21.6613 11.5511 21.6578C11.7308 21.6393 11.8766 21.4903 12.1683 21.1925L19.0217 14.1946C20.7688 12.4107 20.9848 9.63055 19.5341 7.59821L19.026 6.8864C17.1864 4.30915 13.2401 4.71741 11.967 7.61669C11.7884 8.02345 11.2114 8.02345 11.0328 7.61669C9.75974 4.71741 5.81344 4.30915 3.97381 6.8864L3.46573 7.59821C2.01506 9.63056 2.23101 12.4107 3.97812 14.1946Z" fill="#BDBDBD" stroke="#BDBDBD" stroke-width="2"/>
</svg>
