<svg width="43" height="42" viewBox="0 0 43 42" fill="none" xmlns="http://www.w3.org/2000/svg">
<path fill-rule="evenodd" clip-rule="evenodd" d="M26.2959 5.37116L30.0692 3.9511C31.9905 3.22804 34.1173 4.17149 34.8486 6.07121L42.7541 26.6087C43.4854 28.5084 42.5313 30.6114 40.61 31.3344L12.9158 41.7569C10.9945 42.48 8.86771 41.5365 8.13644 39.6368L0.248163 19.0928C-0.483104 17.1931 0.453744 15.0966 2.37503 14.3736L6.14836 12.9535C5.75373 12.4946 5.40858 11.9583 5.178 11.3593C4.08439 8.51828 5.52099 5.35205 8.39426 4.27072C10.2117 3.58674 12.1425 3.91815 13.6043 4.93556L14.9177 5.77365L15.3417 4.30127C15.7428 2.56323 16.9621 1.04626 18.7796 0.362288C21.6528 -0.719043 24.855 0.701429 25.9486 3.54245C26.1792 4.14146 26.282 4.76895 26.2959 5.37116ZM22.4869 4.84526C22.1245 3.90396 21.0492 3.42693 20.0972 3.78521C19.1452 4.14348 18.6627 5.20677 19.0251 6.14807C19.3874 7.08937 20.4628 7.56639 21.4148 7.20812C22.3668 6.84985 22.8492 5.78656 22.4869 4.84526ZM12.1015 8.75369C11.7392 7.81238 10.6638 7.33536 9.71186 7.69363C8.75987 8.0519 8.27743 9.11519 8.63977 10.0565C9.00211 10.9978 10.0775 11.4748 11.0295 11.1165C11.9814 10.7583 12.4639 9.69499 12.1015 8.75369ZM27.1762 32.4713L39.2924 27.9115L35.9984 19.3542L23.8822 23.9141L27.1762 32.4713ZM23.7144 33.7742L20.4204 25.2169L8.30422 29.7767L11.5982 38.334L23.7144 33.7742ZM22.5646 20.4911L34.6808 15.9313L31.3868 7.37402L22.5939 10.6832L28.0585 14.1717L26.0253 17.2293L19.7713 13.2346L22.5646 20.4911ZM16.3095 14.5374L19.1028 21.7939L6.98662 26.3538L3.69262 17.7965L12.4855 14.4874L10.7497 20.6857L14.3245 21.6328L16.3095 14.5374Z" fill="white"/>
</svg>
