<svg width="58" height="19" viewBox="0 0 58 19" fill="none" xmlns="http://www.w3.org/2000/svg">
<path d="M0 6.64025C0.205025 6.37952 0.151731 6.05653 0.20816 5.76329C1.1988 0.618408 7.7524 -1.77291 11.9297 1.49199C12.504 1.94075 12.505 1.94167 12.0024 2.43152C11.715 2.71188 11.4651 3.1364 11.1237 3.2272C10.7632 3.32259 10.4817 2.84194 10.1431 2.64409C6.97745 0.792633 2.81048 2.76249 2.31672 6.35345C1.75306 10.4554 5.71626 13.4949 9.60171 11.9327C11.0334 11.3572 11.8915 10.3122 12.1768 8.81746C12.2341 8.51778 12.1862 8.38834 11.8225 8.39416C10.4986 8.41564 9.1741 8.3914 7.85021 8.41011C7.50537 8.41502 7.37778 8.32208 7.41101 7.97946C7.45552 7.51935 7.2204 6.91876 7.50067 6.63043C7.78469 6.33842 8.40196 6.54393 8.87252 6.54056C10.4964 6.52921 12.1209 6.54823 13.7449 6.52706C14.1057 6.52215 14.2402 6.63197 14.2718 6.97152C14.6706 11.279 11.7579 13.8504 8.45996 14.2335C4.24283 14.7237 0.424472 11.6811 0.102513 7.73529C0.0968698 7.6626 0.0749252 7.60278 0 7.57334" fill="#C9CFE3"/>
<path d="M37.5676 9.4732C37.5711 10.5143 37.8291 11.2069 38.42 11.7657C39.6169 12.897 41.4766 12.632 42.291 11.2145C43.0023 9.97655 42.7378 8.29717 41.6722 7.43708C40.906 6.8187 40.0326 6.73374 39.147 7.12943C38.0297 7.6291 37.5927 8.56403 37.5676 9.4732ZM39.4116 18.4578C39.3075 18.2722 39.1 18.3207 38.9439 18.2823C37.6723 17.9704 36.7475 17.2327 36.0826 16.1435C35.8898 15.8275 35.8459 15.611 36.2882 15.518C36.339 15.5073 36.3851 15.4766 36.434 15.457C36.7927 15.3141 37.1463 15.0742 37.5121 15.0549C37.9297 15.0331 37.951 15.5598 38.2049 15.8045C39.0081 16.5784 39.9392 16.7787 40.9784 16.4419C41.9901 16.114 42.4149 15.3297 42.4951 14.3411C42.5221 14.0074 42.4995 13.67 42.4995 13.3068C40.642 14.5745 38.9608 14.5929 37.3654 13.3927C35.7102 12.1473 35.0625 10.0499 35.749 8.1573C36.4375 6.25952 38.2341 5.01755 40.1887 5.08779C40.9179 5.11417 41.3364 5.28226 42.4365 5.99113C42.4594 5.97027 42.5042 5.94604 42.5017 5.92886C42.4155 5.3614 42.7036 5.2657 43.2221 5.28042C44.4965 5.31723 44.4974 5.29239 44.4974 6.5497C44.4974 8.89837 44.4949 11.2471 44.499 13.5957C44.4996 14.1509 44.4425 14.6963 44.3071 15.2362C43.8641 17.0026 42.7186 18.0259 40.8985 18.3455C40.7869 18.3652 40.642 18.3063 40.5772 18.4578" fill="#C9CFE3"/>
<path d="M53.1383 6.85585C51.7783 6.86843 50.6149 8.01715 50.5892 9.25146C50.5823 9.58335 50.741 9.48335 50.9043 9.4171C52.105 8.93031 53.3022 8.43554 54.506 7.95642C54.7559 7.85704 54.7891 7.75643 54.6236 7.55368C54.2161 7.05554 53.6627 6.88683 53.1383 6.85585ZM57.2102 8.61007C57.0372 8.54535 56.9049 8.65915 56.7641 8.7159C54.9565 9.44317 53.1536 10.1821 51.3416 10.8996C50.9905 11.0388 50.9294 11.1541 51.1654 11.4731C52.1244 12.7682 54.0706 12.8357 55.2054 11.5612C55.4741 11.2594 55.6525 11.2164 55.95 11.4707C56.1212 11.617 56.3296 11.721 56.5205 11.8452C57.1742 12.2713 57.1742 12.2716 56.6466 12.8234C55.2775 14.2555 53.1618 14.6819 51.3006 13.901C49.5049 13.1473 48.4095 11.3416 48.5412 9.35115C48.6728 7.35859 49.8908 5.79148 51.7209 5.2599C53.8527 4.6406 55.9083 5.62001 56.8767 7.71379C56.9836 7.94538 57.0309 8.20488 57.2102 8.40303" fill="#C9CFE3"/>
<path d="M17.1635 9.65324C17.1566 11.236 18.2868 12.4473 19.7812 12.4586C21.2857 12.4703 22.4506 11.275 22.46 9.70998C22.4691 8.12937 21.3415 6.92176 19.8392 6.90335C18.3372 6.88525 17.1704 8.08459 17.1635 9.65324ZM19.8069 5.08533C22.4826 5.08502 24.5457 7.10304 24.5284 9.70354C24.5115 12.2832 22.4509 14.2883 19.8147 14.2905C17.1607 14.2923 15.0703 12.2418 15.0941 9.65907C15.118 7.06224 17.155 5.08533 19.8069 5.08533Z" fill="#C9CFE3"/>
<path d="M27.3342 9.68054C27.3345 11.2581 28.4769 12.4571 29.9798 12.458C31.4805 12.459 32.6301 11.2553 32.6307 9.68269C32.6313 8.10453 31.4893 6.90765 29.9823 6.90765C28.4731 6.90734 27.3336 8.10054 27.3342 9.68054ZM29.972 5.08533C32.6511 5.08257 34.7233 7.10856 34.7026 9.7106C34.6825 12.289 32.6006 14.3018 29.9654 14.2917C27.3286 14.2813 25.2523 12.2455 25.2611 9.67839C25.2699 7.08555 27.3189 5.08809 29.972 5.08533Z" fill="#C9CFE3"/>
<path d="M45.7683 7.26356C45.7683 5.15843 45.7758 3.0533 45.7608 0.948169C45.7586 0.617815 45.8357 0.489906 46.1922 0.518125C46.6633 0.55524 47.2803 0.370892 47.5734 0.600637C47.8825 0.843265 47.6693 1.47146 47.6703 1.92942C47.6787 5.7949 47.6693 9.66008 47.6844 13.5253C47.686 13.9038 47.6063 14.0482 47.1982 14.0084C46.7461 13.9642 46.1348 14.1522 45.8711 13.9274C45.5642 13.6648 45.7765 13.0541 45.7733 12.5959C45.7611 10.8183 45.7683 9.04109 45.7683 7.26356Z" fill="#C9CFE3"/>
<path d="M37.5676 9.47319C37.5927 8.56402 38.0297 7.62909 39.147 7.12942C40.0326 6.73373 40.906 6.8187 41.6722 7.43708C42.7378 8.29716 43.0024 9.97654 42.291 11.2145C41.4766 12.632 39.6169 12.897 38.42 11.7657C37.8291 11.2069 37.5711 10.5143 37.5676 9.47319Z" fill="#F3F8FC"/>
</svg>
