<svg width="300" height="310" viewBox="0 0 300 310" fill="none" xmlns="http://www.w3.org/2000/svg">
<rect x="4.4541" y="49.1882" width="134.367" height="134.367" rx="67.1835" fill="#CDE1FD"/>
<g clip-path="url(#clip0_855_259)">
<path d="M108.479 81.9844L116.319 75.0593H108.322L108.479 81.9844Z" fill="#0B579B"/>
<path d="M150.458 75.8433H111.448C105.478 75.8433 100.639 71.0042 100.639 65.0349V59.9966C100.639 54.0273 105.478 49.1882 111.448 49.1882L150.458 49.1882C156.428 49.1882 161.267 54.0273 161.267 59.9966V65.0349C161.267 71.0042 156.428 75.8433 150.458 75.8433Z" fill="#0B579B"/>
<path d="M122.852 64.8677C121.553 64.8677 120.5 63.8147 120.5 62.5157C120.5 61.2168 121.553 60.1638 122.852 60.1638C124.151 60.1638 125.204 61.2168 125.204 62.5157C125.204 63.8147 124.151 64.8677 122.852 64.8677Z" fill="white"/>
<path d="M130.953 64.8677C129.654 64.8677 128.601 63.8147 128.601 62.5157C128.601 61.2168 129.654 60.1638 130.953 60.1638C132.252 60.1638 133.305 61.2168 133.305 62.5157C133.305 63.8147 132.252 64.8677 130.953 64.8677Z" fill="white"/>
<path d="M139.054 64.8677C137.755 64.8677 136.702 63.8147 136.702 62.5157C136.702 61.2168 137.755 60.1638 139.054 60.1638C140.353 60.1638 141.406 61.2168 141.406 62.5157C141.406 63.8147 140.353 64.8677 139.054 64.8677Z" fill="white"/>
</g>
<path d="M145.578 163.027L135.176 159.372L127.213 182.035L137.615 185.69L145.578 163.027Z" fill="#1F161E"/>
<path d="M152.115 272.494C152.564 273.2 154.951 277.446 156.273 277.88C158.668 278.659 171.067 274.188 171.401 273.597C171.736 273.006 171.546 272.028 170.846 271.945C170.147 271.861 164.613 272.698 163.716 272.578C162.819 272.457 160.743 271.009 160.5 269.963" fill="#1F161E"/>
<path d="M1.11914 207.327C1.11914 235.855 13.9242 241.846 26.6621 241.846C58.9281 241.846 100.906 223.504 103.276 222.796C102.531 225.796 97.8276 301.861 97.8276 302.299C98.9456 302.918 107.517 303.451 110.402 302.918C111.147 301.069 133.813 210.597 133.813 208.215C133.813 205.832 131.86 202.208 124.474 201.685C121.351 201.463 77.9046 200.184 77.9046 200.184" fill="#1F161E"/>
<path d="M109.662 187.601C119.383 197.606 162.793 267.446 162.408 269.078C162.023 270.71 152.042 274.17 149.932 273.238C140.981 269.315 86.0206 203.399 83.8809 202.403C81.7411 201.408 78.5352 201.793 76.6249 202.066C71.6568 196.195 82.7777 189.223 109.662 187.601Z" fill="#1F161E"/>
<path d="M65.7776 107.832C80.3937 107.832 84.5965 121.672 85.8058 126.897C89.6725 143.581 78.9082 206.98 77.6616 208.727C67.0839 223.515 6.61877 224.828 0.721551 218.423C-5.17567 212.019 25.8407 107.832 65.7776 107.832Z" fill="#1280E2"/>
<path d="M99.4923 301.993C99.2962 302.713 97.8178 306.932 98.557 307.757C99.8845 309.248 113.695 310.277 114.45 309.934C115.204 309.591 115.83 308.751 115.332 308.443C114.834 308.135 109.6 306.753 108.958 306.326C108.317 305.899 107.782 304 108.438 303.086" fill="#1F161E"/>
<path d="M63.5904 110.751C63.1948 112.02 73.5112 115.23 73.9068 113.968L77.908 101.129L67.5991 97.9112L63.5904 110.751Z" fill="#F8CDBA"/>
<path d="M73.8171 104.167C72.8093 103.853 65.4863 104.697 64.9937 106.279L67.5989 97.9112C69.2038 98.4113 73.8171 104.167 73.8171 104.167Z" fill="#1F161E"/>
<path d="M79.5727 106.227C87.9377 106.227 94.7188 99.4458 94.7188 91.0808C94.7188 82.7159 87.9377 75.9347 79.5727 75.9347C71.2077 75.9347 64.4265 82.7159 64.4265 91.0808C64.4265 99.4458 71.2077 106.227 79.5727 106.227Z" fill="#F8CDBA"/>
<path d="M94.6801 99.0598C94.9073 98.3317 93.9557 97.3871 92.5546 96.9499C91.1536 96.5127 89.8336 96.7485 89.6064 97.4766C89.3792 98.2047 90.3309 99.1493 91.7319 99.5865C93.133 100.024 94.4529 99.7878 94.6801 99.0598Z" fill="#FA9E9F"/>
<path d="M78.7543 94.0937C78.9815 93.3657 78.0299 92.421 76.6289 91.9838C75.2278 91.5466 73.9078 91.7825 73.6807 92.5105C73.4535 93.2386 74.4051 94.1833 75.8061 94.6204C77.2072 95.0576 78.5272 94.8218 78.7543 94.0937Z" fill="#FA9E9F"/>
<path d="M86.8209 93.6114C87.0821 94.4326 88.6348 98.0306 85.7161 98.3814" stroke="#0F1828" stroke-width="1.2" stroke-miterlimit="10" stroke-linecap="round"/>
<path d="M79.5651 100.098C78.8187 99.8371 77.9229 98.5531 77.572 97.5006" stroke="#0F1828" stroke-width="1.2" stroke-miterlimit="10" stroke-linecap="round"/>
<path d="M84.1559 71.2095C80.1622 70.7093 68.5693 67.2606 65.9343 64.8643C64.6876 65.5212 59.843 69.8732 55.8941 75.763L61.5001 81.399L54.416 78.1294C52.5491 81.1886 51.2658 84.5676 50.6313 88.0949C52.4602 93.0292 58.2007 95.0596 59.2831 95.194C66.2627 96.0748 68.9426 85.2284 72.4585 83.8847C78.4304 81.593 85.4623 87.5425 94.3081 87.1693C96.2713 83.1607 93.7184 72.4113 84.1559 71.2095Z" fill="#1F161E"/>
<path d="M65.688 92.0737C67.6216 92.0737 69.189 90.5062 69.189 88.5727C69.189 86.6391 67.6216 85.0716 65.688 85.0716C63.7545 85.0716 62.187 86.6391 62.187 88.5727C62.187 90.5062 63.7545 92.0737 65.688 92.0737Z" fill="#F8CDBA"/>
<path d="M50.6315 143.335C49.885 148.008 47.4664 192.132 53.2591 196.425C65.6656 205.614 122.958 194.372 131.64 191.154C132.58 188.079 131.64 178.307 131.64 178.307C128.296 178.173 86.1044 177.77 83.5887 174.575C81.0731 171.38 80.7745 145.261 81.1776 142.312" fill="#1280E2"/>
<path d="M137.477 192.177C141.959 192.177 145.592 188.544 145.592 184.063C145.592 179.581 141.959 175.949 137.477 175.949C132.996 175.949 129.363 179.581 129.363 184.063C129.363 188.544 132.996 192.177 137.477 192.177Z" fill="#F8CDBA"/>
<path d="M83.5813 174.597C81.0358 171.38 80.767 145.283 81.1701 142.334" stroke="#0F1828" stroke-linecap="round" stroke-linejoin="round"/>
<path d="M79.6174 199.739C67.9274 200.388 57.7081 199.739 53.259 196.425C50.721 194.551 49.758 185.048 49.5266 174.56" stroke="#0F1828" stroke-linecap="round" stroke-linejoin="round"/>
<g clip-path="url(#clip1_855_259)">
<rect x="185.314" width="114.391" height="114.391" rx="57.1956" fill="#CDE1FD"/>
<g clip-path="url(#clip2_855_259)">
<path d="M201.436 64.8374C200.153 63.9374 194.714 57.3248 194.072 55.1024C193.431 52.88 192.949 44.5024 199.293 46.4066C205.637 48.3108 202.773 55.0229 207.248 59.2539" fill="#F8CDBA"/>
<path d="M199.313 40.4128L193.573 44.9943L203.555 57.4983L209.294 52.9168L199.313 40.4128Z" fill="#1F161E"/>
<path d="M280.031 59.2539C281.592 60.7057 297.557 87.5937 297.557 90.9597C297.557 94.3256 293.873 114.74 291.755 119.096C289.637 123.451 280.031 59.2539 280.031 59.2539Z" fill="#1F161E"/>
<path d="M270.639 51.7712C293.619 51.7712 296.622 132.753 295.001 136.01C293.381 139.266 253.198 138.889 249.941 136.01C246.685 133.131 249.504 51.7712 270.639 51.7712Z" fill="#1280E2"/>
<path d="M266.508 54.476C266.508 55.9178 274.463 56.0272 274.463 54.476V44.8106H266.508V54.476Z" fill="#F8CDBA"/>
<path d="M274.472 50.573C274.472 49.7129 272.484 46.7447 270.992 47.2468C272.867 46.5856 273.791 44.3283 274.472 44.7907V50.573Z" fill="#0F1828"/>
<path d="M266.955 48.0622C272.669 48.0622 277.302 43.4299 277.302 37.7157C277.302 32.0015 272.669 27.3692 266.955 27.3692C261.241 27.3692 256.609 32.0015 256.609 37.7157C256.609 43.4299 261.241 48.0622 266.955 48.0622Z" fill="#F8CDBA"/>
<path d="M256.494 40.0028C257.447 40.0028 258.22 39.5999 258.22 39.1029C258.22 38.6059 257.447 38.203 256.494 38.203C255.541 38.203 254.769 38.6059 254.769 39.1029C254.769 39.5999 255.541 40.0028 256.494 40.0028Z" fill="#FA9E9F"/>
<path d="M267.343 40.0028C268.296 40.0028 269.068 39.5999 269.068 39.1029C269.068 38.6059 268.296 38.203 267.343 38.203C266.39 38.203 265.618 38.6059 265.618 39.1029C265.618 39.5999 266.39 40.0028 267.343 40.0028Z" fill="#FA9E9F"/>
<path d="M260.695 37.2384C260.377 37.7008 258.707 39.6349 260.467 40.4155" stroke="#0F1828" stroke-width="0.69" stroke-miterlimit="10" stroke-linecap="round"/>
<path d="M263.957 42.6727C264.454 42.6727 265.275 42.0313 265.697 41.4496" stroke="#0F1828" stroke-width="0.69" stroke-miterlimit="10" stroke-linecap="round"/>
<path d="M276.844 31.6848C276.844 28.0951 271.837 25.4203 268.352 25.4203C262.804 25.4203 256.042 26.7726 254.928 27.1654C253.059 27.8167 252.74 29.8104 252.74 30.4767C252.74 33.2709 253.735 35.011 256.837 35.4485C257.05 34.4629 257.415 33.5167 257.921 32.6444C258.78 32.3144 259.727 32.2986 260.596 32.5997C261.382 32.8731 267.945 35.9656 272.802 35.9656C273.448 36.8755 274.87 42.4291 274.453 44.7857C275.875 44.8703 278.495 40.2414 278.629 37.8251C278.659 36.9959 278.495 36.171 278.15 35.4165C277.805 34.662 277.288 33.9987 276.64 33.4797C276.705 32.9576 276.844 31.9682 276.844 31.6848Z" fill="#0F1828"/>
<path d="M273.26 40.4851C274.517 40.4851 275.537 39.4656 275.537 38.2079C275.537 36.9503 274.517 35.9308 273.26 35.9308C272.002 35.9308 270.982 36.9503 270.982 38.2079C270.982 39.4656 272.002 40.4851 273.26 40.4851Z" fill="#F8CDBA"/>
<path d="M276.68 73.6475C270.982 82.3533 240.176 96.0857 236.935 96.0857C228.338 96.0857 202.887 67.8404 201.436 64.8274C203.111 63.0375 206.681 59.244 207.238 59.244C207.795 59.244 232.023 75.9893 236.602 75.9893C241.181 75.9893 262.883 60.7206 265.707 60.0345" fill="#1280E2"/>
<path d="M258.031 64.4048C261.784 62.073 264.772 60.2583 265.707 60.0345" stroke="#0F1828" stroke-linecap="round" stroke-linejoin="round"/>
<path d="M251.582 90.2785C261.526 85.5005 273.364 78.7288 276.68 73.6575" stroke="#0F1828" stroke-linecap="round" stroke-linejoin="round"/>
<path d="M249.976 102.599C250.18 100.655 260.253 85.8734 262.197 84.7299C260.134 85.8784 252.323 89.841 251.582 90.2785C251.149 91.4369 249.976 102.599 249.976 102.599Z" fill="#1F161E"/>
</g>
</g>
<g clip-path="url(#clip3_855_259)">
<path d="M220.686 30.2274L213.734 24.0862H220.825L220.686 30.2274Z" fill="#0B579B"/>
<path d="M183.459 24.7815L218.054 24.7815C223.347 24.7815 227.638 20.4902 227.638 15.1967V10.7287C227.638 5.43517 223.347 1.14391 218.054 1.14391L183.459 1.14391C178.166 1.14391 173.875 5.43517 173.875 10.7287V15.1967C173.875 20.4902 178.166 24.7815 183.459 24.7815Z" fill="#0B579B"/>
<path d="M207.94 15.0483C209.092 15.0483 210.026 14.1146 210.026 12.9627C210.026 11.8108 209.092 10.877 207.94 10.877C206.789 10.877 205.855 11.8108 205.855 12.9627C205.855 14.1146 206.789 15.0483 207.94 15.0483Z" fill="white"/>
<path d="M200.756 15.0483C201.908 15.0483 202.842 14.1146 202.842 12.9627C202.842 11.8108 201.908 10.877 200.756 10.877C199.604 10.877 198.671 11.8108 198.671 12.9627C198.671 14.1146 199.604 15.0483 200.756 15.0483Z" fill="white"/>
<path d="M193.572 15.0483C194.724 15.0483 195.658 14.1146 195.658 12.9627C195.658 11.8108 194.724 10.877 193.572 10.877C192.421 10.877 191.487 11.8108 191.487 12.9627C191.487 14.1146 192.421 15.0483 193.572 15.0483Z" fill="white"/>
</g>
<defs>
<clipPath id="clip0_855_259">
<rect width="60.6273" height="32.7962" fill="white" transform="matrix(-1 0 0 1 161.267 49.1882)"/>
</clipPath>
<clipPath id="clip1_855_259">
<rect x="185.314" width="114.391" height="114.391" rx="57.1956" fill="white"/>
</clipPath>
<clipPath id="clip2_855_259">
<rect width="127.101" height="251.115" fill="white" transform="translate(193.575 25.4203)"/>
</clipPath>
<clipPath id="clip3_855_259">
<rect width="53.7638" height="29.0835" fill="white" transform="translate(173.875 1.14391)"/>
</clipPath>
</defs>
</svg>
