<svg width="242" height="23" viewBox="0 0 242 23" fill="none" xmlns="http://www.w3.org/2000/svg">
<path d="M1.28555 14.1305C0.257464 14.5344 -0.24856 15.6952 0.155314 16.7233C0.559188 17.7514 1.72002 18.2574 2.74811 17.8535L1.28555 14.1305ZM238.507 22.0148C239.524 22.4448 240.697 21.9686 241.127 20.9511C241.557 19.9337 241.081 18.7603 240.064 18.3303L238.507 22.0148ZM2.74811 17.8535C26.5947 8.48562 71.9797 3.7717 118.399 4.32224C164.809 4.87265 211.683 10.679 238.507 22.0148L240.064 18.3303C212.487 6.67639 164.956 0.874118 118.447 0.322517C71.9469 -0.228967 25.8981 4.46171 1.28555 14.1305L2.74811 17.8535Z" fill="#57CC99"/>
</svg>
