<svg width="27" height="25" viewBox="0 0 27 25" fill="none" xmlns="http://www.w3.org/2000/svg">
<path d="M3.23178 14.046L12.6884 23.4601C13.0141 23.7844 13.177 23.9466 13.369 23.9865C13.4555 24.0045 13.5445 24.0045 13.631 23.9865C13.823 23.9466 13.9859 23.7844 14.3116 23.4601L23.7682 14.046C26.4289 11.3972 26.752 7.03841 24.5142 3.98186L24.0935 3.40714C21.4165 -0.249369 16.043 0.363855 14.1619 4.54053C13.8962 5.13051 13.1038 5.13051 12.8381 4.54053C10.957 0.363855 5.58354 -0.249364 2.90652 3.40714L2.48575 3.98186C0.247979 7.03841 0.571084 11.3972 3.23178 14.046Z" fill="#636363" stroke="#636363" stroke-width="2"/>
</svg>
