<svg width="25" height="25" viewBox="0 0 25 25" fill="none" xmlns="http://www.w3.org/2000/svg">
<path d="M1.92073 1.99333C2.18151 1.03601 2.3119 0.557354 2.70083 0.278677C3.08975 0 3.62737 0 4.70261 0H20.2974C21.3726 0 21.9103 0 22.2992 0.278677C22.6881 0.557354 22.8185 1.03601 23.0793 1.99333L24.805 8.32813C24.9438 8.83783 25.0132 9.09268 24.9979 9.29968C24.9582 9.83643 24.5664 10.2969 24.0086 10.4625C23.7935 10.5263 23.5007 10.5263 22.9149 10.5263C22.1505 10.5263 21.7683 10.5263 21.4473 10.4577C20.548 10.2654 19.8046 9.68749 19.4501 8.90502C19.3236 8.62572 19.2622 8.28757 19.1394 7.61127C19.105 7.42205 19.0878 7.32744 19.0683 7.30255C19.0111 7.22946 18.8926 7.22946 18.8354 7.30255C18.816 7.32744 18.7988 7.42205 18.7644 7.61127L18.6475 8.25501C18.6351 8.32326 18.6289 8.35738 18.6227 8.38727C18.3697 9.60594 17.2236 10.4969 15.8722 10.5256C15.839 10.5263 15.8013 10.5263 15.7259 10.5263C15.6506 10.5263 15.6129 10.5263 15.5797 10.5256C14.2283 10.4969 13.0822 9.60594 12.8292 8.38727C12.823 8.35738 12.8168 8.32326 12.8044 8.25501L12.6875 7.61127C12.6531 7.42205 12.6359 7.32744 12.6164 7.30255C12.5592 7.22946 12.4408 7.22946 12.3836 7.30255C12.3641 7.32744 12.3469 7.42205 12.3125 7.61127L12.1956 8.25501C12.1832 8.32326 12.177 8.35738 12.1708 8.38727C11.9178 9.60594 10.7717 10.4969 9.42029 10.5256C9.38714 10.5263 9.34945 10.5263 9.27406 10.5263C9.19867 10.5263 9.16097 10.5263 9.12783 10.5256C7.77638 10.4969 6.63031 9.60594 6.3773 8.38727C6.37109 8.35738 6.3649 8.32326 6.3525 8.25501L6.23559 7.61127C6.20123 7.42205 6.18405 7.32744 6.16456 7.30255C6.10736 7.22946 5.98887 7.22946 5.93167 7.30255C5.91218 7.32744 5.895 7.42205 5.86063 7.61127C5.73781 8.28757 5.6764 8.62572 5.54987 8.90502C5.19538 9.68749 4.45199 10.2654 3.55268 10.4577C3.23169 10.5263 2.84949 10.5263 2.0851 10.5263C1.49934 10.5263 1.20647 10.5263 0.99136 10.4625C0.433585 10.2969 0.0418096 9.83643 0.00208827 9.29968C-0.0132304 9.09268 0.056194 8.83783 0.195043 8.32813L1.92073 1.99333Z" fill="#636363"/>
<path d="M2.48879 12.5002C2.46373 13.0541 2.46373 13.7042 2.46373 14.4737V22.3684C2.46373 23.609 2.46373 24.2292 2.88367 24.6146C3.30361 25 3.97948 25 5.33124 25H9.6325V19.7368C9.6325 19.0102 10.2744 18.4211 11.0662 18.4211H13.9338C14.7256 18.4211 15.3675 19.0102 15.3675 19.7368V25H19.6688C21.0205 25 21.6964 25 22.1163 24.6146C22.5363 24.2292 22.5363 23.609 22.5363 22.3684V14.4737C22.5363 13.7042 22.5363 13.0541 22.5112 12.5002C21.9882 12.4991 21.4532 12.4855 20.9594 12.3799C20.2147 12.2207 19.5312 11.9104 18.9519 11.4826C18.1144 12.1012 17.0598 12.4746 15.9219 12.4988C15.8629 12.5 15.8009 12.5 15.7415 12.5H15.7105C15.6511 12.5 15.5889 12.5 15.53 12.4988C14.3921 12.4746 13.3375 12.1012 12.5 11.4826C11.6626 12.1012 10.6079 12.4746 9.47002 12.4988C9.41105 12.5 9.34897 12.5 9.28962 12.5H9.25861C9.19927 12.5 9.13706 12.5 9.0781 12.4988C7.94023 12.4746 6.88556 12.1012 6.04811 11.4826C5.46882 11.9104 4.78527 12.2207 4.04063 12.3799C3.54682 12.4855 3.01181 12.4991 2.48879 12.5002Z" fill="#636363"/>
</svg>
