<svg width="25" height="28" viewBox="0 0 30 33" fill="none" xmlns="http://www.w3.org/2000/svg">
<path d="M4.47273 6.37318C2.71984 7.8761 1.38844 8.96519 0.683131 10.5004L3.99666 12.0249C4.29201 11.3849 4.84272 10.8612 6.84712 9.14135L4.47273 6.37318ZM3.66283 16.0644C3.66283 13.4201 3.70131 12.6632 3.99666 12.0233L0.683131 10.4989C-0.0229478 12.0372 0.0155243 13.7539 0.0155243 16.0652L3.66283 16.0644ZM22.3639 9.1421C24.3698 10.8619 24.9191 11.3857 25.2144 12.0257L28.5286 10.5012C27.8226 8.96291 26.4919 7.87685 24.7367 6.37393L22.3639 9.1421ZM29.1955 16.0644C29.1955 13.757 29.234 12.0356 28.5279 10.4981L25.2136 12.0226C25.509 12.6625 25.5474 13.4194 25.5474 16.0637L29.1955 16.0644ZM20.0765 32.9157C21.4934 32.9524 22.9113 32.9026 24.3222 32.7665C25.5454 32.6667 26.6983 32.1541 27.5918 31.3128L25.0129 28.7339C24.8744 28.8723 24.6283 29.0415 23.8346 29.1515C22.585 29.2638 21.3299 29.3028 20.0757 29.2684L20.0765 32.9157ZM25.5474 23.7967C25.5819 25.0508 25.5428 26.306 25.4305 27.5555C25.3228 28.347 25.1513 28.5954 25.0129 28.7339L27.5918 31.3128C28.433 30.4193 28.9456 29.2663 29.0455 28.0432C29.1816 26.6323 29.2315 25.2144 29.1948 23.7975L25.5474 23.7967ZM0.0116747 23.7967C-0.025016 25.2136 0.0247917 26.6315 0.160866 28.0424C0.260613 29.2656 0.773232 30.4186 1.61457 31.312L4.19355 28.7331C4.0551 28.5947 3.88587 28.3485 3.77588 27.5548C3.66353 26.3052 3.62451 25.0501 3.65898 23.7959L0.0116747 23.7967ZM9.13072 29.2684C7.87657 29.3028 6.62146 29.2638 5.37187 29.1515C4.58042 29.0439 4.332 28.8716 4.19355 28.7331L1.61457 31.3128C2.5083 32.1543 3.66155 32.6669 4.885 32.7665C6.29588 32.9026 7.71377 32.9524 9.13072 32.9157V29.2684ZM22.9093 4.80948C21.5568 3.59102 20.1357 2.45104 18.6528 1.39521C17.475 0.530325 16.0622 0.0437779 14.6017 0V3.64731C15.3471 3.69586 16.0596 3.97212 16.643 4.43876C17.9982 5.41172 19.2981 6.45965 20.5364 7.57765L22.9093 4.80948ZM8.6677 7.5784C9.90626 6.46035 11.2064 5.41242 12.5619 4.43951C13.145 3.97302 13.8572 3.69676 14.6024 3.64806V0.000751122C13.1421 0.0446355 11.7296 0.531226 10.5521 1.39601C9.06842 2.45178 7.6465 3.59171 6.29331 4.81024L8.6677 7.5784ZM20.5372 7.5784L22.3609 9.14135L24.7329 6.37238L22.9093 4.80718L20.5372 7.5784ZM6.84633 9.14135L8.67 7.5784L6.29561 4.80948L4.47198 6.37238L6.84633 9.14135ZM3.66204 23.799V16.066H0.0116747V23.799H3.66204ZM20.0765 29.2707H9.13072V32.918H20.0734L20.0765 29.2707ZM25.5474 16.0667V23.7998H29.1948V16.066L25.5474 16.0667Z" fill="black"/>
<path d="M11.8667 18.328C10.8994 18.3282 9.97187 18.7126 9.28791 19.3966C8.60395 20.0805 8.21959 21.0081 8.21939 21.9753H11.8667V18.328ZM17.3384 21.9753H20.9873C20.9872 21.4963 20.8927 21.0219 20.7093 20.5793C20.5259 20.1368 20.257 19.7347 19.9182 19.396C19.5794 19.0573 19.1772 18.7887 18.7345 18.6054C18.2919 18.4222 17.8175 18.3279 17.3384 18.328V21.9753ZM8.21939 21.9753V31.0959H11.8667V21.9753H8.21939ZM17.3384 21.9753V31.0959H20.9873V21.9753H17.3384ZM11.8667 21.9753H17.3384V18.328H11.8667V21.9753ZM8.21939 31.0959C8.21939 31.5796 8.41153 32.0434 8.75353 32.3854C9.09553 32.7274 9.55936 32.9196 10.043 32.9196C10.5267 32.9196 10.9906 32.7274 11.3326 32.3854C11.6746 32.0434 11.8667 31.5796 11.8667 31.0959H8.21939ZM17.3384 31.0959C17.3384 31.5796 17.5306 32.0434 17.8726 32.3854C18.2146 32.7274 18.6784 32.9196 19.1621 32.9196C19.6457 32.9196 20.1096 32.7274 20.4516 32.3854C20.7936 32.0434 20.9858 31.5796 20.9858 31.0959H17.3384Z" fill="black"/>
</svg>
