<svg width="40" height="33" viewBox="0 0 40 33" fill="none" xmlns="http://www.w3.org/2000/svg">
<path d="M39.815 4.34599C38.3333 5.00312 36.7615 5.43457 35.152 5.62599C36.847 4.61289 38.1156 3.01767 38.721 1.13799C37.1275 2.08145 35.3849 2.74631 33.568 3.10399C32.3457 1.80118 30.7278 0.938016 28.965 0.648346C27.2023 0.358676 25.3932 0.658681 23.8183 1.50184C22.2434 2.34501 20.9907 3.68422 20.2544 5.31182C19.5181 6.93942 19.3394 8.76447 19.746 10.504C16.5201 10.3422 13.3643 9.50379 10.4834 8.04321C7.60257 6.58263 5.06109 4.53253 3.02397 2.02599C1.98771 3.81315 1.67066 5.92778 2.13724 7.94026C2.60382 9.95274 3.81902 11.7121 5.53597 12.861C4.24685 12.8193 2.98627 12.4707 1.85897 11.844V11.944C1.85995 13.817 2.50809 15.6321 3.69369 17.0821C4.87928 18.5322 6.52949 19.528 8.36497 19.901C7.66871 20.0898 6.95038 20.185 6.22897 20.184C5.71568 20.185 5.20354 20.1354 4.69997 20.036C5.21897 21.6476 6.22812 23.057 7.58661 24.0676C8.94511 25.0781 10.5852 25.6393 12.278 25.673C9.40489 27.9281 5.85635 29.1504 2.20397 29.143C1.55826 29.1441 0.913074 29.106 0.271973 29.029C3.97999 31.4151 8.29756 32.681 12.707 32.675C27.629 32.675 35.79 20.314 35.79 9.59499C35.79 9.24399 35.781 8.88899 35.768 8.54399C37.3556 7.39614 38.726 5.97459 39.815 4.34599Z" fill="#1D9BF0"/>
</svg>
