<svg width="35" height="35" viewBox="0 0 35 35" fill="none" xmlns="http://www.w3.org/2000/svg">
<mask id="mask0_3002_1150" style="mask-type:alpha" maskUnits="userSpaceOnUse" x="0" y="0" width="35" height="35">
<path d="M0 35V0H35V35H0Z" fill="white"/>
</mask>
<g mask="url(#mask0_3002_1150)">
<path fill-rule="evenodd" clip-rule="evenodd" d="M35 17.4892C35 27.1601 27.1576 35.0001 17.4836 35.0001C7.80959 35.0001 -0.0328369 27.1601 -0.0328369 17.4892C-0.0328369 7.81822 7.80959 -0.021759 17.4836 -0.021759C27.1576 -0.021759 35 7.81822 35 17.4892Z" fill="#D5915B"/>
<path fill-rule="evenodd" clip-rule="evenodd" d="M26.2418 29.5279H8.72538C8.14467 29.5279 7.58775 29.2973 7.17713 28.8868C6.76651 28.4763 6.53583 27.9195 6.53583 27.339V9.82806C6.53583 9.24753 6.76651 8.69079 7.17713 8.2803C7.58775 7.8698 8.14467 7.63919 8.72538 7.63919H26.2418C26.8225 7.63919 27.3794 7.8698 27.7901 8.2803C28.2007 8.69079 28.4314 9.24753 28.4314 9.82806V27.339C28.4314 27.9195 28.2007 28.4763 27.7901 28.8868C27.3794 29.2973 26.8225 29.5279 26.2418 29.5279Z" fill="#AE7A51"/>
<path fill-rule="evenodd" clip-rule="evenodd" d="M26.2418 6.54477H8.72538C8.14467 6.54477 7.58775 6.77538 7.17713 7.18587C6.76651 7.59637 6.53583 8.15311 6.53583 8.73364V26.2446C6.53583 26.8251 6.76651 27.3819 7.17713 27.7923C7.58775 28.2028 8.14467 28.4334 8.72538 28.4334H26.2418C26.8225 28.4334 27.3794 28.2028 27.7901 27.7923C28.2007 27.3819 28.4314 26.8251 28.4314 26.2446V8.73364C28.4314 8.15311 28.2007 7.59637 27.7901 7.18587C27.3794 6.77538 26.8225 6.54477 26.2418 6.54477ZM8.72538 26.2446H26.2418V8.73364H8.72538V26.2446Z" fill="#FFFFFE"/>
<path fill-rule="evenodd" clip-rule="evenodd" d="M8.72539 27.339C8.12162 27.339 7.63062 26.8482 7.63062 26.2446V8.73362C7.63062 8.13004 8.12162 7.63919 8.72539 7.63919H26.2418C26.8456 7.63919 27.3366 8.13004 27.3366 8.73362V26.2446C27.3366 26.8482 26.8456 27.339 26.2418 27.339H8.72539Z" fill="#76ABC4"/>
<path fill-rule="evenodd" clip-rule="evenodd" d="M8.72534 26.2446H26.2418V24.0557H8.72534V26.2446Z" fill="#FFFFFE"/>
<path fill-rule="evenodd" clip-rule="evenodd" d="M7.62512 24.0557H26.7262V22.4573C26.7262 22.4573 25.7929 20.8282 24.9275 19.8071C24.2838 19.0481 23.3226 18.833 22.484 19.766L20.9776 21.2123L17.6938 17.0376C16.4709 15.483 14.4697 15.483 13.2468 17.0376L7.62512 24.0557Z" fill="#4C5665"/>
<path fill-rule="evenodd" clip-rule="evenodd" d="M23.5048 13.1113C23.5048 13.5467 23.3318 13.9643 23.0239 14.2722C22.7159 14.58 22.2982 14.753 21.8627 14.753C21.4272 14.753 21.0095 14.58 20.7015 14.2722C20.3935 13.9643 20.2205 13.5467 20.2205 13.1113C20.2205 12.6759 20.3935 12.2584 20.7015 11.9505C21.0095 11.6426 21.4272 11.4697 21.8627 11.4697C22.2982 11.4697 22.7159 11.6426 23.0239 11.9505C23.3318 12.2584 23.5048 12.6759 23.5048 13.1113Z" fill="#F0CB83"/>
<path fill-rule="evenodd" clip-rule="evenodd" d="M26.2418 6.54477H8.72538C8.14467 6.54477 7.58775 6.77538 7.17713 7.18587C6.76651 7.59637 6.53583 8.15311 6.53583 8.73364V26.2446C6.53583 26.8251 6.76651 27.3819 7.17713 27.7923C7.58775 28.2028 8.14467 28.4334 8.72538 28.4334H26.2418C26.8225 28.4334 27.3794 28.2028 27.7901 27.7923C28.2007 27.3819 28.4314 26.8251 28.4314 26.2446V8.73364C28.4314 8.15311 28.2007 7.59637 27.7901 7.18587C27.3794 6.77538 26.8225 6.54477 26.2418 6.54477ZM8.72538 26.2446H26.2418V8.73364H8.72538V26.2446Z" fill="#FFFFFE"/>
</g>
</svg>
