<svg width="35" height="35" viewBox="0 0 35 35" fill="none" xmlns="http://www.w3.org/2000/svg">
<path d="M22.2152 5.83334H12.7841C8.95127 5.83334 5.83301 8.9516 5.83301 12.7845V22.2155C5.83301 26.0484 8.95127 29.1667 12.7841 29.1667H22.2152C26.0481 29.1667 29.1663 26.0484 29.1663 22.2155V12.7845C29.1663 8.9516 26.048 5.83334 22.2152 5.83334ZM26.819 22.2155C26.819 24.7581 24.7578 26.8193 22.2152 26.8193H12.7841C10.2416 26.8193 8.18034 24.7581 8.18034 22.2155V12.7845C8.18034 10.2418 10.2416 8.18068 12.7841 8.18068H22.2152C24.7578 8.18068 26.819 10.2418 26.819 12.7845V22.2155Z" fill="url(#paint0_linear_1593_750)"/>
<path d="M17.4997 11.4651C14.1721 11.4651 11.4648 14.1724 11.4648 17.4999C11.4648 20.8275 14.1721 23.5348 17.4997 23.5348C20.8273 23.5348 23.5345 20.8275 23.5345 17.4999C23.5345 14.1723 20.8273 11.4651 17.4997 11.4651ZM17.4997 21.1875C15.4631 21.1875 13.8122 19.5365 13.8122 17.5C13.8122 15.4634 15.4632 13.8125 17.4997 13.8125C19.5362 13.8125 21.1872 15.4634 21.1872 17.5C21.1872 19.5365 19.5362 21.1875 17.4997 21.1875Z" fill="url(#paint1_linear_1593_750)"/>
<path d="M23.5467 12.9566C24.3453 12.9566 24.9927 12.3092 24.9927 11.5105C24.9927 10.7119 24.3453 10.0645 23.5467 10.0645C22.748 10.0645 22.1006 10.7119 22.1006 11.5105C22.1006 12.3092 22.748 12.9566 23.5467 12.9566Z" fill="url(#paint2_linear_1593_750)"/>
<defs>
<linearGradient id="paint0_linear_1593_750" x1="17.4997" y1="29.0988" x2="17.4997" y2="6.01458" gradientUnits="userSpaceOnUse">
<stop stop-color="#E09B3D"/>
<stop offset="0.3" stop-color="#C74C4D"/>
<stop offset="0.6" stop-color="#C21975"/>
<stop offset="1" stop-color="#7024C4"/>
</linearGradient>
<linearGradient id="paint1_linear_1593_750" x1="17.4997" y1="29.0987" x2="17.4997" y2="6.01455" gradientUnits="userSpaceOnUse">
<stop stop-color="#E09B3D"/>
<stop offset="0.3" stop-color="#C74C4D"/>
<stop offset="0.6" stop-color="#C21975"/>
<stop offset="1" stop-color="#7024C4"/>
</linearGradient>
<linearGradient id="paint2_linear_1593_750" x1="23.5467" y1="29.0988" x2="23.5467" y2="6.01462" gradientUnits="userSpaceOnUse">
<stop stop-color="#E09B3D"/>
<stop offset="0.3" stop-color="#C74C4D"/>
<stop offset="0.6" stop-color="#C21975"/>
<stop offset="1" stop-color="#7024C4"/>
</linearGradient>
</defs>
</svg>
