<svg width="105" height="26" viewBox="0 0 105 26" fill="none" xmlns="http://www.w3.org/2000/svg">
<path d="M58.0042 0.00142624C57.5741 -0.0146637 57.1492 0.105687 56.7842 0.347088C56.4191 0.58849 56.1304 0.9399 55.9553 1.35625C55.7801 1.77259 55.7263 2.2349 55.8009 2.68382C55.8755 3.13273 56.0751 3.54779 56.3739 3.87578C56.6728 4.20376 57.0574 4.42971 57.4783 4.5246C57.8993 4.6195 58.3374 4.579 58.7364 4.40836C59.1355 4.23771 59.4774 3.9447 59.7181 3.56687C59.9589 3.18904 60.0875 2.74365 60.0876 2.28783C60.1045 1.98969 60.0627 1.69108 59.965 1.41092C59.8672 1.13076 59.7156 0.875137 59.5198 0.660225C59.324 0.445313 59.0881 0.275776 58.8273 0.162372C58.5664 0.0489681 58.2861 -0.00581113 58.0042 0.00142624Z" fill="#828282"/>
<path d="M78.2107 6.35541V20.6562H74.3469V9.83685H68.0992V15.7329C68.0992 16.925 68.5763 17.4076 69.4042 17.3819C70.0349 17.341 70.6504 17.1598 71.2105 16.85L72.0177 19.8536C70.9444 20.4951 69.7334 20.8336 68.501 20.8367C66.0902 20.8367 64.2587 19.3748 64.2587 16.4244V9.81024H59.9376V20.6496H56.081V6.34782H59.9466V6.98522H64.2632V3.05829H68.0992V6.99282H74.3487V6.35541H78.2107Z" fill="#828282"/>
<path d="M76.2799 0.00142624C75.8498 -0.0146637 75.425 0.105687 75.06 0.347088C74.6949 0.58849 74.4062 0.9399 74.2311 1.35625C74.0559 1.77259 74.0021 2.2349 74.0767 2.68382C74.1513 3.13273 74.3509 3.54779 74.6497 3.87578C74.9486 4.20376 75.3331 4.42971 75.7541 4.5246C76.175 4.6195 76.6132 4.579 77.0122 4.40836C77.4113 4.23771 77.7531 3.9447 77.9939 3.56687C78.2346 3.18904 78.3633 2.74365 78.3634 2.28783C78.3803 1.98965 78.3387 1.69097 78.241 1.41074C78.1433 1.13052 77.9917 0.874878 77.7959 0.659935C77.6 0.444993 77.3641 0.275436 77.1032 0.162082C76.8422 0.0487282 76.5619 -0.00595523 76.2799 0.00142624Z" fill="#828282"/>
<path d="M13.4291 16.7757V20.6514H9.56354V0.931335H13.4291V11.7783L18.3727 6.38094H22.7656L17.8229 11.8837L22.9908 20.6494H18.4238L15.161 14.8398L13.4291 16.7757Z" fill="#828282"/>
<path d="M32.2025 18.9805C31.6772 19.6136 31.0217 20.1105 30.2865 20.4331C29.5514 20.7557 28.7562 20.8954 27.9621 20.8414C25.0759 20.8414 23.3207 18.9806 23.3207 16.3769C23.3207 13.6953 25.1494 12.0966 28.4643 12.07H32.1792V11.8031C32.1792 10.2832 31.2258 9.41974 29.3657 9.41974C27.9502 9.47691 26.5704 9.90585 25.3503 10.6679L24.153 7.84194C26.0206 6.76086 28.1153 6.1957 30.2437 6.19862C33.859 6.19862 35.9416 8.11175 35.9667 11.3281L35.9918 20.658H32.2007L32.2025 18.9805ZM32.1774 15.7642V14.4884H29.1406C27.6598 14.4884 26.9324 14.9634 26.9324 16.1099C26.9324 17.2004 27.7396 17.9147 29.0419 17.9147C30.6715 17.9166 31.9478 16.9867 32.1765 15.7642H32.1774Z" fill="#828282"/>
<path d="M53.5151 13.5851C53.5151 17.9166 51.0299 20.8148 47.237 20.8148C46.3954 20.8506 45.5586 20.6653 44.801 20.2755C44.0435 19.8856 43.3887 19.3034 42.8951 18.5807V25.8103H39.0331V6.35633H42.8987V8.45564C43.3788 7.73733 44.0203 7.15689 44.7651 6.76669C45.5099 6.37649 46.3348 6.18877 47.1652 6.22049C50.9554 6.22144 53.5151 9.17848 53.5151 13.5851ZM49.5993 13.4521C49.5993 11.1657 48.245 9.51761 46.2611 9.51761C44.2772 9.51761 42.8978 11.1382 42.8978 13.4521C42.8978 15.8174 44.2772 17.4113 46.2611 17.4113C48.245 17.4113 49.5993 15.7908 49.5993 13.4521Z" fill="#828282"/>
<path d="M86.4936 5.79677V6.98891H89.6802V9.83294H86.4936V20.6495H82.6541V9.83671H80.8459V6.99274H82.6532V5.63722C82.6532 2.44744 84.9115 0.746177 87.6228 0.746177C88.8683 0.726133 90.0944 1.07591 91.1619 1.75591L89.7807 4.73573C89.2928 4.34894 88.7021 4.13518 88.0928 4.12493C87.8794 4.10298 87.6641 4.13098 87.462 4.20691C87.26 4.28285 87.0762 4.40491 86.9237 4.5644C86.7711 4.7239 86.6535 4.91695 86.5792 5.12992C86.5049 5.34288 86.4757 5.57053 86.4936 5.79677Z" fill="#828282"/>
<path d="M98.5657 22.25C97.6123 24.7825 95.9549 25.9983 93.6221 25.9983C92.281 26.0327 90.9754 25.5404 89.9565 24.6162L91.5879 21.6649C92.0615 22.1463 92.6886 22.4216 93.3449 22.4362C93.7298 22.4431 94.1074 22.3242 94.4262 22.0958C94.7451 21.8674 94.9898 21.5404 95.127 21.1595L95.5037 20.3626L89.9072 6.35907H93.8974L97.4365 16.1915L100.624 6.35907H104.49L98.5657 22.25Z" fill="#828282"/>
<path d="M3.05837 0.931396C3.66326 0.931396 4.25456 1.12137 4.75751 1.4773C5.26045 1.83322 5.65245 2.33911 5.88393 2.93099C6.11541 3.52287 6.17598 4.17416 6.05797 4.8025C5.93996 5.43084 5.64868 6.008 5.22096 6.46101C4.79324 6.91402 4.24829 7.22252 3.65503 7.3475C3.06176 7.47249 2.44682 7.40834 1.88798 7.16318C1.32914 6.91801 0.851486 6.50284 0.515428 5.97016C0.17937 5.43748 0 4.81122 0 4.17057C0 3.31149 0.32222 2.48759 0.895775 1.88013C1.46933 1.27267 2.24724 0.931396 3.05837 0.931396Z" fill="#828282"/>
</svg>
