<svg width="112" height="28" viewBox="0 0 112 28" fill="none" xmlns="http://www.w3.org/2000/svg">
<path d="M62.1734 0.00152875C61.7123 -0.0157177 61.257 0.113283 60.8657 0.372036C60.4744 0.630789 60.165 1.00746 59.9772 1.45373C59.7894 1.9 59.7318 2.39553 59.8118 2.87672C59.8917 3.35791 60.1056 3.8028 60.4259 4.15436C60.7463 4.50591 61.1585 4.7481 61.6097 4.84982C62.0609 4.95153 62.5305 4.90813 62.9583 4.72522C63.386 4.54231 63.7525 4.22824 64.0105 3.82325C64.2686 3.41826 64.4065 2.94085 64.4066 2.45227C64.4246 2.1327 64.3799 1.81263 64.2751 1.51233C64.1703 1.21203 64.0078 0.938039 63.7979 0.70768C63.588 0.477321 63.3353 0.295598 63.0556 0.174043C62.776 0.0524878 62.4756 -0.00622882 62.1734 0.00152875Z" fill="#57CC99"/>
<path d="M83.8322 6.81219V22.1409H79.6908V10.5439H72.994V16.8637C72.994 18.1415 73.5054 18.6588 74.3927 18.6313C75.0688 18.5874 75.7285 18.3931 76.3289 18.0611L77.1941 21.2806C76.0437 21.9682 74.7457 22.331 73.4247 22.3343C70.8406 22.3343 68.8775 20.7674 68.8775 17.6049V10.5153H64.2457V22.1338H60.1119V6.80405H64.2553V7.48727H68.8823V3.27808H72.994V7.49541H79.6926V6.81219H83.8322Z" fill="#57CC99"/>
<path d="M81.7627 0.00152875C81.3017 -0.0157177 80.8464 0.113283 80.4551 0.372036C80.0638 0.630789 79.7544 1.00746 79.5666 1.45373C79.3788 1.9 79.3212 2.39553 79.4011 2.87672C79.4811 3.35791 79.695 3.8028 80.0153 4.15436C80.3357 4.50591 80.7479 4.7481 81.1991 4.84982C81.6503 4.95153 82.1199 4.90813 82.5477 4.72522C82.9754 4.54231 83.3418 4.22824 83.5999 3.82325C83.8579 3.41826 83.9958 2.94085 83.9959 2.45227C84.0141 2.13266 83.9695 1.81251 83.8648 1.51214C83.7601 1.21178 83.5976 0.937762 83.3876 0.707369C83.1777 0.476977 82.9248 0.295233 82.6451 0.173732C82.3654 0.0522307 82.0649 -0.00638328 81.7627 0.00152875Z" fill="#57CC99"/>
<path d="M14.3943 17.9815V22.1357H10.2509V0.998291H14.3943V12.6249L19.6933 6.83959H24.4019L19.104 12.7379L24.6433 22.1337H19.7481L16.2507 15.9065L14.3943 17.9815Z" fill="white"/>
<path d="M34.5172 20.3448C33.9541 21.0233 33.2515 21.556 32.4635 21.9018C31.6755 22.2476 30.8231 22.3973 29.9719 22.3394C26.8783 22.3394 24.9969 20.3448 24.9969 17.554C24.9969 14.6797 26.9572 12.9661 30.5103 12.9376H34.4922V12.6515C34.4922 11.0224 33.4703 10.0968 31.4764 10.0968C29.9593 10.1581 28.4803 10.6179 27.1725 11.4347L25.8891 8.40561C27.891 7.24683 30.1362 6.64105 32.4176 6.64418C36.2928 6.64418 38.525 8.69482 38.5519 12.1424L38.5789 22.1429H34.5152L34.5172 20.3448ZM34.4903 16.8973V15.5298H31.2351C29.648 15.5298 28.8683 16.0389 28.8683 17.2679C28.8683 18.4368 29.7335 19.2024 31.1294 19.2024C32.8761 19.2044 34.2441 18.2077 34.4893 16.8973H34.4903Z" fill="white"/>
<path d="M57.3618 14.5615C57.3618 19.2044 54.6979 22.3109 50.6323 22.3109C49.7303 22.3492 48.8333 22.1506 48.0213 21.7328C47.2093 21.3149 46.5075 20.6909 45.9785 19.9162V27.6655H41.8389V6.81318H45.9823V9.06338C46.4969 8.29345 47.1845 7.67129 47.9828 7.25304C48.7812 6.83479 49.6653 6.63358 50.5554 6.66757C54.6181 6.66859 57.3618 9.83818 57.3618 14.5615ZM53.1645 14.419C53.1645 11.9683 51.7129 10.2017 49.5864 10.2017C47.4599 10.2017 45.9813 11.9387 45.9813 14.419C45.9813 16.9543 47.4599 18.6628 49.5864 18.6628C51.7129 18.6628 53.1645 16.9258 53.1645 14.419Z" fill="white"/>
<path d="M92.7105 6.21344V7.49127H96.1261V10.5397H92.7105V22.1338H88.5949V10.5438H86.6569V7.49537H88.594V6.04242C88.594 2.62337 91.0146 0.799824 93.9208 0.799824C95.2559 0.77834 96.57 1.15326 97.7143 1.88214L96.2338 5.07613C95.7108 4.66155 95.0777 4.43242 94.4246 4.42144C94.1959 4.3979 93.965 4.42792 93.7485 4.50931C93.532 4.5907 93.3349 4.72153 93.1714 4.89249C93.0079 5.06346 92.8818 5.27038 92.8022 5.49865C92.7225 5.72693 92.6912 5.97094 92.7105 6.21344Z" fill="white"/>
<path d="M105.65 23.8493C104.628 26.5638 102.852 27.867 100.351 27.867C98.9139 27.9038 97.5143 27.3761 96.4223 26.3856L98.171 23.2221C98.6786 23.7381 99.3508 24.0333 100.054 24.0489C100.467 24.0562 100.871 23.9289 101.213 23.684C101.555 23.4392 101.817 23.0887 101.964 22.6804L102.368 21.8262L96.3694 6.81616H100.646L104.44 17.3554L107.857 6.81616H112L105.65 23.8493Z" fill="white"/>
<path d="M3.27819 0.998291C3.92656 0.998291 4.56036 1.20192 5.09946 1.58343C5.63856 1.96494 6.05873 2.50719 6.30685 3.14161C6.55497 3.77604 6.61989 4.47414 6.4934 5.14764C6.36691 5.82114 6.05469 6.43979 5.59623 6.92536C5.13776 7.41093 4.55365 7.7416 3.91774 7.87557C3.28183 8.00954 2.6227 7.94078 2.02368 7.67799C1.42467 7.41521 0.912688 6.97019 0.552475 6.39922C0.192263 5.82826 0 5.15698 0 4.47029C0 3.54946 0.34538 2.66634 0.960161 2.01521C1.57494 1.36409 2.40876 0.998291 3.27819 0.998291Z" fill="#57CC99"/>
</svg>
