<svg width="31" height="31" viewBox="0 0 31 31" fill="none" xmlns="http://www.w3.org/2000/svg">
<ellipse cx="10.333" cy="19.375" rx="3.875" ry="3.875" fill="#57CC99" stroke="#57CC99" stroke-width="2"/>
<path d="M23.3116 7.81128C23.7021 7.42075 23.7021 6.78759 23.3116 6.39707C22.9211 6.00654 22.2879 6.00654 21.8974 6.39706L23.3116 7.81128ZM23.8349 12.3321L24.542 13.0392L25.9562 11.625L25.2491 10.9179L23.8349 12.3321ZM21.2516 12.3321L21.9587 13.0392L23.3729 11.625L22.6658 10.9179L21.2516 12.3321ZM12.2099 16.0846C11.8194 16.4751 11.8194 17.1083 12.2099 17.4988C12.6004 17.8893 13.2336 17.8893 13.6241 17.4988L12.2099 16.0846ZM18.7295 10.9792L18.0224 10.2721L18.7295 10.9792ZM20.6057 14.2696L21.3128 14.9767L22.727 13.5625L22.0199 12.8554L20.6057 14.2696ZM22.0199 9.10295L23.3116 7.81128L21.8974 6.39706L20.6057 7.68873L22.0199 9.10295ZM20.6057 9.10295L23.8349 12.3321L25.2491 10.9179L22.0199 7.68873L20.6057 9.10295ZM20.7283 10.3946L22.0199 9.10295L20.6057 7.68873L19.3141 8.9804L20.7283 10.3946ZM19.3141 10.3946L21.2516 12.3321L22.6658 10.9179L20.7283 8.9804L19.3141 10.3946ZM13.6241 17.4988L19.4366 11.6863L18.0224 10.2721L12.2099 16.0846L13.6241 17.4988ZM19.4366 11.6863L20.7283 10.3946L19.3141 8.9804L18.0224 10.2721L19.4366 11.6863ZM18.0224 11.6863L20.6057 14.2696L22.0199 12.8554L19.4366 10.2721L18.0224 11.6863Z" fill="#57CC99"/>
</svg>
