<svg width="182" height="109" viewBox="0 0 182 109" fill="none" xmlns="http://www.w3.org/2000/svg">
<rect width="182" height="109" rx="5" fill="#F3F3F3"/>
<path d="M93 2C93 0.89543 93.8954 0 95 0H177C179.761 0 182 2.23858 182 5V14H95C93.8954 14 93 13.1046 93 12V2Z" fill="#06335B"/>
<path d="M116.72 6.984C116.72 8.328 117.584 9.112 119.016 9.112C120.448 9.112 121.312 8.328 121.312 6.984V3.4H120.528V6.912C120.528 7.888 120.024 8.376 119.016 8.376C118.008 8.376 117.504 7.888 117.504 6.912V3.4H116.72V6.984ZM126.295 6.392C126.295 5.4 125.759 4.832 124.855 4.832C124.215 4.832 123.703 5.12 123.471 5.608V4.944H122.719V9H123.471V6.608C123.471 5.944 123.959 5.528 124.655 5.528C125.263 5.528 125.543 5.848 125.543 6.576V9H126.295V6.392ZM130.745 4.944V5.664C130.513 5.152 129.945 4.832 129.281 4.832C128.177 4.832 127.361 5.72 127.361 6.976C127.361 8.224 128.177 9.112 129.281 9.112C129.945 9.112 130.513 8.792 130.745 8.28V9H131.497V4.944H130.745ZM130.777 6.976C130.777 7.4 130.657 7.744 130.417 8.016C130.177 8.28 129.857 8.416 129.465 8.416C129.073 8.416 128.753 8.28 128.505 8.016C128.265 7.744 128.145 7.4 128.145 6.976C128.145 6.552 128.265 6.2 128.505 5.936C128.753 5.664 129.073 5.528 129.465 5.528C130.257 5.528 130.777 6.12 130.777 6.976ZM135.58 4.944L134.356 8.176L133.124 4.944H132.324L133.948 9H134.756L136.388 4.944H135.58ZM140.198 4.944V5.664C139.966 5.152 139.398 4.832 138.734 4.832C137.63 4.832 136.814 5.72 136.814 6.976C136.814 8.224 137.63 9.112 138.734 9.112C139.398 9.112 139.966 8.792 140.198 8.28V9H140.95V4.944H140.198ZM140.23 6.976C140.23 7.4 140.11 7.744 139.87 8.016C139.63 8.28 139.31 8.416 138.918 8.416C138.526 8.416 138.206 8.28 137.958 8.016C137.718 7.744 137.598 7.4 137.598 6.976C137.598 6.552 137.718 6.2 137.958 5.936C138.206 5.664 138.526 5.528 138.918 5.528C139.71 5.528 140.23 6.12 140.23 6.976ZM142.209 3.64C142.209 3.928 142.417 4.144 142.713 4.144C143.009 4.144 143.217 3.928 143.217 3.64C143.217 3.352 143.009 3.136 142.713 3.136C142.417 3.136 142.209 3.352 142.209 3.64ZM142.337 9H143.089V4.944H142.337V9ZM144.469 9H145.221V3.144H144.469V9ZM149.698 4.944V5.664C149.466 5.152 148.898 4.832 148.234 4.832C147.13 4.832 146.314 5.72 146.314 6.976C146.314 8.224 147.13 9.112 148.234 9.112C148.898 9.112 149.466 8.792 149.698 8.28V9H150.45V4.944H149.698ZM149.73 6.976C149.73 7.4 149.61 7.744 149.37 8.016C149.13 8.28 148.81 8.416 148.418 8.416C148.026 8.416 147.706 8.28 147.458 8.016C147.218 7.744 147.098 7.4 147.098 6.976C147.098 6.552 147.218 6.2 147.458 5.936C147.706 5.664 148.026 5.528 148.418 5.528C149.21 5.528 149.73 6.12 149.73 6.976ZM155.957 6.976C155.957 5.72 155.157 4.832 154.053 4.832C153.381 4.832 152.813 5.152 152.581 5.664V3.144H151.829V9H152.581V8.28C152.813 8.792 153.381 9.112 154.053 9.112C155.157 9.112 155.957 8.224 155.957 6.976ZM155.181 6.976C155.181 7.4 155.061 7.744 154.813 8.016C154.573 8.28 154.253 8.416 153.861 8.416C153.469 8.416 153.149 8.28 152.909 8.016C152.669 7.744 152.549 7.4 152.549 6.976C152.549 6.12 153.069 5.528 153.861 5.528C154.253 5.528 154.573 5.664 154.813 5.936C155.061 6.2 155.181 6.552 155.181 6.976ZM157.063 9H157.815V3.144H157.063V9ZM162.86 7.2C162.876 7.08 162.884 6.96 162.884 6.84C162.884 5.648 162.076 4.832 160.948 4.832C159.756 4.832 158.908 5.744 158.908 6.984C158.908 8.24 159.764 9.112 161.012 9.112C161.756 9.112 162.38 8.808 162.772 8.264L162.284 7.832C161.956 8.232 161.532 8.432 161.028 8.432C160.268 8.432 159.764 7.976 159.676 7.2H162.86ZM159.692 6.624C159.812 5.928 160.268 5.52 160.948 5.52C161.612 5.52 162.06 5.92 162.124 6.624H159.692Z" fill="white"/>
<path d="M15.272 79H16.328V70.6H15.272V79ZM23.3817 70.216V74.044C23.0097 73.264 22.1457 72.76 21.1257 72.76C19.4697 72.76 18.2457 74.092 18.2457 75.964C18.2457 77.836 19.4697 79.168 21.1257 79.168C22.1457 79.168 23.0097 78.664 23.3817 77.884V79H24.3897V70.216H23.3817ZM23.4297 75.964C23.4297 76.624 23.2377 77.176 22.8537 77.596C22.4817 78.016 21.9777 78.232 21.3657 78.232C20.7537 78.232 20.2497 78.016 19.8657 77.596C19.4937 77.176 19.3017 76.624 19.3017 75.964C19.3017 75.304 19.4937 74.752 19.8657 74.332C20.2497 73.912 20.7537 73.696 21.3657 73.696C21.9777 73.696 22.4817 73.912 22.8537 74.332C23.2377 74.752 23.4297 75.304 23.4297 75.964ZM32.0127 76.276C32.0367 76.096 32.0487 75.916 32.0487 75.736C32.0487 73.972 30.8487 72.76 29.1567 72.76C27.3687 72.76 26.1207 74.116 26.1207 75.976C26.1207 77.86 27.4047 79.168 29.2407 79.168C30.3567 79.168 31.2927 78.688 31.8807 77.86L31.1967 77.284C30.6927 77.92 30.0447 78.232 29.2647 78.232C28.0767 78.232 27.2607 77.488 27.1527 76.276H32.0127ZM27.1767 75.46C27.3567 74.368 28.0887 73.696 29.1567 73.696C30.2127 73.696 30.9207 74.344 31.0167 75.46H27.1767ZM39.028 75.112C39.028 73.612 38.248 72.76 36.868 72.76C35.872 72.76 35.092 73.192 34.756 73.96V72.928H33.748V79H34.756V75.388C34.756 74.368 35.536 73.696 36.628 73.696C37.588 73.696 38.02 74.2 38.02 75.352V79H39.028V75.112ZM41.5162 77.44C41.5162 78.532 42.1642 79.096 43.3642 79.096C43.7482 79.096 44.1082 79.048 44.4562 78.94V78.1C44.1082 78.172 43.7842 78.208 43.5082 78.208C42.8242 78.208 42.5242 77.956 42.5242 77.368V73.792H44.4322V72.928H42.5242V71.128H41.5162V72.928H40.3042V73.792H41.5162V77.44ZM45.8141 70.96C45.8141 71.356 46.1141 71.656 46.5101 71.656C46.9061 71.656 47.2061 71.356 47.2061 70.96C47.2061 70.564 46.9061 70.264 46.5101 70.264C46.1141 70.264 45.8141 70.564 45.8141 70.96ZM46.0061 79H47.0141V72.928H46.0061V79ZM49.6256 77.44C49.6256 78.532 50.2736 79.096 51.4736 79.096C51.8576 79.096 52.2176 79.048 52.5656 78.94V78.1C52.2176 78.172 51.8936 78.208 51.6176 78.208C50.9336 78.208 50.6336 77.956 50.6336 77.368V73.792H52.5416V72.928H50.6336V71.128H49.6256V72.928H48.4136V73.792H49.6256V77.44ZM58.2434 72.928V76.372C58.2434 77.38 57.4514 78.064 56.3474 78.064C55.3994 78.064 54.9554 77.56 54.9554 76.408V72.928H53.9474V76.648C53.9474 78.172 54.7514 79 56.1074 79C57.1034 79 57.8954 78.568 58.2434 77.8V78.412C58.2434 79.888 57.5234 80.632 56.2634 80.632C55.5434 80.632 54.8474 80.38 54.3554 79.936L53.7674 80.656C54.3314 81.232 55.2674 81.568 56.2874 81.568C58.1594 81.568 59.2514 80.464 59.2514 78.412V72.928H58.2434ZM20.96 85.6L18.164 92.728L15.368 85.6H14.264L17.624 94H18.704L22.064 85.6H20.96ZM28.1338 91.276C28.1578 91.096 28.1698 90.916 28.1698 90.736C28.1698 88.972 26.9698 87.76 25.2778 87.76C23.4898 87.76 22.2418 89.116 22.2418 90.976C22.2418 92.86 23.5258 94.168 25.3618 94.168C26.4778 94.168 27.4138 93.688 28.0018 92.86L27.3178 92.284C26.8138 92.92 26.1658 93.232 25.3858 93.232C24.1978 93.232 23.3818 92.488 23.2738 91.276H28.1338ZM23.2978 90.46C23.4778 89.368 24.2098 88.696 25.2778 88.696C26.3338 88.696 27.0418 89.344 27.1378 90.46H23.2978ZM33.2771 87.916C33.1211 87.856 32.9291 87.832 32.7251 87.832C31.8251 87.832 31.1531 88.288 30.8771 89.068V87.928H29.8691V94H30.8771V90.892C30.8771 89.464 31.5611 88.768 32.7491 88.768C32.9291 88.768 33.0971 88.78 33.2771 88.804V87.916ZM34.5406 85.96C34.5406 86.356 34.8406 86.656 35.2366 86.656C35.6326 86.656 35.9326 86.356 35.9326 85.96C35.9326 85.564 35.6326 85.264 35.2366 85.264C34.8406 85.264 34.5406 85.564 34.5406 85.96ZM34.7326 94H35.7406V87.928H34.7326V94ZM38.3881 94H39.3961V88.792H41.1721V87.928H39.3961V87.028C39.3961 86.296 39.6961 85.984 40.4041 85.984C40.6441 85.984 40.9081 86.008 41.1961 86.068V85.216C40.8841 85.144 40.5721 85.108 40.2721 85.108C38.9881 85.108 38.3881 85.696 38.3881 87.004V87.928H37.1401V88.792H38.3881V94ZM42.3102 85.96C42.3102 86.356 42.6102 86.656 43.0062 86.656C43.4022 86.656 43.7022 86.356 43.7022 85.96C43.7022 85.564 43.4022 85.264 43.0062 85.264C42.6102 85.264 42.3102 85.564 42.3102 85.96ZM42.5022 94H43.5102V87.928H42.5022V94ZM45.2457 90.964C45.2457 92.812 46.5177 94.168 48.3657 94.168C49.4817 94.168 50.3937 93.7 50.9097 92.848L50.1177 92.296C49.7457 92.908 49.1337 93.232 48.3777 93.232C47.7657 93.232 47.2617 93.028 46.8777 92.608C46.4937 92.188 46.3017 91.648 46.3017 90.964C46.3017 90.28 46.4937 89.74 46.8777 89.32C47.2617 88.9 47.7657 88.696 48.3777 88.696C49.1337 88.696 49.7457 89.02 50.1177 89.632L50.9097 89.08C50.3937 88.228 49.4817 87.76 48.3657 87.76C46.5177 87.76 45.2457 89.116 45.2457 90.964ZM57.0965 87.928V89.044C56.7485 88.264 55.8725 87.76 54.8525 87.76C53.1845 87.76 51.9605 89.092 51.9605 90.964C51.9605 92.836 53.1845 94.168 54.8525 94.168C55.8725 94.168 56.7485 93.664 57.0965 92.884V94H58.1045V87.928H57.0965ZM57.1445 90.964C57.1445 91.624 56.9525 92.176 56.5685 92.596C56.1965 93.016 55.6925 93.232 55.0805 93.232C54.4685 93.232 53.9645 93.016 53.5805 92.596C53.2085 92.176 53.0165 91.624 53.0165 90.964C53.0165 90.304 53.2085 89.752 53.5805 89.332C53.9645 88.912 54.4685 88.696 55.0805 88.696C55.6925 88.696 56.1965 88.912 56.5685 89.332C56.9525 89.752 57.1445 90.304 57.1445 90.964ZM60.7115 92.44C60.7115 93.532 61.3595 94.096 62.5595 94.096C62.9435 94.096 63.3035 94.048 63.6515 93.94V93.1C63.3035 93.172 62.9795 93.208 62.7035 93.208C62.0195 93.208 61.7195 92.956 61.7195 92.368V88.792H63.6275V87.928H61.7195V86.128H60.7115V87.928H59.4995V88.792H60.7115V92.44ZM65.0094 85.96C65.0094 86.356 65.3094 86.656 65.7054 86.656C66.1014 86.656 66.4014 86.356 66.4014 85.96C66.4014 85.564 66.1014 85.264 65.7054 85.264C65.3094 85.264 65.0094 85.564 65.0094 85.96ZM65.2014 94H66.2094V87.928H65.2014V94ZM67.9449 90.964C67.9209 92.68 69.2289 94.204 71.0649 94.168C72.9009 94.204 74.2089 92.68 74.1849 90.964C74.2089 89.248 72.9009 87.724 71.0649 87.76C69.2289 87.724 67.9209 89.248 67.9449 90.964ZM73.1289 90.964C73.1289 91.624 72.9369 92.176 72.5529 92.596C72.1809 93.016 71.6769 93.232 71.0649 93.232C70.4529 93.232 69.9489 93.016 69.5649 92.596C69.1929 92.176 69.0009 91.624 69.0009 90.964C69.0009 90.304 69.1929 89.752 69.5649 89.332C69.9489 88.912 70.4529 88.696 71.0649 88.696C71.6769 88.696 72.1809 88.912 72.5529 89.332C72.9369 89.752 73.1289 90.304 73.1289 90.964ZM81.192 90.112C81.192 88.612 80.412 87.76 79.032 87.76C78.036 87.76 77.256 88.192 76.92 88.96V87.928H75.912V94H76.92V90.388C76.92 89.368 77.7 88.696 78.792 88.696C79.752 88.696 80.184 89.2 80.184 90.352V94H81.192V90.112Z" fill="black"/>
<path d="M158.442 39.4425L161.877 36L158.442 32.5575L159.5 31.5L164 36L159.5 40.5L158.442 39.4425Z" fill="#4B4B4B"/>
<path d="M37.0667 56.6728C37.6563 56.5499 38.0072 55.9346 37.7387 55.3955C36.8725 53.6566 35.4065 52.1283 33.49 50.9845C31.1978 49.6165 28.3893 48.875 25.5 48.875C22.6108 48.875 19.8023 49.6165 17.5101 50.9845C15.5936 52.1283 14.1276 53.6566 13.2614 55.3955C12.9929 55.9346 13.3438 56.5499 13.9334 56.6728L17.3392 57.3826C22.7219 58.5044 28.2782 58.5044 33.6609 57.3826L37.0667 56.6728Z" fill="#828282"/>
<ellipse cx="25.4997" cy="38.6667" rx="7.29167" ry="7.29167" fill="#828282"/>
<circle cx="36.6875" cy="55.6875" r="6.6875" fill="#00FF66"/>
<path d="M33.7157 55.6875L35.9449 57.9167L39.6602 53.4583" stroke="white" stroke-width="2"/>
</svg>
