<svg width="182" height="109" viewBox="0 0 182 109" fill="none" xmlns="http://www.w3.org/2000/svg">
<rect width="182" height="109" rx="5" fill="#F3F3F3"/>
<path d="M93 2C93 0.89543 93.8954 0 95 0H177C179.761 0 182 2.23858 182 5V14H95C93.8954 14 93 13.1046 93 12V2Z" fill="#06335B"/>
<path d="M113.72 6.984C113.72 8.328 114.584 9.112 116.016 9.112C117.448 9.112 118.312 8.328 118.312 6.984V3.4H117.528V6.912C117.528 7.888 117.024 8.376 116.016 8.376C115.008 8.376 114.504 7.888 114.504 6.912V3.4H113.72V6.984ZM123.295 6.392C123.295 5.4 122.759 4.832 121.855 4.832C121.215 4.832 120.703 5.12 120.471 5.608V4.944H119.719V9H120.471V6.608C120.471 5.944 120.959 5.528 121.655 5.528C122.263 5.528 122.543 5.848 122.543 6.576V9H123.295V6.392ZM127.745 4.944V5.664C127.513 5.152 126.945 4.832 126.281 4.832C125.177 4.832 124.361 5.72 124.361 6.976C124.361 8.224 125.177 9.112 126.281 9.112C126.945 9.112 127.513 8.792 127.745 8.28V9H128.497V4.944H127.745ZM127.777 6.976C127.777 7.4 127.657 7.744 127.417 8.016C127.177 8.28 126.857 8.416 126.465 8.416C126.073 8.416 125.753 8.28 125.505 8.016C125.265 7.744 125.145 7.4 125.145 6.976C125.145 6.552 125.265 6.2 125.505 5.936C125.753 5.664 126.073 5.528 126.465 5.528C127.257 5.528 127.777 6.12 127.777 6.976ZM132.58 4.944L131.356 8.176L130.124 4.944H129.324L130.948 9H131.756L133.388 4.944H132.58ZM137.198 4.944V5.664C136.966 5.152 136.398 4.832 135.734 4.832C134.63 4.832 133.814 5.72 133.814 6.976C133.814 8.224 134.63 9.112 135.734 9.112C136.398 9.112 136.966 8.792 137.198 8.28V9H137.95V4.944H137.198ZM137.23 6.976C137.23 7.4 137.11 7.744 136.87 8.016C136.63 8.28 136.31 8.416 135.918 8.416C135.526 8.416 135.206 8.28 134.958 8.016C134.718 7.744 134.598 7.4 134.598 6.976C134.598 6.552 134.718 6.2 134.958 5.936C135.206 5.664 135.526 5.528 135.918 5.528C136.71 5.528 137.23 6.12 137.23 6.976ZM139.209 3.64C139.209 3.928 139.417 4.144 139.713 4.144C140.009 4.144 140.217 3.928 140.217 3.64C140.217 3.352 140.009 3.136 139.713 3.136C139.417 3.136 139.209 3.352 139.209 3.64ZM139.337 9H140.089V4.944H139.337V9ZM141.469 9H142.221V3.144H141.469V9ZM146.698 4.944V5.664C146.466 5.152 145.898 4.832 145.234 4.832C144.13 4.832 143.314 5.72 143.314 6.976C143.314 8.224 144.13 9.112 145.234 9.112C145.898 9.112 146.466 8.792 146.698 8.28V9H147.45V4.944H146.698ZM146.73 6.976C146.73 7.4 146.61 7.744 146.37 8.016C146.13 8.28 145.81 8.416 145.418 8.416C145.026 8.416 144.706 8.28 144.458 8.016C144.218 7.744 144.098 7.4 144.098 6.976C144.098 6.552 144.218 6.2 144.458 5.936C144.706 5.664 145.026 5.528 145.418 5.528C146.21 5.528 146.73 6.12 146.73 6.976ZM152.957 6.976C152.957 5.72 152.157 4.832 151.053 4.832C150.381 4.832 149.813 5.152 149.581 5.664V3.144H148.829V9H149.581V8.28C149.813 8.792 150.381 9.112 151.053 9.112C152.157 9.112 152.957 8.224 152.957 6.976ZM152.181 6.976C152.181 7.4 152.061 7.744 151.813 8.016C151.573 8.28 151.253 8.416 150.861 8.416C150.469 8.416 150.149 8.28 149.909 8.016C149.669 7.744 149.549 7.4 149.549 6.976C149.549 6.12 150.069 5.528 150.861 5.528C151.253 5.528 151.573 5.664 151.813 5.936C152.061 6.2 152.181 6.552 152.181 6.976ZM154.063 9H154.815V3.144H154.063V9ZM159.86 7.2C159.876 7.08 159.884 6.96 159.884 6.84C159.884 5.648 159.076 4.832 157.948 4.832C156.756 4.832 155.908 5.744 155.908 6.984C155.908 8.24 156.764 9.112 158.012 9.112C158.756 9.112 159.38 8.808 159.772 8.264L159.284 7.832C158.956 8.232 158.532 8.432 158.028 8.432C157.268 8.432 156.764 7.976 156.676 7.2H159.86ZM156.692 6.624C156.812 5.928 157.268 5.52 157.948 5.52C158.612 5.52 159.06 5.92 159.124 6.624H156.692Z" fill="white"/>
<path d="M11.552 77.212C12.032 78.448 13.256 79.168 14.948 79.168C16.916 79.168 18.08 78.16 18.08 76.696C18.08 75.544 17.372 74.812 15.752 74.428L14.396 74.104C13.304 73.852 12.884 73.456 12.884 72.784C12.884 71.908 13.604 71.392 14.804 71.392C15.848 71.392 16.652 71.788 17.048 72.472L17.876 71.968C17.456 71.056 16.316 70.432 14.828 70.432C12.968 70.432 11.804 71.416 11.804 72.796C11.804 73.912 12.584 74.668 14.144 75.04L15.5 75.364C16.544 75.616 16.988 76.048 16.988 76.732C16.988 77.632 16.22 78.208 14.96 78.208C13.76 78.208 12.848 77.68 12.404 76.72L11.552 77.212ZM20.1529 77.44C20.1529 78.532 20.8009 79.096 22.0009 79.096C22.3849 79.096 22.7449 79.048 23.0929 78.94V78.1C22.7449 78.172 22.4209 78.208 22.1449 78.208C21.4609 78.208 21.1609 77.956 21.1609 77.368V73.792H23.0689V72.928H21.1609V71.128H20.1529V72.928H18.9409V73.792H20.1529V77.44ZM24.5108 76.732C24.5108 78.172 25.5548 79.168 27.1268 79.168C28.6988 79.168 29.7428 78.172 29.7428 76.732V72.928H28.7348V76.672C28.7348 77.68 28.1468 78.232 27.1268 78.232C26.1068 78.232 25.5188 77.68 25.5188 76.672V72.928H24.5108V76.732ZM36.4832 70.216V74.044C36.1112 73.264 35.2472 72.76 34.2272 72.76C32.5712 72.76 31.3472 74.092 31.3472 75.964C31.3472 77.836 32.5712 79.168 34.2272 79.168C35.2472 79.168 36.1112 78.664 36.4832 77.884V79H37.4912V70.216H36.4832ZM36.5312 75.964C36.5312 76.624 36.3392 77.176 35.9552 77.596C35.5832 78.016 35.0792 78.232 34.4672 78.232C33.8552 78.232 33.3512 78.016 32.9672 77.596C32.5952 77.176 32.4032 76.624 32.4032 75.964C32.4032 75.304 32.5952 74.752 32.9672 74.332C33.3512 73.912 33.8552 73.696 34.4672 73.696C35.0792 73.696 35.5832 73.912 35.9552 74.332C36.3392 74.752 36.5312 75.304 36.5312 75.964ZM45.1142 76.276C45.1382 76.096 45.1502 75.916 45.1502 75.736C45.1502 73.972 43.9502 72.76 42.2582 72.76C40.4702 72.76 39.2222 74.116 39.2222 75.976C39.2222 77.86 40.5062 79.168 42.3422 79.168C43.4582 79.168 44.3942 78.688 44.9822 77.86L44.2982 77.284C43.7942 77.92 43.1462 78.232 42.3662 78.232C41.1782 78.232 40.3622 77.488 40.2542 76.276H45.1142ZM40.2782 75.46C40.4582 74.368 41.1902 73.696 42.2582 73.696C43.3142 73.696 44.0222 74.344 44.1182 75.46H40.2782ZM52.1295 75.112C52.1295 73.612 51.3495 72.76 49.9695 72.76C48.9735 72.76 48.1935 73.192 47.8575 73.96V72.928H46.8495V79H47.8575V75.388C47.8575 74.368 48.6375 73.696 49.7295 73.696C50.6895 73.696 51.1215 74.2 51.1215 75.352V79H52.1295V75.112ZM54.6178 77.44C54.6178 78.532 55.2658 79.096 56.4658 79.096C56.8498 79.096 57.2098 79.048 57.5578 78.94V78.1C57.2098 78.172 56.8858 78.208 56.6098 78.208C55.9258 78.208 55.6258 77.956 55.6258 77.368V73.792H57.5338V72.928H55.6258V71.128H54.6178V72.928H53.4058V73.792H54.6178V77.44ZM67.5612 79H68.8453L65.2573 74.8L68.7253 70.6H67.4653L64.4293 74.296H63.0853V70.6H62.0293V79H63.0853V75.268H64.3813L67.5612 79ZM75.5807 70.6L73.0007 74.584L70.4207 70.6H69.2327L72.4727 75.52V79H73.5287V75.52L76.7687 70.6H75.5807ZM77.0063 74.8C76.9703 77.224 78.8063 79.204 81.2423 79.168C82.8263 79.168 84.1943 78.412 84.9023 77.008L84.0503 76.504C83.4623 77.644 82.5143 78.184 81.3143 78.184C79.4063 78.184 78.1103 76.768 78.1103 74.8C78.1103 72.832 79.4063 71.416 81.3143 71.416C82.5383 71.416 83.4383 71.98 84.0263 73.096L84.9023 72.592C84.1943 71.188 82.8263 70.432 81.2423 70.432C78.8303 70.396 76.9703 72.376 77.0063 74.8ZM17.456 94H18.728L15.932 90.664C17.576 90.58 18.536 89.656 18.536 88.156C18.536 86.572 17.492 85.6 15.728 85.6H12.248V94H13.304V90.664H14.672L17.456 94ZM13.304 86.572H15.644C16.892 86.572 17.432 87.088 17.432 88.156C17.432 89.224 16.904 89.716 15.644 89.716H13.304V86.572ZM25.6611 91.276C25.6851 91.096 25.6971 90.916 25.6971 90.736C25.6971 88.972 24.4971 87.76 22.8051 87.76C21.0171 87.76 19.7691 89.116 19.7691 90.976C19.7691 92.86 21.0531 94.168 22.8891 94.168C24.0051 94.168 24.9411 93.688 25.5291 92.86L24.8451 92.284C24.3411 92.92 23.6931 93.232 22.9131 93.232C21.7251 93.232 20.9091 92.488 20.8011 91.276H25.6611ZM20.8251 90.46C21.0051 89.368 21.7371 88.696 22.8051 88.696C23.8611 88.696 24.5691 89.344 24.6651 90.46H20.8251ZM32.1004 87.928V89.032C31.7524 88.252 30.8764 87.76 29.8564 87.76C28.1884 87.76 26.9644 89.044 26.9644 90.88C26.9644 92.716 28.1884 94 29.8564 94C30.9004 94 31.7524 93.52 32.1004 92.752V93.304C32.1004 94.84 31.3444 95.632 29.9524 95.632C29.1004 95.632 28.3324 95.332 27.7684 94.816L27.1924 95.56C27.8164 96.196 28.8124 96.568 29.9524 96.568C31.9684 96.568 33.1084 95.416 33.1084 93.304V87.928H32.1004ZM32.1484 90.88C32.1484 91.516 31.9564 92.044 31.5724 92.452C31.2004 92.86 30.6964 93.064 30.0844 93.064C29.4724 93.064 28.9684 92.86 28.5844 92.452C28.2124 92.044 28.0204 91.516 28.0204 90.88C28.0204 90.244 28.2124 89.716 28.5844 89.308C28.9684 88.9 29.4724 88.696 30.0844 88.696C30.6964 88.696 31.2004 88.9 31.5724 89.308C31.9564 89.716 32.1484 90.244 32.1484 90.88ZM35.0914 85.96C35.0914 86.356 35.3914 86.656 35.7874 86.656C36.1834 86.656 36.4834 86.356 36.4834 85.96C36.4834 85.564 36.1834 85.264 35.7874 85.264C35.3914 85.264 35.0914 85.564 35.0914 85.96ZM35.2834 94H36.2914V87.928H35.2834V94ZM37.8829 92.848C38.3629 93.664 39.3589 94.168 40.5949 94.168C42.0829 94.168 42.9829 93.412 42.9829 92.26C42.9829 91.408 42.4669 90.868 41.2669 90.592L40.1989 90.352C39.3829 90.16 39.1069 89.932 39.1069 89.536C39.1069 88.996 39.5629 88.672 40.4269 88.672C41.1829 88.672 41.7949 88.924 42.1909 89.392L42.8869 88.792C42.3949 88.132 41.5429 87.76 40.4869 87.76C39.0109 87.76 38.0989 88.492 38.0989 89.56C38.0989 90.412 38.6989 90.964 39.9469 91.252L40.9069 91.468C41.6749 91.648 41.9749 91.9 41.9749 92.332C41.9749 92.896 41.4469 93.256 40.5829 93.256C39.7549 93.256 39.0469 92.932 38.6149 92.308L37.8829 92.848ZM45.0318 92.44C45.0318 93.532 45.6798 94.096 46.8798 94.096C47.2638 94.096 47.6238 94.048 47.9718 93.94V93.1C47.6238 93.172 47.2998 93.208 47.0238 93.208C46.3398 93.208 46.0398 92.956 46.0398 92.368V88.792H47.9478V87.928H46.0398V86.128H45.0318V87.928H43.8198V88.792H45.0318V92.44ZM52.9177 87.916C52.7617 87.856 52.5697 87.832 52.3657 87.832C51.4657 87.832 50.7937 88.288 50.5177 89.068V87.928H49.5097V94H50.5177V90.892C50.5177 89.464 51.2017 88.768 52.3897 88.768C52.5697 88.768 52.7377 88.78 52.9177 88.804V87.916ZM58.7606 87.928V89.044C58.4126 88.264 57.5366 87.76 56.5166 87.76C54.8486 87.76 53.6246 89.092 53.6246 90.964C53.6246 92.836 54.8486 94.168 56.5166 94.168C57.5366 94.168 58.4126 93.664 58.7606 92.884V94H59.7686V87.928H58.7606ZM58.8086 90.964C58.8086 91.624 58.6166 92.176 58.2326 92.596C57.8606 93.016 57.3566 93.232 56.7446 93.232C56.1326 93.232 55.6286 93.016 55.2446 92.596C54.8726 92.176 54.6806 91.624 54.6806 90.964C54.6806 90.304 54.8726 89.752 55.2446 89.332C55.6286 88.912 56.1326 88.696 56.7446 88.696C57.3566 88.696 57.8606 88.912 58.2326 89.332C58.6166 89.752 58.8086 90.304 58.8086 90.964ZM62.3756 92.44C62.3756 93.532 63.0236 94.096 64.2236 94.096C64.6076 94.096 64.9676 94.048 65.3156 93.94V93.1C64.9676 93.172 64.6436 93.208 64.3676 93.208C63.6836 93.208 63.3836 92.956 63.3836 92.368V88.792H65.2916V87.928H63.3836V86.128H62.3756V87.928H61.1636V88.792H62.3756V92.44ZM66.6734 85.96C66.6734 86.356 66.9734 86.656 67.3694 86.656C67.7654 86.656 68.0654 86.356 68.0654 85.96C68.0654 85.564 67.7654 85.264 67.3694 85.264C66.9734 85.264 66.6734 85.564 66.6734 85.96ZM66.8654 94H67.8734V87.928H66.8654V94ZM69.6089 90.964C69.5849 92.68 70.8929 94.204 72.7289 94.168C74.5649 94.204 75.8729 92.68 75.8489 90.964C75.8729 89.248 74.5649 87.724 72.7289 87.76C70.8929 87.724 69.5849 89.248 69.6089 90.964ZM74.7929 90.964C74.7929 91.624 74.6009 92.176 74.2169 92.596C73.8449 93.016 73.3409 93.232 72.7289 93.232C72.1169 93.232 71.6129 93.016 71.2289 92.596C70.8569 92.176 70.6649 91.624 70.6649 90.964C70.6649 90.304 70.8569 89.752 71.2289 89.332C71.6129 88.912 72.1169 88.696 72.7289 88.696C73.3409 88.696 73.8449 88.912 74.2169 89.332C74.6009 89.752 74.7929 90.304 74.7929 90.964ZM82.8561 90.112C82.8561 88.612 82.0761 87.76 80.6961 87.76C79.7001 87.76 78.9201 88.192 78.5841 88.96V87.928H77.5761V94H78.5841V90.388C78.5841 89.368 79.3641 88.696 80.4561 88.696C81.4161 88.696 81.8481 89.2 81.8481 90.352V94H82.8561V90.112Z" fill="black"/>
<path d="M159.442 30.4425L162.877 27L159.442 23.5575L160.5 22.5L165 27L160.5 31.5L159.442 30.4425Z" fill="#4B4B4B"/>
<rect x="13" y="41.0714" width="10.9286" height="18.2143" fill="#828282"/>
<rect x="36.0713" y="30.1429" width="10.9286" height="18.2143" fill="#828282"/>
<rect x="30" y="32.5714" width="10.9286" height="3.64286" fill="#828282"/>
<rect x="27.5713" y="38.6429" width="3.64286" height="3.64286" fill="#828282"/>
<rect x="19.0713" y="44.7143" width="10.9286" height="3.64286" fill="#828282"/>
<circle cx="17.8567" cy="32.5714" r="3.64286" fill="#828282"/>
<circle cx="40.929" cy="21.6429" r="3.64286" fill="#828282"/>
<circle cx="46.6875" cy="49.6875" r="6.6875" fill="#00FF66"/>
<path d="M43.7157 49.6875L45.9449 51.9167L49.6602 47.4583" stroke="white" stroke-width="2"/>
</svg>
