<svg width="36" height="36" viewBox="0 0 36 36" fill="none" xmlns="http://www.w3.org/2000/svg">
<path fill-rule="evenodd" clip-rule="evenodd" d="M35.1373 18.364C35.1381 17.1538 35.0307 15.946 34.8163 14.755H18.1973V21.581H27.6973C27.5009 22.6606 27.0876 23.6893 26.4824 24.6047C25.8772 25.5201 25.0927 26.3033 24.1763 26.907V31.334H29.8763C31.6129 29.6613 32.9786 27.6423 33.8849 25.408C34.7912 23.1736 35.2179 20.7738 35.1373 18.364Z" fill="#4285F4"/>
<path fill-rule="evenodd" clip-rule="evenodd" d="M18.1982 35.606C22.4918 35.7223 26.6678 34.1942 29.8722 31.334L24.1722 26.906C22.3931 28.0507 20.3122 28.6371 18.1972 28.59C15.9975 28.5626 13.8617 27.846 12.0906 26.5411C10.3195 25.2362 9.00224 23.4088 8.3242 21.316H2.4292V25.888C3.89809 28.8106 6.15074 31.2673 8.93544 32.9834C11.7201 34.6996 14.9272 35.6076 18.1982 35.606Z" fill="#34A853"/>
<path fill-rule="evenodd" clip-rule="evenodd" d="M8.32421 21.316C7.58639 19.1419 7.58639 16.7851 8.32421 14.611V10.039H2.42421C1.19005 12.4983 0.547363 15.2119 0.547363 17.9635C0.547363 20.7151 1.19005 23.4287 2.42421 25.888L8.32421 21.316Z" fill="#FBBC05"/>
<path fill-rule="evenodd" clip-rule="evenodd" d="M18.1982 7.33599C20.7062 7.29403 23.1296 8.24221 24.9432 9.97498L30.0042 4.91798C26.811 1.91684 22.5801 0.26832 18.1982 0.317985C14.9269 0.316681 11.7196 1.22513 8.93487 2.94181C6.15015 4.65849 3.89768 7.11576 2.4292 10.039L8.3292 14.611C9.00707 12.518 10.3243 10.6903 12.0954 9.38526C13.8665 8.0802 16.0024 7.36347 18.2022 7.33599H18.1982Z" fill="#EA4335"/>
</svg>
