<svg width="69" height="69" viewBox="0 0 69 69" fill="none" xmlns="http://www.w3.org/2000/svg">
<g clip-path="url(#clip0_1588_735)">
<rect width="53" height="53" transform="translate(0.506836 18.7204) rotate(-20.099)" fill="white"/>
<path d="M33.4187 37.0329L32.9147 38.9683L32.9147 38.9683L33.4187 37.0329ZM36.9601 35.737L38.5943 36.89L38.5943 36.89L36.9601 35.737ZM12.9553 28.6405L47.1738 16.119L45.7992 12.3626L11.5807 24.8841L12.9553 28.6405ZM48.8574 16.9006L56.8256 38.676L60.582 37.3014L52.6138 15.526L48.8574 16.9006ZM56.044 40.3596L21.8256 52.881L23.2001 56.6374L57.4186 44.116L56.044 40.3596ZM20.142 52.0995L12.1737 30.3241L8.41734 31.6987L16.3856 53.4741L20.142 52.0995ZM21.8256 52.881C21.1448 53.1301 20.3911 52.7802 20.142 52.0995L16.3856 53.4741C17.3938 56.2294 20.4448 57.6457 23.2001 56.6374L21.8256 52.881ZM56.8256 38.676C57.0747 39.3567 56.7248 40.1105 56.044 40.3596L57.4186 44.116C60.1739 43.1077 61.5902 40.0567 60.582 37.3014L56.8256 38.676ZM47.1738 16.119C47.8545 15.8699 48.6083 16.2198 48.8574 16.9006L52.6138 15.526C51.6055 12.7707 48.5545 11.3544 45.7992 12.3626L47.1738 16.119ZM11.5807 24.8841C8.82538 25.8924 7.40909 28.9433 8.41734 31.6987L12.1737 30.3241C11.9246 29.6434 12.2746 28.8896 12.9553 28.6405L11.5807 24.8841ZM9.79153 32.9468L32.9147 38.9683L33.9227 35.0974L10.7996 29.0759L9.79153 32.9468ZM38.5943 36.89L52.3697 17.3663L49.1014 15.0602L35.3259 34.584L38.5943 36.89ZM32.9147 38.9683C35.056 39.5259 37.3186 38.698 38.5943 36.89L35.3259 34.584C35.0108 35.0306 34.4517 35.2352 33.9227 35.0974L32.9147 38.9683Z" fill="#06335B"/>
</g>
<defs>
<clipPath id="clip0_1588_735">
<rect width="53" height="53" fill="white" transform="translate(0.506836 18.7204) rotate(-20.099)"/>
</clipPath>
</defs>
</svg>
