<svg width="148" height="149" viewBox="0 0 148 149" fill="none" xmlns="http://www.w3.org/2000/svg">
<rect width="148" height="149" fill="#E5E5E5"/>
<rect width="1024" height="969" transform="translate(-77 -609)" fill="white"/>
<rect y="0.868835" width="148" height="148" rx="32.0833" fill="#06335B" fill-opacity="0.26"/>
<g clip-path="url(#clip0_2752_668)">
<path d="M111.954 63.5552C111.273 64.0734 110.553 64.5118 109.793 64.9104L111.954 63.5552Z" stroke="black" stroke-width="1.60417" stroke-miterlimit="10"/>
<path d="M111.953 63.5552L109.753 64.9104" stroke="black" stroke-width="1.60417" stroke-miterlimit="10"/>
<path d="M111.954 63.5552C111.273 64.0734 110.553 64.5118 109.793 64.9104L111.954 63.5552Z" stroke="black" stroke-width="1.60417" stroke-miterlimit="10"/>
<path d="M113.193 36.1707V62.4789C112.793 62.8775 112.393 63.2363 111.953 63.5551C111.273 64.0733 110.553 64.5118 109.793 64.9104L72.7862 87.8703L35.9796 65.0699C35.1794 64.7111 34.4193 64.2726 33.7392 63.7544V36.1707C33.6992 32.5035 36.6997 29.514 40.4204 29.514H106.512C110.193 29.514 113.193 32.5035 113.193 36.1707Z" fill="white"/>
<rect x="45.6533" y="39.2289" width="54.3064" height="5.82896" fill="#ECECEC"/>
<rect x="45.6533" y="50.8868" width="54.3064" height="5.82896" fill="#ECECEC"/>
<rect x="45.6533" y="60.6017" width="54.3064" height="5.82896" fill="#ECECEC"/>
<rect x="45.6533" y="70.3167" width="54.3064" height="5.82896" fill="#ECECEC"/>
<path d="M82.7483 94.0886H40.4207C36.74 94.0886 33.7395 91.099 33.7395 87.4318V63.7544C34.4596 64.2726 35.1798 64.7111 35.9799 65.0699L72.7465 87.8703L82.7483 94.0886Z" fill="white"/>
<path d="M33.6996 42.7478V63.7545C33.4996 63.595 33.2995 63.4754 33.1395 63.316C30.219 60.9243 28.3386 57.297 28.3386 53.271C28.3386 48.9262 30.459 45.0996 33.6996 42.7478Z" fill="#06233E"/>
<mask id="path-12-inside-1_2752_668" fill="white">
<path d="M119.355 55.1445V98.1942C119.355 104.094 115.914 109.156 110.953 111.587L80.5646 96.547L67.9578 89.7465L109.753 64.9104C110.513 64.5517 111.233 64.0733 111.914 63.5551C112.354 63.2362 112.754 62.8376 113.154 62.4789C115.554 60.1271 116.995 56.8585 116.995 53.271C116.995 49.6835 115.514 46.415 113.154 44.0632V43.1065C116.914 45.7772 119.355 50.2017 119.355 55.1445Z"/>
</mask>
<path d="M119.355 55.1445V98.1942C119.355 104.094 115.914 109.156 110.953 111.587L80.5646 96.547L67.9578 89.7465L109.753 64.9104C110.513 64.5517 111.233 64.0733 111.914 63.5551C112.354 63.2362 112.754 62.8376 113.154 62.4789C115.554 60.1271 116.995 56.8585 116.995 53.271C116.995 49.6835 115.514 46.415 113.154 44.0632V43.1065C116.914 45.7772 119.355 50.2017 119.355 55.1445Z" fill="url(#paint0_linear_2752_668)" stroke="#06335B" stroke-width="0.9625" mask="url(#path-12-inside-1_2752_668)"/>
<mask id="path-13-inside-2_2752_668" fill="white">
<path d="M110.953 111.587C108.993 112.544 106.793 113.062 104.472 113.062H41.1807C32.9393 113.062 26.2581 106.406 26.2581 98.1942V55.1445C26.2581 49.6437 29.2586 44.8205 33.6994 42.2694V42.7478C30.4588 45.0996 28.3384 48.9262 28.3384 53.271C28.3384 57.3369 30.2188 60.9642 33.1393 63.316C33.3393 63.4754 33.4994 63.595 33.6994 63.7545C34.4195 64.2726 35.1397 64.7111 35.9398 65.0699L72.7064 87.8703L82.7082 94.0886L110.953 111.587Z"/>
</mask>
<path d="M110.953 111.587C108.993 112.544 106.793 113.062 104.472 113.062H41.1807C32.9393 113.062 26.2581 106.406 26.2581 98.1942V55.1445C26.2581 49.6437 29.2586 44.8205 33.6994 42.2694V42.7478C30.4588 45.0996 28.3384 48.9262 28.3384 53.271C28.3384 57.3369 30.2188 60.9642 33.1393 63.316C33.3393 63.4754 33.4994 63.595 33.6994 63.7545C34.4195 64.2726 35.1397 64.7111 35.9398 65.0699L72.7064 87.8703L82.7082 94.0886L110.953 111.587Z" fill="url(#paint1_linear_2752_668)" stroke="#06335B" stroke-width="0.9625" mask="url(#path-13-inside-2_2752_668)"/>
<path d="M117.034 53.271C117.034 56.8585 115.554 60.1271 113.194 62.4789V44.0233C115.554 46.3751 117.034 49.6437 117.034 53.271Z" fill="#06233E"/>
<path d="M113.193 36.1707V62.4789C112.793 62.8775 112.393 63.2363 111.953 63.5551C111.273 64.0733 110.553 64.5118 109.793 64.9104L72.7862 87.8703L35.9796 65.0699C35.1794 64.7111 34.4193 64.2726 33.7392 63.7544V36.1707C33.6992 32.5035 36.6997 29.514 40.4204 29.514H106.512C110.193 29.514 113.193 32.5035 113.193 36.1707Z" fill="url(#paint2_linear_2752_668)"/>
</g>
<defs>
<linearGradient id="paint0_linear_2752_668" x1="99.9598" y1="81.9746" x2="75.6996" y2="93.5987" gradientUnits="userSpaceOnUse">
<stop stop-color="#06335B"/>
<stop offset="1" stop-color="#082947"/>
</linearGradient>
<linearGradient id="paint1_linear_2752_668" x1="24.3185" y1="67.4022" x2="76.839" y2="179.052" gradientUnits="userSpaceOnUse">
<stop stop-color="#06335B"/>
<stop offset="1" stop-color="#062A4A"/>
</linearGradient>
<linearGradient id="paint2_linear_2752_668" x1="30.1369" y1="95.5755" x2="98.1227" y2="37.406" gradientUnits="userSpaceOnUse">
<stop stop-opacity="0.22"/>
<stop offset="1" stop-color="white" stop-opacity="0"/>
</linearGradient>
<clipPath id="clip0_2752_668">
<rect width="93.0968" height="83.5484" fill="white" transform="translate(26.2581 29.514)"/>
</clipPath>
</defs>
</svg>
