<svg width="9" height="12" viewBox="0 0 9 12" fill="none" xmlns="http://www.w3.org/2000/svg">
<path d="M8.46306 4.66732C8.46306 7.16163 6.08882 8.7293 5.12802 9.26159C4.87885 9.39963 4.58421 9.39963 4.33504 9.26159C3.37424 8.7293 1 7.16163 1 4.66732C1 2.60645 2.67066 0.935791 4.73153 0.935791C6.7924 0.935791 8.46306 2.60645 8.46306 4.66732Z" fill="#57CC99"/>
<circle cx="4.73155" cy="4.66731" r="1.59923" fill="white"/>
<path d="M7.96313 8.6654C8.29064 8.90851 8.46306 9.18429 8.46306 9.46501C8.46306 9.74573 8.29064 10.0215 7.96313 10.2646C7.63562 10.5077 7.16456 10.7096 6.5973 10.85C6.03003 10.9903 5.38655 11.0642 4.73153 11.0642C4.07651 11.0642 3.43303 10.9903 2.86577 10.85C2.2985 10.7096 1.82744 10.5077 1.49993 10.2646C1.17242 10.0215 1 9.74573 1 9.46501C1 9.18429 1.17242 8.90851 1.49993 8.6654" stroke="#57CC99" stroke-width="0.6" stroke-linecap="round"/>
</svg>
