<svg width="43" height="43" viewBox="0 0 43 43" fill="none" xmlns="http://www.w3.org/2000/svg">
<g clip-path="url(#clip0_1888_378)">
<path d="M6.16782 43C6.16782 28.6667 6.16782 14.3333 6.16782 0C18.4418 0 30.726 0 43 0C43 14.3333 43 28.6667 43 43C30.726 43 18.4418 43 6.16782 43ZM30.4176 10.4086C30.4176 8.90143 30.4279 7.52576 30.4176 6.15008C30.3971 3.62127 28.5262 1.7196 25.9665 1.70948C21.3818 1.68925 16.797 1.68925 12.2123 1.70948C9.66292 1.70948 7.74061 3.60103 7.74061 6.11974C7.73033 16.4171 7.73033 26.7245 7.74061 37.0219C7.74061 39.5912 9.66292 41.4625 12.2637 41.4726C16.797 41.4827 21.3304 41.4827 25.8534 41.4726C28.5159 41.4625 30.3971 39.6114 30.4176 36.9915C30.4279 35.2618 30.4382 33.522 30.4074 31.7923C30.3971 31.0033 30.4485 30.3155 31.0961 29.7187C31.4764 29.3646 31.7232 28.8386 31.9288 28.3531C32.1035 27.9181 32.3502 27.8069 32.8025 27.8069C35.0846 27.8271 37.3564 27.8271 39.6385 27.8069C41.0057 27.7968 41.7561 27.0583 41.7561 25.7231C41.7664 21.3129 41.7664 16.9026 41.7561 12.4924C41.7561 11.1369 41.016 10.4086 39.6488 10.3985C36.8733 10.3884 34.108 10.3985 31.3325 10.3985C31.055 10.4086 30.7774 10.4086 30.4176 10.4086Z" fill="white"/>
<path opacity="0.67" d="M17.3801 31.7603H0.942864C-0.126225 31.7603 -1 30.9005 -1 29.8384V-4.08821C-1 -5.1402 -0.126225 -6 0.942864 -6H17.3801C18.4595 -6 19.323 -5.1402 19.323 -4.08821V29.8384C19.323 30.9005 18.4595 31.7603 17.3801 31.7603Z" fill="#24D6FF"/>
<path opacity="0.67" d="M47.6616 24H36.3384C35.6019 24 35 23.7495 35 23.4401V13.5569C35 13.2505 35.6019 13 36.3384 13H47.6616C48.4052 13 49 13.2505 49 13.5569V23.4401C49 23.7495 48.4052 24 47.6616 24Z" fill="#24D6FF"/>
<path d="M30.4176 10.4086C30.7774 10.4086 31.055 10.4086 31.3325 10.4086C34.1081 10.4086 36.8733 10.3985 39.6488 10.4086C41.016 10.4086 41.7562 11.1471 41.7562 12.5025C41.7664 16.9128 41.7664 21.323 41.7562 25.7333C41.7562 27.0685 41.0057 27.817 39.6385 27.817C37.3564 27.8271 35.0846 27.8271 32.8025 27.817C32.3605 27.817 32.1138 27.9283 31.9288 28.3632C31.7232 28.8488 31.4765 29.3748 31.0961 29.7288C30.4485 30.3256 30.3868 31.0134 30.4074 31.8024C30.4382 33.5321 30.4279 35.272 30.4176 37.0017C30.4074 39.6215 28.5159 41.4726 25.8535 41.4827C21.3201 41.4929 16.7868 41.4929 12.2637 41.4827C9.66292 41.4726 7.74062 39.6013 7.74062 37.032C7.73034 26.7347 7.73034 16.4272 7.74062 6.12988C7.74062 3.61118 9.66292 1.71962 12.2226 1.70951C16.8073 1.68928 21.3921 1.68928 25.9768 1.70951C28.5365 1.71962 30.4074 3.62129 30.4279 6.15011C30.4279 7.51567 30.4176 8.89135 30.4176 10.4086ZM9.05642 7.97086C9.05642 16.6902 9.05642 25.3185 9.05642 33.9469C15.7793 33.9469 22.4406 33.9469 29.1327 33.9469C29.1327 33.1073 29.1327 32.3183 29.1327 31.499C28.5365 31.681 27.9916 31.9036 27.416 32.0047C27.0151 32.0755 26.4908 32.0958 26.2132 31.8834C26.0385 31.7519 26.1516 31.1449 26.2646 30.7808C26.5422 29.8401 26.8711 28.9095 26.7581 27.8271C25.7918 27.8271 24.8872 27.8271 23.9825 27.8271C22.2761 27.8271 21.5874 27.1393 21.5874 25.45C21.5874 21.2724 21.5874 17.0847 21.5874 12.9071C21.5874 11.0156 22.2042 10.4086 24.147 10.4086C25.7918 10.4086 27.4468 10.4086 29.1121 10.4086C29.1121 9.54884 29.1121 8.76997 29.1121 7.97086C22.3995 7.97086 15.7588 7.97086 9.05642 7.97086ZM27.7552 30.6189C29.3794 30.0323 30.469 29.0005 30.9316 27.4326C31.1475 26.7145 31.5176 26.5324 32.2166 26.5425C34.6529 26.5728 37.0789 26.5425 39.5152 26.5627C40.1834 26.5627 40.5123 26.3301 40.5123 25.622C40.502 21.2623 40.502 16.9026 40.5123 12.543C40.5123 11.8956 40.2245 11.6326 39.5666 11.6326C34.3137 11.6427 29.0607 11.6427 23.8078 11.6326C23.1499 11.6326 22.8621 11.8956 22.8621 12.543C22.8723 16.9026 22.8723 21.2623 22.8621 25.622C22.8621 26.3098 23.1705 26.583 23.8489 26.5627C24.7535 26.5425 25.6581 26.5526 26.5628 26.5627C27.7963 26.5627 28.0636 26.7751 28.0533 28.0294C28.0328 28.8589 27.8683 29.6883 27.7552 30.6189ZM9.04614 35.3124C9.04614 36.0913 8.9639 36.8398 9.0667 37.558C9.27229 39.1259 10.5367 40.2284 12.1609 40.2284C16.7868 40.2487 21.4229 40.2487 26.0488 40.2284C27.5907 40.2183 28.8654 39.1663 29.0916 37.6794C29.2046 36.9208 29.1121 36.1217 29.1121 35.3124C22.3995 35.3124 15.7485 35.3124 9.04614 35.3124ZM9.07698 6.61541C15.7896 6.61541 22.4509 6.61541 29.1121 6.61541C29.2972 4.52155 28.0225 2.97392 26.0282 2.95369C21.3921 2.91323 16.7559 2.91323 12.1198 2.95369C10.1152 2.98403 8.78915 4.63282 9.07698 6.61541Z" fill="black"/>
<path d="M18.4007 30.5278C18.3493 30.9628 18.596 31.6911 17.7736 31.7012C16.9615 31.7012 17.1774 30.983 17.1466 30.4773C17.1363 30.3761 17.1466 30.275 17.1466 30.1738C17.1363 29.7085 17.198 29.2533 17.8147 29.2837C18.3698 29.3039 18.4212 29.7389 18.411 30.1738C18.4007 30.2648 18.4007 30.366 18.4007 30.5278Z" fill="black"/>
<path d="M12.6852 30.5278C12.6338 30.9628 12.8805 31.6911 12.0581 31.7012C11.246 31.7012 11.4619 30.983 11.431 30.4773C11.4208 30.3761 11.431 30.275 11.431 30.1738C11.4208 29.7085 11.4824 29.2533 12.0992 29.2837C12.6543 29.3039 12.7057 29.7389 12.6954 30.1738C12.6852 30.2648 12.6852 30.366 12.6852 30.5278Z" fill="black"/>
<path d="M21.2584 30.5278C21.207 30.9628 21.4537 31.6911 20.6314 31.7012C19.8193 31.7012 20.0351 30.983 20.0043 30.4773C19.994 30.3761 20.0043 30.275 20.0043 30.1738C19.994 29.7085 20.0557 29.2533 20.6725 29.2837C21.2276 29.3039 21.279 29.7389 21.2687 30.1738C21.2584 30.2648 21.2584 30.366 21.2584 30.5278Z" fill="black"/>
<path d="M15.5429 30.5278C15.4915 30.9628 15.7382 31.6911 14.9159 31.7012C14.1038 31.7012 14.3196 30.983 14.2888 30.4773C14.2785 30.3761 14.2888 30.275 14.2888 30.1738C14.2785 29.7085 14.3402 29.2533 14.957 29.2837C15.5121 29.3039 15.5635 29.7389 15.5532 30.1738C15.5429 30.2648 15.5429 30.366 15.5429 30.5278Z" fill="black"/>
<path d="M24.1162 30.5278C24.0648 30.9628 24.3115 31.6911 23.4891 31.7012C22.677 31.7012 22.8929 30.983 22.8621 30.4773C22.8518 30.3761 22.8621 30.275 22.8621 30.1738C22.8518 29.7085 22.9135 29.2533 23.5302 29.2837C24.0853 29.3039 24.1367 29.7389 24.1265 30.1738C24.1162 30.2648 24.1162 30.366 24.1162 30.5278Z" fill="black"/>
<path d="M36.7602 21.4848C36.7808 22.2131 36.2874 22.7695 35.5781 22.82C35.1155 22.8504 34.6426 22.8403 34.18 22.8302C33.5427 22.8099 33.0184 22.7695 32.6483 23.5584C32.2474 24.398 30.9419 24.2261 30.5513 23.3157C30.3662 22.901 30.1504 22.8099 29.7495 22.8302C29.1532 22.8504 28.557 22.8504 27.9608 22.8302C26.9534 22.7897 26.4291 22.0412 26.7478 21.0903C26.7992 20.9487 26.8609 20.8071 26.9225 20.6655C27.6832 19.1684 28.0739 17.5803 28.2383 15.9113C28.4131 14.1816 29.842 12.9475 31.5895 12.8868C33.2857 12.8262 34.8585 13.9591 35.0846 15.6382C35.3416 17.55 35.8145 19.3808 36.6574 21.1106C36.7191 21.2421 36.7397 21.4039 36.7602 21.4848ZM29.2355 17.8737C30.2737 17.8737 31.1783 17.8737 32.0727 17.8737C32.4941 17.8737 32.8848 17.9445 32.9053 18.4502C32.9259 18.9965 32.5353 19.1178 32.0727 19.1178C31.1886 19.1178 30.3148 19.1077 29.4308 19.128C29.2355 19.1381 28.9271 19.2291 28.8654 19.3707C28.5262 20.0687 28.2486 20.7869 27.9505 21.5152C30.4999 21.5152 32.9362 21.5152 35.4444 21.5152C35.2902 21.1308 35.1977 20.8172 35.0435 20.5239C34.3959 19.2595 34.0669 17.904 33.9641 16.498C33.9436 16.2451 33.8922 15.9922 33.8305 15.7495C33.5838 14.829 32.782 14.2018 31.7951 14.1411C30.8288 14.0906 29.8934 14.6368 29.6261 15.5472C29.4205 16.2653 29.3691 17.024 29.2355 17.8737Z" fill="black"/>
<path d="M20.323 37.7603C20.3127 38.4583 19.7268 39.0248 19.0277 38.9944C18.3698 38.9641 17.8147 38.3875 17.8147 37.7401C17.8147 37.0422 18.411 36.4959 19.1202 36.5162C19.8193 36.5364 20.3333 37.0725 20.323 37.7603Z" fill="black"/>
</g>
<defs>
<clipPath id="clip0_1888_378">
<rect width="43" height="43" fill="white"/>
</clipPath>
</defs>
</svg>
