<svg width="53" height="49" viewBox="0 0 53 49" fill="none" xmlns="http://www.w3.org/2000/svg">
<path opacity="0.8" d="M27.0792 23.1074H3.70153C2.17934 23.1074 0.945358 24.3668 0.945358 25.9204V46.1846C0.945358 47.7382 2.17934 48.9976 3.70153 48.9976H27.0792C28.6014 48.9976 29.8354 47.7382 29.8354 46.1846V25.9204C29.8354 24.3668 28.6014 23.1074 27.0792 23.1074Z" fill="#AFFFAB"/>
<path d="M42.0143 32.3105H51.3986V8.25588H51.0891C50.1088 8.24775 49.1272 8.25588 48.147 8.22606C47.5732 8.2125 47.3792 7.98611 47.3792 7.41267V2.39677C47.265 2.50522 47.1933 2.56758 47.1282 2.634C45.3492 4.44154 43.5724 6.25314 41.7978 8.0688C41.7373 8.13444 41.6636 8.18589 41.5817 8.2196C41.4999 8.2533 41.4118 8.26846 41.3236 8.26402C35.3906 8.25859 29.4577 8.25859 23.5247 8.26402H23.1382V32.2997H37.9352V33.6743C37.8329 33.6743 37.7373 33.6879 37.6416 33.6879C33.2672 33.6879 28.8932 33.682 24.5196 33.6702C24.0427 33.6702 23.5646 33.6214 23.089 33.6337C22.4913 33.6499 21.8378 32.9558 21.8378 32.3336C21.8378 28.0145 21.786 23.6967 21.7847 19.3776C21.7847 15.6754 21.8312 11.9731 21.8431 8.26944C21.8426 7.94416 21.9602 7.63021 22.1731 7.38814C22.386 7.14607 22.6791 6.99303 22.9961 6.95853C24.5342 6.91786 26.0737 6.88668 27.6118 6.88397C31.9765 6.87493 36.3417 6.87493 40.7073 6.88397C40.8086 6.88862 40.9096 6.87051 41.0032 6.83092C41.0969 6.79133 41.1809 6.73123 41.2492 6.65486C43.2195 4.65121 45.1933 2.65163 47.1707 0.656112C47.3567 0.470387 47.5625 0.303643 47.7604 0.131476C47.8354 0.055915 47.9341 0.00984013 48.0391 0.0014048C48.1441 -0.00703054 48.2487 0.0227178 48.3343 0.0853841C48.5322 0.220949 48.7327 0.337533 48.7327 0.650688C48.7221 2.60689 48.7327 4.56445 48.7327 6.52201V6.8799H49.0542L51.3481 6.9043C51.5423 6.90215 51.7347 6.94254 51.9123 7.02275C52.0899 7.10297 52.2485 7.22114 52.3775 7.36929C52.5921 7.59308 52.7118 7.89399 52.7109 8.20708C52.7216 10.2406 52.7614 12.2862 52.7601 14.3251C52.7601 20.0776 52.7477 25.8296 52.7229 31.5812C52.7045 31.8193 52.7014 32.0584 52.7136 32.297C52.7973 32.964 52.0415 33.6418 51.4198 33.6418C48.3329 33.6418 45.246 33.6689 42.1591 33.6879C42.1166 33.6879 42.0728 33.6784 42.0117 33.6716L42.0143 32.3105Z" fill="black"/>
<path d="M13.7034 37.1205C13.0393 37.1205 12.4309 37.1205 11.8199 37.1205C11.5321 37.123 11.2444 37.1099 10.9579 37.0812C10.2061 36.993 9.8169 36.608 9.76244 35.8448C9.70798 35.0816 9.67477 34.3197 9.67477 33.5578C9.67477 26.8519 9.67876 20.1446 9.68673 13.4359C9.68673 12.8394 9.70532 12.2429 9.71994 11.6451C9.7269 11.317 9.85528 11.0038 10.0793 10.7685C10.3033 10.5331 10.6062 10.3929 10.9273 10.3762C11.529 10.3464 12.1334 10.3288 12.7351 10.3274C15.2146 10.3184 17.69 10.3134 20.1615 10.3125C20.2399 10.3125 20.3183 10.322 20.4152 10.3288V11.6844H11.0296V35.7445H11.3418C12.3406 35.7526 13.3342 35.7526 14.3384 35.7757C14.8351 35.7879 15.049 36.0373 15.049 36.5321V41.6077C15.1645 41.4992 15.2349 41.4382 15.3014 41.3704C17.0786 39.5629 18.8549 37.7513 20.6304 35.9356C20.6909 35.87 20.7646 35.8186 20.8465 35.7848C20.9283 35.7511 21.0164 35.736 21.1046 35.7404C27.0376 35.7404 32.9705 35.7404 38.9035 35.7404H39.2927V11.6926H24.4944V10.3274C24.594 10.3274 24.6883 10.3125 24.7839 10.3125C29.1672 10.3179 33.5505 10.3238 37.9339 10.3301C38.4014 10.3301 38.8703 10.3803 39.3365 10.3654C39.9356 10.3477 40.5904 11.0432 40.5904 11.6641C40.5904 16.0184 40.6422 20.3741 40.6435 24.7285C40.6435 28.3887 40.597 32.0598 40.5851 35.7269C40.5929 35.9427 40.5456 36.1569 40.4478 36.3485C40.35 36.5401 40.205 36.7024 40.0272 36.8195C39.854 36.9468 39.6502 37.0237 39.4375 37.0418C37.89 37.0825 36.3426 37.1137 34.7951 37.1164C30.4384 37.1273 26.0821 37.1273 21.7262 37.1164C21.625 37.1115 21.5239 37.1292 21.4301 37.1683C21.3362 37.2074 21.2519 37.267 21.183 37.3428C19.2083 39.3546 17.2278 41.3605 15.2416 43.3605C15.0636 43.5408 14.8643 43.6994 14.6717 43.8662C14.5972 43.9421 14.4989 43.9888 14.394 43.9983C14.2891 44.0077 14.1843 43.9792 14.0979 43.9177C13.9013 43.7821 13.6995 43.6669 13.6995 43.3551C13.7087 41.3975 13.6995 39.44 13.6995 37.4838L13.7034 37.1205Z" fill="black"/>
<path d="M35.264 19.9348H36.5923V29.5382H25.8466V19.9443H27.1748C27.1748 19.7924 27.1748 19.684 27.1748 19.5742C27.1894 18.5195 27.1921 17.4621 27.2253 16.4074C27.2559 15.4313 28.1405 14.5095 29.0849 14.5013C30.4876 14.4824 31.8907 14.4855 33.2942 14.5108C34.3369 14.5312 35.106 15.2605 35.175 16.326C35.2454 17.4106 35.2388 18.51 35.2654 19.6026C35.2654 19.703 35.264 19.8019 35.264 19.9348ZM35.2441 28.1731V21.3297H27.1894V28.1717L35.2441 28.1731ZM33.9039 19.9199C33.9039 18.8855 33.9039 17.8864 33.9039 16.8846C33.9036 16.7033 33.893 16.5223 33.872 16.3423C33.8322 16.0048 33.7259 15.899 33.3912 15.8597C33.2213 15.8412 33.0506 15.8321 32.8798 15.8326C31.764 15.8326 30.6487 15.8326 29.5339 15.8326C29.3447 15.8351 29.1558 15.8477 28.968 15.8705C28.8637 15.8749 28.7648 15.9191 28.691 15.9945C28.6171 16.0698 28.5738 16.1708 28.5695 16.2772C28.5492 16.4319 28.5368 16.5876 28.5323 16.7436C28.5323 17.7264 28.5323 18.7093 28.5257 19.6908C28.5257 19.7626 28.535 19.8345 28.5403 19.9253L33.9039 19.9199Z" fill="black"/>
<path d="M15.0291 15.8028H13.7274V14.458H15.0291V15.8028Z" fill="black"/>
<path d="M16.3919 14.4566H17.7281V15.8123C17.3217 15.8123 16.9312 15.8123 16.5393 15.8055C16.5059 15.7956 16.4754 15.7773 16.4508 15.7522C16.4262 15.727 16.4082 15.6959 16.3985 15.6618C16.3866 15.2714 16.3919 14.8782 16.3919 14.4566Z" fill="black"/>
<path d="M19.1055 15.796V14.4553H20.4179V15.796H19.1055Z" fill="black"/>
<path d="M43.3267 28.2097V29.5423H42.017V28.2097H43.3267Z" fill="black"/>
<path d="M44.7028 28.1853C45.1012 28.1853 45.4825 28.1771 45.8584 28.1934C45.8982 28.2038 45.9347 28.2245 45.9645 28.2535C45.9943 28.2824 46.0163 28.3187 46.0284 28.3588C46.0456 28.7072 46.043 29.0556 46.0284 29.4026C46.0208 29.4371 46.0046 29.469 45.9813 29.4952C45.958 29.5213 45.9285 29.5408 45.8956 29.5518C45.4971 29.564 45.1092 29.5585 44.7001 29.5585L44.7028 28.1853Z" fill="black"/>
<path d="M30.562 22.7003H31.869V24.041H30.562V22.7003Z" fill="black"/>
</svg>
