<svg width="25" height="25" viewBox="0 0 25 25" fill="none" xmlns="http://www.w3.org/2000/svg">
<path fill-rule="evenodd" clip-rule="evenodd" d="M12.5 0C5.59644 0 0 5.59644 0 12.5C0 19.4036 5.59644 25 12.5 25H18.75C20.6914 25 21.6621 25 22.4278 24.6828C23.4488 24.2599 24.2599 23.4488 24.6828 22.4278C25 21.6621 25 20.6914 25 18.75V12.5C25 5.59644 19.4036 0 12.5 0ZM6.94444 11.1111C6.94444 10.344 7.56627 9.72222 8.33333 9.72222H16.6667C17.4337 9.72222 18.0556 10.344 18.0556 11.1111C18.0556 11.8782 17.4337 12.5 16.6667 12.5H8.33333C7.56627 12.5 6.94444 11.8782 6.94444 11.1111ZM11.1111 16.6667C11.1111 15.8996 11.7329 15.2778 12.5 15.2778H16.6667C17.4337 15.2778 18.0556 15.8996 18.0556 16.6667C18.0556 17.4337 17.4337 18.0556 16.6667 18.0556H12.5C11.7329 18.0556 11.1111 17.4337 11.1111 16.6667Z" fill="#636363"/>
</svg>
