<svg width="245" height="205" viewBox="0 0 245 205" fill="none" xmlns="http://www.w3.org/2000/svg">
<path d="M133.152 205C188.136 205 232.709 160.268 232.709 105.088C232.709 49.9082 188.136 5.17613 133.152 5.17613C78.1685 5.17613 33.5953 49.9082 33.5953 105.088C33.5953 160.268 78.1685 205 133.152 205Z" fill="url(#paint0_linear_1959_555)"/>
<path d="M124.612 3.63345L45.8863 67.2116V170.051C45.8863 179.134 53.2235 186.498 62.2743 186.498H206.972C216.023 186.498 223.36 179.134 223.36 170.051V67.2116L145.203 3.66734C139.204 -1.20971 130.627 -1.22382 124.612 3.63345Z" fill="#06335B"/>
<path d="M71.4949 42.9571C71.4949 32.0574 80.2995 23.2214 91.1605 23.2214H178.682C189.543 23.2214 198.347 32.0574 198.347 42.9571V161.96C198.347 172.86 189.543 181.696 178.682 181.696H91.1605C80.2995 181.696 71.4949 172.86 71.4949 161.96V42.9571Z" fill="url(#paint1_linear_1959_555)"/>
<path d="M82.4095 47.1145C82.4095 45.2979 83.877 43.8252 85.6871 43.8252H181.112C182.922 43.8252 184.39 45.2979 184.39 47.1145C184.39 48.9311 182.922 50.4038 181.112 50.4038H85.6871C83.877 50.4038 82.4095 48.9311 82.4095 47.1145Z" fill="#57CC99"/>
<path d="M82.4095 68.4948C82.4095 66.6782 83.877 65.2055 85.6871 65.2055H181.112C182.922 65.2055 184.39 66.6782 184.39 68.4948C184.39 70.3114 182.922 71.7841 181.112 71.7841H85.6871C83.877 71.7841 82.4095 70.3114 82.4095 68.4948Z" fill="#D5D5D5"/>
<path d="M82.4095 89.8751C82.4095 88.0585 83.877 86.5859 85.6871 86.5859H181.112C182.922 86.5859 184.39 88.0585 184.39 89.8751C184.39 91.6918 182.922 93.1644 181.112 93.1644H85.6871C83.877 93.1644 82.4095 91.6918 82.4095 89.8751Z" fill="#D5D5D5"/>
<path d="M82.4095 111.255C82.4095 109.439 83.877 107.966 85.6871 107.966H181.112C182.922 107.966 184.39 109.439 184.39 111.255C184.39 113.072 182.922 114.545 181.112 114.545H85.6871C83.877 114.545 82.4095 113.072 82.4095 111.255Z" fill="#D5D5D5"/>
<path fill-rule="evenodd" clip-rule="evenodd" d="M45.8863 67.0419V170.051C45.8863 179.134 53.2235 186.498 62.2743 186.498H161.475C177.42 186.498 183.974 165.962 170.996 156.665L45.8863 67.0419Z" fill="url(#paint2_linear_1959_555)"/>
<path fill-rule="evenodd" clip-rule="evenodd" d="M223.36 67.0419L223.36 170.051C223.36 179.134 216.023 186.498 206.972 186.498L61.1978 186.498L223.36 67.0419Z" fill="#E1DCEB"/>
<path fill-rule="evenodd" clip-rule="evenodd" d="M223.696 68.5903L67.3166 186.498H60.7899L221.773 65.9327L223.696 68.5903Z" fill="#011625"/>
<path fill-rule="evenodd" clip-rule="evenodd" d="M19.5685 150.919C18.2929 146.505 15.7808 143.052 11.9305 140.559C11.4766 140.264 11.3436 139.653 11.6371 139.194C11.9266 138.736 12.5332 138.602 12.9871 138.896C17.2482 141.657 20.0342 145.479 21.4467 150.366C21.5993 150.889 21.298 151.438 20.7815 151.59C20.2611 151.743 19.7172 151.442 19.5685 150.919Z" fill="#011625"/>
<path fill-rule="evenodd" clip-rule="evenodd" d="M63.5301 144.929C64.2892 145.83 64.97 146.802 65.5492 147.837C65.8074 148.297 66.2613 149.276 66.3317 150.115C66.41 151.01 66.1087 151.764 65.334 152.161C64.3049 152.688 63.4831 152.633 62.8492 152.315C62.2388 152.009 61.7615 151.407 61.4602 150.6C60.885 149.059 60.9711 146.703 61.2724 145.358C60.4624 144.514 59.5742 143.749 58.6233 143.069C51.541 138.003 41.1522 139.871 33.1582 147.446C30.3605 150.098 29.0144 155.667 28.314 161.676C27.2223 171.032 27.8445 181.482 27.9306 184.543C27.9501 185.299 27.8797 185.748 27.8406 185.838C27.6567 186.278 27.3319 186.393 27.105 186.436C26.7763 186.496 26.5141 186.433 26.3028 186.322C26.0172 186.17 25.7824 185.903 25.6728 185.491C25.6141 185.264 25.5985 184.947 25.6063 184.609C25.6142 184.375 25.6611 184.119 25.6142 183.951C25.309 182.876 24.9411 181.826 24.5812 180.769C23.3799 177.214 21.8265 173.883 20.1009 170.556C14.6189 159.985 9.31696 148.815 0.32904 140.761C-0.0739886 140.399 -0.11315 139.775 0.246836 139.367C0.60291 138.959 1.22116 138.922 1.6281 139.284C10.796 147.497 16.2428 158.86 21.8343 169.64C23.3016 172.47 24.6477 175.305 25.7668 178.269C25.6533 173.025 25.6963 165.766 26.6472 159.344C27.4924 153.632 29.1006 148.584 31.82 146.006C40.5771 137.708 51.9988 135.908 59.7542 141.458C60.5837 142.052 61.3741 142.705 62.1097 143.414C66.1674 136.018 74.854 133.053 82.5311 136.591C83.0242 136.817 83.2394 137.403 83.0163 137.899C82.7894 138.395 82.2103 138.614 81.7173 138.387C74.7993 135.2 66.9539 138.044 63.5301 144.929ZM62.9627 147.405C63.2797 147.857 63.5731 148.325 63.8471 148.81C63.9918 149.069 64.2423 149.569 64.3479 150.058C64.3714 150.173 64.3753 150.352 64.3753 150.435C64.1053 150.569 63.894 150.634 63.7219 150.547C63.5067 150.439 63.3971 150.186 63.2914 149.904C63.0253 149.195 62.9393 148.256 62.9627 147.405Z" fill="#011625"/>
<path fill-rule="evenodd" clip-rule="evenodd" d="M215.891 28.9771C216.884 24.9391 216.819 21.0506 216.938 16.9548C216.961 16.155 216.333 15.49 215.536 15.4659C214.738 15.4418 214.073 16.073 214.049 16.8729C213.937 20.7566 214.028 24.4524 213.086 28.288C212.895 29.0638 213.369 29.8492 214.144 30.0371C214.918 30.2299 215.701 29.7529 215.891 28.9771Z" fill="#011625"/>
<path fill-rule="evenodd" clip-rule="evenodd" d="M224.323 36.8024C231.057 30.6443 237.401 22.7226 241.835 14.7239C242.222 14.0252 241.97 13.1433 241.272 12.7579C240.575 12.3724 239.695 12.623 239.308 13.3216C235.02 21.0554 228.885 28.7169 222.374 34.6678C221.786 35.2075 221.745 36.123 222.283 36.7108C222.82 37.2987 223.735 37.342 224.323 36.8024Z" fill="#011625"/>
<path fill-rule="evenodd" clip-rule="evenodd" d="M226.029 43.529C232.187 44.5457 238.535 42.8111 244.134 40.3584C244.865 40.0356 245.198 39.1827 244.879 38.4551C244.559 37.7227 243.706 37.3902 242.976 37.7083C237.876 39.9441 232.108 41.6016 226.5 40.6765C225.713 40.5464 224.969 41.0812 224.839 41.8667C224.709 42.6521 225.243 43.3989 226.029 43.529Z" fill="#011625"/>
<path fill-rule="evenodd" clip-rule="evenodd" d="M48.16 14.7275C49.0374 14.4138 49.9607 13.9968 50.6727 13.3931C51.5183 12.676 51.8622 11.7525 52.0932 10.7804C52.3897 9.53148 52.5081 8.20108 52.8677 6.95014C53.0008 6.48559 53.257 6.30999 53.3669 6.23206C53.6447 6.03521 53.9256 5.98259 54.1898 6.00233C54.5029 6.0251 54.9331 6.14401 55.216 6.6708C55.2563 6.7462 55.3087 6.86108 55.344 7.01846C55.3697 7.13384 55.3864 7.49464 55.4136 7.64342C55.4817 8.00979 55.5387 8.37618 55.5921 8.74458C55.7701 9.97072 55.8725 11.0121 56.4347 12.1386C57.1976 13.6679 57.9621 14.6035 58.9988 15.018C60.0012 15.4188 61.1998 15.3434 62.7312 15.0291C62.8769 14.9937 63.0211 14.9633 63.1638 14.9385C63.839 14.8201 64.4845 15.2649 64.6171 15.94C64.7497 16.6146 64.3206 17.2719 63.6515 17.4202C63.5118 17.451 63.3741 17.4804 63.238 17.5072C61.1686 18.0214 58.7729 19.8563 57.3807 21.463C56.9515 21.9584 56.3233 23.3434 55.6824 24.227C55.2094 24.8787 54.6779 25.3084 54.2317 25.4602C53.9326 25.5624 53.6805 25.5467 53.4723 25.4951C53.1697 25.4202 52.9186 25.2557 52.726 24.9941C52.6211 24.8509 52.5238 24.6591 52.4774 24.4142C52.4552 24.2963 52.4527 23.9967 52.4532 23.8611C52.3226 23.4102 52.1627 22.97 52.0463 22.515C51.7684 21.4296 51.2233 20.7424 50.5759 19.8345C49.9703 18.9849 49.3198 18.451 48.3663 18.0249C48.2423 17.9945 47.2413 17.7486 46.8878 17.6074C46.3715 17.4004 46.1254 17.0538 46.0362 16.8671C45.8844 16.5503 45.8688 16.2735 45.899 16.0427C45.9439 15.7022 46.0962 15.4107 46.3665 15.1754C46.5339 15.0291 46.784 14.8869 47.1188 14.8176C47.3775 14.7634 48.0637 14.7321 48.16 14.7275ZM54.032 12.9584C54.0784 13.0621 54.1278 13.1664 54.1802 13.2716C55.2976 15.5114 56.5471 16.7618 58.0659 17.3686L58.1169 17.3883C57.1008 18.1453 56.1811 18.9914 55.4781 19.8026C55.1887 20.1366 54.8055 20.8304 54.3915 21.5419C54.0153 20.3148 53.4002 19.4474 52.6266 18.3619C52.0357 17.5335 51.4165 16.9101 50.6556 16.402C51.246 16.0979 51.8093 15.7416 52.2999 15.3257C53.1168 14.6329 53.6568 13.8303 54.032 12.9584Z" fill="#417BA4"/>
<defs>
<linearGradient id="paint0_linear_1959_555" x1="121.556" y1="-33.3765" x2="123.313" y2="326.592" gradientUnits="userSpaceOnUse">
<stop stop-color="#F2F2F2"/>
<stop offset="1" stop-color="#EFEFEF"/>
</linearGradient>
<linearGradient id="paint1_linear_1959_555" x1="122.5" y1="0" x2="122.5" y2="205" gradientUnits="userSpaceOnUse">
<stop stop-color="white"/>
<stop offset="0.71875" stop-color="#EAEAEA"/>
</linearGradient>
<linearGradient id="paint2_linear_1959_555" x1="3.18479e-06" y1="-0.329029" x2="211.425" y2="201.825" gradientUnits="userSpaceOnUse">
<stop stop-color="#E1DCEB"/>
<stop offset="1" stop-color="#B3AFBA"/>
</linearGradient>
</defs>
</svg>
