<svg width="19" height="28" viewBox="0 0 24 33" fill="none" xmlns="http://www.w3.org/2000/svg">
<path d="M3.24149 7.39833C3.35032 7.23638 3.48991 7.09736 3.65226 6.98914L1.99932 4.51479C1.5124 4.84036 1.09427 5.2585 0.768704 5.74543L3.24149 7.39833ZM6.71111 3.76179C5.69661 3.76179 4.82447 3.7618 4.11608 3.83179C3.36418 3.87845 2.63602 4.11331 1.99857 4.51479L3.65151 6.98914C3.88646 6.86217 4.14891 6.79482 4.41597 6.79301C4.93976 6.73917 5.63509 6.73764 6.71036 6.73764L6.71111 3.76179ZM2.99081 10.4572C2.99081 9.38043 2.99073 8.6882 3.04611 8.16287C3.04886 7.89612 3.11563 7.63393 3.24074 7.39833L0.766356 5.74543C0.365922 6.38326 0.131647 7.11124 0.0849004 7.8629C0.0133695 8.57129 0.0149522 9.44426 0.0149522 10.458L2.99081 10.4572ZM23.0656 5.74466C22.7406 5.25725 22.3224 4.83899 21.835 4.51402L20.182 6.98838C20.3439 7.09664 20.4829 7.23567 20.5912 7.39757L23.0656 5.74466ZM17.1231 6.73686C18.1999 6.73686 18.8921 6.73687 19.4175 6.79224C19.6845 6.79415 19.947 6.8615 20.182 6.98838L21.835 4.51402C21.1974 4.11271 20.4693 3.87787 19.7175 3.83101C19.0091 3.75948 18.1361 3.76102 17.1223 3.76102L17.1231 6.73686ZM23.8193 10.4565C23.8193 9.4435 23.8194 8.56975 23.7494 7.86136C23.702 7.10961 23.4671 6.38167 23.0663 5.74389L20.592 7.39679C20.7188 7.6318 20.7861 7.89429 20.7881 8.16133C20.8412 8.68512 20.8427 9.37966 20.8427 10.4557L23.8193 10.4565ZM16.3794 32.0319C17.5345 32.0616 18.6904 32.0207 19.8405 31.9096C20.8387 31.8283 21.7796 31.4101 22.5087 30.7236L20.4051 28.6199C20.292 28.733 20.0898 28.873 19.4437 28.9607C18.4242 29.0523 17.4002 29.0841 16.377 29.056L16.3794 32.0319ZM20.8404 24.5919C20.8685 25.6151 20.8367 26.639 20.7451 27.6585C20.6574 28.3046 20.5143 28.5046 20.4044 28.6199L22.508 30.7236C23.1944 29.9944 23.6127 29.0535 23.694 28.0554C23.8051 26.9052 23.8459 25.7493 23.8162 24.5942L20.8404 24.5919ZM0.00950653 24.5919C-0.0203908 25.747 0.0202554 26.9029 0.131094 28.0531C0.212432 29.0512 0.630646 29.9921 1.31712 30.7212L3.42073 28.6176C3.30766 28.5046 3.16768 28.3023 3.08 27.6562C2.98831 26.6367 2.95645 25.6128 2.98461 24.5896L0.00950653 24.5919ZM7.44956 29.053C6.42638 29.081 5.40238 29.0492 4.38292 28.9576C3.7376 28.8699 3.53683 28.7268 3.42223 28.6169L1.31862 30.7205C2.04768 31.4071 2.98859 31.8253 3.98679 31.9065C5.13695 32.0177 6.29283 32.0585 7.44797 32.0288L7.44956 29.053ZM2.98846 24.5919V10.4572H0.0157033V24.5927L2.98846 24.5919ZM16.3801 29.053H7.45257V32.0288H16.3801V29.053ZM20.8412 10.4534V24.5888H23.8178V10.4572L20.8412 10.4534ZM2.82077 5.74696L3.64682 6.98529L2.82077 5.74696ZM1.99932 6.56842L3.23614 7.39449L1.99932 6.56842ZM21.0066 5.74696L20.1813 6.98529L21.0066 5.74696ZM21.828 6.56842L20.5905 7.39449L21.828 6.56842ZM21.4581 29.6691L20.4059 28.6169L21.4581 29.6691ZM2.37085 29.6691L3.42223 28.6169L2.37085 29.6691Z" fill="#121212"/>
<path d="M10.4284 0.78595C9.24527 0.78595 8.11051 1.25595 7.27389 2.09256C6.43728 2.92917 5.96732 4.06387 5.96732 5.24702H8.94317C8.94317 4.85243 9.09988 4.47398 9.37882 4.1949C9.65777 3.91581 10.0361 3.75892 10.4307 3.75872L10.4284 0.78595ZM13.4042 3.76179C13.7989 3.76179 14.1775 3.91859 14.4566 4.1977C14.7357 4.47681 14.8925 4.85537 14.8925 5.25009H17.8684C17.8684 4.06695 17.3983 2.93225 16.5617 2.09564C15.7251 1.25903 14.5904 0.789025 13.4073 0.789025L13.4042 3.76179ZM14.8925 5.25009C14.8925 5.64482 14.7357 6.02338 14.4566 6.30249C14.1775 6.5816 13.7989 6.7384 13.4042 6.7384V9.71424C14.5873 9.71424 15.7221 9.24424 16.5587 8.40762C17.3953 7.57101 17.8653 6.43632 17.8653 5.25317L14.8925 5.25009ZM10.4314 6.7384C10.0368 6.73819 9.65852 6.58131 9.37957 6.30222C9.10063 6.02313 8.94392 5.64468 8.94392 5.25009H5.96732C5.96732 6.43324 6.43728 7.56793 7.27389 8.40454C8.11051 9.24115 9.24527 9.71116 10.4284 9.71116L10.4314 6.7384ZM13.4073 6.7384H10.4284V9.71424H13.4042L13.4073 6.7384ZM10.4314 3.76255H13.4073V0.78595H10.4284L10.4314 3.76255Z" fill="#121212"/>
<path d="M7.45482 17.1534H16.3824V14.1776H7.45482V17.1534ZM16.3824 17.1534C16.5806 17.1579 16.7778 17.1228 16.9622 17.05C17.1467 16.9773 17.3148 16.8684 17.4566 16.7298C17.5984 16.5912 17.711 16.4256 17.7879 16.2429C17.8648 16.0601 17.9045 15.8638 17.9045 15.6655C17.9045 15.4672 17.8648 15.2709 17.7879 15.0882C17.711 14.9054 17.5984 14.7398 17.4566 14.6012C17.3148 14.4626 17.1467 14.3537 16.9622 14.281C16.7778 14.2082 16.5806 14.1731 16.3824 14.1776V17.1534ZM7.45482 14.1776C7.06606 14.1864 6.6962 14.3471 6.42437 14.6252C6.15255 14.9032 6.00037 15.2767 6.00037 15.6655C6.00037 16.0544 6.15255 16.4278 6.42437 16.7059C6.6962 16.984 7.06606 17.1446 7.45482 17.1534V14.1776Z" fill="#121212"/>
<path d="M7.45482 23.1051H13.4065V20.1293H7.45482V23.1051ZM13.4065 23.1051C13.6048 23.1096 13.8019 23.0745 13.9864 23.0017C14.1709 22.929 14.3389 22.8201 14.4807 22.6815C14.6225 22.5429 14.7352 22.3773 14.8122 22.1945C14.8891 22.0118 14.9287 21.8155 14.9287 21.6172C14.9287 21.4189 14.8891 21.2226 14.8122 21.0398C14.7352 20.8571 14.6225 20.6915 14.4807 20.5529C14.3389 20.4143 14.1709 20.3054 13.9864 20.2327C13.8019 20.1599 13.6048 20.1248 13.4065 20.1293V23.1051ZM7.45482 20.1293C7.06606 20.1381 6.6962 20.2987 6.42437 20.5768C6.15255 20.8549 6.00037 21.2283 6.00037 21.6172C6.00037 22.006 6.15255 22.3795 6.42437 22.6575C6.6962 22.9356 7.06606 23.0963 7.45482 23.1051V20.1293Z" fill="#121212"/>
</svg>
