<svg width="54" height="55" viewBox="0 0 54 55" fill="none" xmlns="http://www.w3.org/2000/svg">
<path d="M51.8549 21.9976C48.0412 13.4721 40.9218 6.69403 31.9936 3.08851C31.6341 2.96005 31.2362 2.97181 30.8855 3.12123C30.5349 3.27065 30.2596 3.5458 30.1188 3.88749C30.0421 4.05848 30.0017 4.24237 30.0001 4.42845C29.9984 4.61452 30.0354 4.79903 30.109 4.97126C30.1827 5.14349 30.2914 5.29996 30.4289 5.43156C30.5663 5.56316 30.7298 5.66723 30.9098 5.73773C39.1397 9.06515 45.702 15.3151 49.2185 23.175C49.3757 23.5083 49.6628 23.7696 50.0186 23.9032C50.3743 24.0367 50.7705 24.032 51.1226 23.8899C51.3029 23.8143 51.4654 23.7048 51.6005 23.5678C51.7356 23.4308 51.8405 23.2692 51.9088 23.0926C51.9772 22.916 52.0076 22.728 51.9984 22.5398C51.9891 22.3517 51.9403 22.1673 51.8549 21.9976Z" fill="#06335B"/>
<path d="M29.8981 13.6319C35.0075 15.6428 39.0837 19.4263 41.2696 24.187C41.3857 24.4218 41.5691 24.6221 41.7994 24.7656C42.0298 24.9091 42.2981 24.9902 42.5748 25C42.7774 24.9986 42.9771 24.9555 43.1598 24.8738C43.5048 24.7159 43.7718 24.4403 43.9058 24.1039C44.0398 23.7675 44.0305 23.3958 43.8799 23.0656C41.4022 17.6606 36.7772 13.3643 30.9782 11.0808C30.6211 10.9623 30.2293 10.9745 29.8814 11.1149C29.5335 11.2554 29.2554 11.5136 29.103 11.8377C28.9619 12.1748 28.9659 12.5499 29.1141 12.8843C29.2623 13.2187 29.5432 13.4866 29.8981 13.6319Z" fill="#06335B"/>
<path d="M45.1306 34.4306C44.7424 33.977 44.2606 33.6128 43.7182 33.3631C43.1759 33.1135 42.5859 32.9842 41.9889 32.9842C41.3918 32.9842 40.8018 33.1135 40.2595 33.3631C39.7172 33.6128 39.2353 33.977 38.8471 34.4306C37.3792 35.8806 35.9113 37.3486 34.4612 38.8344C34.3967 38.93 34.3136 39.0117 34.2169 39.0745C34.1201 39.1374 34.0117 39.1801 33.8981 39.2001C33.7845 39.2202 33.6681 39.2172 33.5557 39.1912C33.4433 39.1653 33.3373 39.117 33.2439 39.0492C32.2951 38.5301 31.2747 38.1183 30.3617 37.5455C26.1721 34.8302 22.4586 31.4432 19.3701 27.5205C17.7576 25.6195 16.4253 23.4975 15.4138 21.2191C15.3038 21.0302 15.2668 20.8076 15.3096 20.5932C15.3525 20.3789 15.4723 20.1876 15.6465 20.0555C17.1145 18.6234 18.5466 17.1733 19.9966 15.7054C20.4699 15.3123 20.8507 14.8198 21.1121 14.2629C21.3735 13.706 21.509 13.0983 21.509 12.4831C21.509 11.8679 21.3735 11.2603 21.1121 10.7033C20.8507 10.1464 20.4699 9.65389 19.9966 9.26079C18.8509 8.09718 17.7052 6.96939 16.5416 5.80578L12.9613 2.22544C12.5587 1.7941 12.0745 1.44697 11.5367 1.20421C10.9989 0.96144 10.4183 0.827845 9.82849 0.811188C9.2349 0.830753 8.651 0.967351 8.11032 1.21311C7.56964 1.45887 7.08282 1.80897 6.67777 2.24333C5.19193 3.69337 3.77769 5.1971 2.25605 6.62924C0.916392 7.89272 0.115019 9.62377 0.0183648 11.4627C-0.10916 14.4786 0.428688 17.4856 1.59372 20.2703C3.82656 26.0592 7.04239 31.419 11.0995 36.1133C16.4351 42.5256 23.0826 47.7203 30.5945 51.3477C33.927 53.1084 37.5799 54.1799 41.3355 54.4984H42.0336C43.1801 54.5469 44.3231 54.3391 45.3791 53.89C46.4351 53.441 47.3777 52.762 48.1381 51.9026C49.3912 50.4884 50.8055 49.1995 52.1481 47.8568C52.6124 47.4619 52.9853 46.9708 53.241 46.4175C53.4968 45.8642 53.6292 45.262 53.6292 44.6524C53.6292 44.0429 53.4968 43.4407 53.241 42.8874C52.9853 42.3341 52.6124 41.843 52.1481 41.4481C49.8328 39.1089 47.4937 36.7697 45.1306 34.4306ZM49.6418 45.3685L48.2992 46.6932C47.3683 47.5883 46.4196 48.4834 45.4887 49.5396C45.0695 50.0269 44.5416 50.4088 43.9477 50.6544C43.3537 50.9001 42.7104 51.0027 42.0695 50.9538H41.5682C38.2752 50.6696 35.0729 49.7259 32.1519 48.1791C25.1047 44.7518 18.8633 39.871 13.8384 33.8577C10.0187 29.486 6.98983 24.4823 4.8876 19.0709C3.90596 16.7775 3.44148 14.296 3.52711 11.8028C3.56809 10.8449 3.97872 9.94019 4.67279 9.27871C5.60368 8.38362 6.46296 7.48852 7.41175 6.57554L9.20191 4.78537C9.26055 4.6643 9.35213 4.56221 9.46611 4.49076C9.58009 4.41932 9.71189 4.38145 9.8464 4.38145C9.98092 4.38145 10.1127 4.41932 10.2267 4.49076C10.3407 4.56221 10.4322 4.6643 10.4908 4.78537C11.2785 5.55514 12.0483 6.34281 12.8181 7.13048L13.9996 8.312L15.7898 10.1022L17.4904 11.8028C18.1528 12.4652 18.117 12.5905 17.4904 13.1992L16.8818 13.8078C15.6644 15.061 14.4292 16.2783 13.1403 17.5314C12.4672 18.1708 12.0105 19.0043 11.834 19.9158C11.6575 20.8272 11.77 21.771 12.1557 22.6155C13.2856 25.2104 14.7938 27.6235 16.6312 29.7761C19.9768 33.9848 23.9928 37.6138 28.5179 40.5172C29.216 40.9468 29.9321 41.3048 30.5587 41.6092L31.5253 42.0925C32.209 42.4962 32.9871 42.7123 33.781 42.7191C34.3991 42.7159 35.0098 42.5838 35.574 42.331C36.1381 42.0782 36.6432 41.7104 37.0569 41.2511C38.4712 39.8011 39.9034 38.3868 41.4071 36.901C41.5602 36.7016 41.7737 36.5572 42.0158 36.4893C42.266 36.5497 42.4875 36.6952 42.6423 36.901C45.0292 39.2879 47.4161 41.633 49.803 43.9364C50.2147 44.563 50.2684 44.724 49.6418 45.3685Z" fill="#06335B"/>
</svg>
