<svg width="18" height="18" viewBox="0 0 18 18" fill="none" xmlns="http://www.w3.org/2000/svg">
<path d="M10.6358 3.15949C11.2888 2.72412 11.6153 2.50643 11.9711 2.54166C12.3269 2.57689 12.6044 2.85439 13.1594 3.40938L14.5906 4.84062C15.1456 5.39561 15.4231 5.67311 15.4583 6.02888C15.4936 6.38465 15.2759 6.71118 14.8405 7.36424L13.8314 8.87791C13.6287 9.18192 13.5274 9.33392 13.4338 9.48903C13.0198 10.1755 12.7113 10.9203 12.5187 11.6984C12.4752 11.8742 12.4393 12.0534 12.3677 12.4116L12.2244 13.1279C12.1184 13.6582 11.5038 13.9065 11.0591 13.5986C8.4577 11.7976 6.20236 9.5423 4.40138 6.94088C4.09351 6.49619 4.34177 5.88164 4.87214 5.77557L5.58836 5.63233C5.94662 5.56068 6.12576 5.52485 6.30159 5.48132C7.07974 5.28869 7.82452 4.98019 8.51097 4.56617C8.66608 4.47261 8.81808 4.37128 9.12208 4.16861L10.6358 3.15949Z" fill="#070F1C" stroke="#070F1C" stroke-width="2"/>
<path d="M3.75 14.25L7.125 10.875" stroke="#070F1C" stroke-width="2" stroke-linecap="round"/>
</svg>
