<svg width="10" height="9" viewBox="0 0 10 9" fill="none" xmlns="http://www.w3.org/2000/svg">
<path d="M3.924 1.5848C4.37997 0.528266 4.60795 0 5 0C5.39205 0 5.62003 0.528266 6.076 1.5848L6.09724 1.634C6.35484 2.23089 6.48364 2.52933 6.74614 2.71073C7.00865 2.89213 7.35324 2.92081 8.04242 2.97818L8.16701 2.98855C9.29494 3.08244 9.85891 3.12938 9.97958 3.46287C10.1003 3.79636 9.68143 4.15052 8.84378 4.85884L8.56422 5.09524C8.14019 5.4538 7.92817 5.63308 7.82935 5.86806C7.81092 5.91189 7.79559 5.9568 7.78348 6.00249C7.71852 6.24745 7.78061 6.50753 7.90478 7.0277L7.94343 7.18961C8.17163 8.14558 8.28573 8.62356 8.08651 8.82973C8.01206 8.90677 7.91531 8.96224 7.80783 8.98949C7.5202 9.06244 7.11183 8.75316 6.2951 8.1346C5.75881 7.72843 5.49066 7.52534 5.1828 7.47966C5.0617 7.46168 4.9383 7.46168 4.8172 7.47966C4.50934 7.52534 4.24119 7.72843 3.7049 8.1346C2.88817 8.75316 2.4798 9.06244 2.19217 8.98949C2.08469 8.96224 1.98793 8.90677 1.91349 8.82973C1.71427 8.62356 1.82837 8.14558 2.05657 7.18961L2.09522 7.0277C2.21939 6.50753 2.28148 6.24745 2.21652 6.00249C2.20441 5.9568 2.18908 5.91189 2.17065 5.86806C2.07183 5.63308 1.85981 5.4538 1.43578 5.09524L1.15622 4.85884C0.318566 4.15052 -0.100259 3.79636 0.0204165 3.46287C0.141092 3.12938 0.705057 3.08244 1.83299 2.98855L1.95758 2.97818C2.64676 2.92081 2.99135 2.89213 3.25386 2.71073C3.51636 2.52933 3.64516 2.23089 3.90276 1.634L3.924 1.5848Z" fill="#FBBC05"/>
</svg>
