<svg width="24" height="23" viewBox="0 0 24 23" fill="none" xmlns="http://www.w3.org/2000/svg">
<path d="M10 17.25C11.775 17.2497 13.4988 16.6802 14.897 15.6323L19.293 19.8452L20.707 18.4901L16.311 14.2773C17.405 12.9372 17.9996 11.2848 18 9.58333C18 5.35613 14.411 1.91667 10 1.91667C5.589 1.91667 2 5.35613 2 9.58333C2 13.8105 5.589 17.25 10 17.25ZM10 3.83333C13.309 3.83333 16 6.41221 16 9.58333C16 12.7545 13.309 15.3333 10 15.3333C6.691 15.3333 4 12.7545 4 9.58333C4 6.41221 6.691 3.83333 10 3.83333Z" fill="#C4C4C4"/>
<path d="M10 17.25C11.775 17.2497 13.4988 16.6802 14.897 15.6323L19.293 19.8452L20.707 18.4901L16.311 14.2773C17.405 12.9372 17.9996 11.2848 18 9.58333C18 5.35613 14.411 1.91667 10 1.91667C5.589 1.91667 2 5.35613 2 9.58333C2 13.8105 5.589 17.25 10 17.25ZM10 3.83333C13.309 3.83333 16 6.41221 16 9.58333C16 12.7545 13.309 15.3333 10 15.3333C6.691 15.3333 4 12.7545 4 9.58333C4 6.41221 6.691 3.83333 10 3.83333Z" fill="#070F1C"/>
</svg>
