<svg width="49" height="49" viewBox="0 0 49 49" fill="none" xmlns="http://www.w3.org/2000/svg">
<path fill-rule="evenodd" clip-rule="evenodd" d="M21.855 23.3873L18.9415 17.5602C17.8322 15.3416 17.2775 14.2323 17.7872 13.7226C18.2968 13.213 19.4061 13.7676 21.6248 14.8769L37.0678 22.5984C38.6289 23.379 39.4094 23.7693 39.4094 24.3873C39.4094 25.0053 38.6289 25.3956 37.0678 26.1762L21.6248 33.8977C19.4061 35.007 18.2968 35.5616 17.7872 35.052C17.2775 34.5423 17.8322 33.433 18.9415 31.2144L21.855 25.3873L30.4841 25.3873C31.0364 25.3873 31.4841 24.9396 31.4841 24.3873C31.4841 23.835 31.0364 23.3873 30.4841 23.3873L21.855 23.3873Z" fill="white"/>
</svg>
