<svg width="32" height="32" viewBox="0 0 32 32" fill="none" xmlns="http://www.w3.org/2000/svg">
<g clip-path="url(#clip0_3002_1164)">
<path d="M14.4699 15.9474C14.3666 15.9475 14.2662 15.9135 14.1843 15.8506C14.1023 15.7878 14.0434 15.6996 14.0167 15.5999C13.99 15.5001 13.997 15.3943 14.0365 15.2989C14.0761 15.2035 14.1461 15.1239 14.2356 15.0723L17.2966 13.3101C17.35 13.2793 17.4089 13.2593 17.47 13.2513C17.531 13.2433 17.5931 13.2474 17.6526 13.2634C17.7121 13.2794 17.7678 13.3069 17.8167 13.3445C17.8655 13.382 17.9065 13.4288 17.9372 13.4822C17.9679 13.5356 17.9879 13.5945 17.9958 13.6556C18.0038 13.7167 17.9996 13.7787 17.9835 13.8382C17.9675 13.8977 17.9399 13.9534 17.9023 14.0022C17.8647 14.051 17.8178 14.0919 17.7644 14.1226L14.7034 15.8848C14.6324 15.9258 14.5519 15.9474 14.4699 15.9474ZM17.5301 18.7525C17.4481 18.7525 17.3676 18.7309 17.2966 18.6899L14.2357 16.9277C14.1279 16.8656 14.0492 16.7634 14.0169 16.6433C13.9846 16.5233 14.0013 16.3953 14.0633 16.2875C14.1253 16.1798 14.2276 16.1011 14.3477 16.0688C14.4677 16.0365 14.5957 16.0531 14.7034 16.1152L17.7644 17.8774C17.8539 17.929 17.9239 18.0086 17.9635 18.104C18.0031 18.1994 18.01 18.3052 17.9833 18.405C17.9566 18.5047 17.8977 18.5929 17.8157 18.6557C17.7338 18.7186 17.6334 18.7526 17.5301 18.7525H17.5301Z" fill="#676E87"/>
<path d="M18.8051 14.572C19.5656 14.572 20.1821 13.9555 20.1821 13.1949C20.1821 12.4344 19.5656 11.8179 18.8051 11.8179C18.0445 11.8179 17.428 12.4344 17.428 13.1949C17.428 13.9555 18.0445 14.572 18.8051 14.572Z" fill="#595F74"/>
<path d="M18.8051 11.8179C18.6453 11.8177 18.4866 11.8455 18.3363 11.8998C18.6024 11.9962 18.8324 12.1723 18.9949 12.404C19.1574 12.6357 19.2446 12.9119 19.2446 13.1949C19.2446 13.4779 19.1574 13.7541 18.9949 13.9858C18.8324 14.2176 18.6024 14.3936 18.3363 14.49C18.5253 14.5584 18.727 14.5846 18.9272 14.5667C19.1274 14.5489 19.3212 14.4875 19.4952 14.3867C19.6691 14.286 19.8189 14.1484 19.934 13.9837C20.0491 13.8189 20.1267 13.6309 20.1614 13.433C20.1961 13.235 20.1871 13.0318 20.135 12.8377C20.0828 12.6436 19.9888 12.4633 19.8596 12.3094C19.7303 12.1555 19.569 12.0317 19.3868 11.9468C19.2046 11.8619 19.0061 11.8179 18.8051 11.8179Z" fill="#4A4F60"/>
<path d="M18.8051 20.1821C19.5656 20.1821 20.1821 19.5656 20.1821 18.8051C20.1821 18.0445 19.5656 17.428 18.8051 17.428C18.0445 17.428 17.428 18.0445 17.428 18.8051C17.428 19.5656 18.0445 20.1821 18.8051 20.1821Z" fill="#595F74"/>
<path d="M18.8051 17.428C18.6453 17.4279 18.4866 17.4556 18.3363 17.51C18.6024 17.6064 18.8324 17.7824 18.9949 18.0142C19.1574 18.2459 19.2446 18.522 19.2446 18.8051C19.2446 19.0881 19.1574 19.3643 18.9949 19.596C18.8324 19.8277 18.6024 20.0038 18.3363 20.1002C18.5253 20.1686 18.727 20.1948 18.9272 20.1769C19.1274 20.1591 19.3212 20.0976 19.4952 19.9969C19.6691 19.8962 19.8189 19.7586 19.934 19.5938C20.0491 19.4291 20.1267 19.2411 20.1614 19.0431C20.1961 18.8452 20.1871 18.642 20.135 18.4479C20.0828 18.2538 19.9888 18.0735 19.8596 17.9196C19.7303 17.7656 19.569 17.6419 19.3868 17.557C19.2046 17.4721 19.0061 17.4281 18.8051 17.428Z" fill="#4A4F60"/>
<path d="M13.1949 17.3771C13.9555 17.3771 14.572 16.7605 14.572 16C14.572 15.2395 13.9555 14.6229 13.1949 14.6229C12.4344 14.6229 11.8179 15.2395 11.8179 16C11.8179 16.7605 12.4344 17.3771 13.1949 17.3771Z" fill="#595F74"/>
<path d="M13.1949 14.623C13.0351 14.6228 12.8765 14.6506 12.7262 14.7049C12.9923 14.8013 13.2222 14.9774 13.3848 15.2091C13.5473 15.4408 13.6345 15.717 13.6345 16C13.6345 16.283 13.5473 16.5592 13.3848 16.7909C13.2222 17.0226 12.9923 17.1987 12.7262 17.2951C12.9152 17.3635 13.1168 17.3897 13.317 17.3718C13.5172 17.354 13.7111 17.2926 13.885 17.1918C14.0589 17.0911 14.2087 16.9535 14.3238 16.7888C14.4389 16.624 14.5165 16.436 14.5512 16.2381C14.586 16.0401 14.577 15.8369 14.5248 15.6428C14.4727 15.4487 14.3787 15.2684 14.2494 15.1145C14.1202 14.9606 13.9588 14.8368 13.7766 14.7519C13.5944 14.667 13.3959 14.623 13.1949 14.623Z" fill="#4A4F60"/>
<path d="M12.4125 6.44063C12.4123 7.94314 11.8458 9.39037 10.826 10.4937C9.80612 11.5971 8.40786 12.2755 6.91001 12.3938C6.75501 12.4062 6.59855 12.4125 6.44063 12.4125C5.1326 12.4145 3.86042 11.9851 2.82126 11.1906V11.19C2.0132 10.5742 1.37561 9.76239 0.968817 8.83141C0.562026 7.90044 0.399483 6.88107 0.496567 5.86975C0.593652 4.85843 0.947153 3.8886 1.52363 3.05201C2.1001 2.21543 2.88048 1.53975 3.79094 1.08891C4.7014 0.638071 5.71184 0.426974 6.72664 0.475592C7.74145 0.524211 8.72707 0.830936 9.59026 1.36675C10.4535 1.90256 11.1657 2.64975 11.6595 3.53761C12.1534 4.42547 12.4126 5.42466 12.4125 6.44063H12.4125Z" fill="white"/>
<path d="M10.8225 10.4969C9.80338 11.5988 8.40635 12.2761 6.91 12.3938C5.7653 12.3061 4.67064 11.8881 3.75876 11.1906V11.19C3.75313 11.1738 3.7475 11.1581 3.74188 11.1425C3.89992 10.3596 4.30642 9.64853 4.90093 9.11512C5.49545 8.58171 6.24623 8.25441 7.04166 8.18188C7.8371 8.10935 8.6347 8.29547 9.31588 8.71255C9.99707 9.12964 10.5255 9.75543 10.8225 10.4969Z" fill="#DEDEDE"/>
<path d="M7.37819 8.166C8.66536 8.166 9.70881 7.12254 9.70881 5.83537C9.70881 4.5482 8.66536 3.50475 7.37819 3.50475C6.09102 3.50475 5.04756 4.5482 5.04756 5.83537C5.04756 7.12254 6.09102 8.166 7.37819 8.166Z" fill="#DEDEDE"/>
<path d="M10.0775 11.1425C10.0625 11.165 10.0469 11.1887 10.0306 11.2125C8.99076 11.995 7.72369 12.4164 6.42227 12.4125C5.12085 12.4085 3.85635 11.9795 2.82126 11.1906V11.19C2.81563 11.1737 2.81 11.1581 2.80438 11.1425C2.97378 10.3029 3.4285 9.54772 4.09137 9.00523C4.75423 8.46275 5.58439 8.16635 6.44094 8.16635C7.29749 8.16635 8.12765 8.46275 8.79052 9.00523C9.45338 9.54772 9.9081 10.3029 10.0775 11.1425L10.0775 11.1425Z" fill="#66C1FF"/>
<path d="M9.06375 9.25251C8.7196 8.90761 8.31071 8.63411 7.86055 8.4477C7.4104 8.26128 6.92785 8.16564 6.44063 8.16625C6.28297 8.16637 6.12548 8.17644 5.9691 8.19642C6.78559 8.29877 7.54465 8.67039 8.12625 9.25251C8.42605 9.5523 8.71514 10.1748 8.89795 10.6384C8.9628 10.8024 8.9676 10.9841 8.91148 11.1514C8.85537 11.3187 8.74196 11.4607 8.59128 11.5525C7.79634 12.0342 6.89934 12.3224 5.9726 12.3938C6.12709 12.4057 6.28305 12.4125 6.44063 12.4125C7.73613 12.4147 8.99683 11.9933 10.0306 11.2125C10.0469 11.1888 10.0625 11.165 10.0775 11.1425C9.93364 10.4262 9.5809 9.76857 9.06375 9.25251Z" fill="#4EB7FF"/>
<path d="M6.44069 8.166C7.72786 8.166 8.77131 7.12254 8.77131 5.83537C8.77131 4.5482 7.72786 3.50475 6.44069 3.50475C5.15352 3.50475 4.11006 4.5482 4.11006 5.83537C4.11006 7.12254 5.15352 8.166 6.44069 8.166Z" fill="#FFCD85"/>
<path d="M6.44066 3.50476C6.28322 3.50468 6.12617 3.52049 5.97191 3.55194C6.49771 3.66 6.97011 3.94621 7.30933 4.36224C7.64855 4.77826 7.83381 5.29861 7.83381 5.8354C7.83381 6.3722 7.64855 6.89254 7.30933 7.30857C6.97011 7.72459 6.49771 8.01081 5.97191 8.11887C6.2912 8.18439 6.62068 8.18221 6.93908 8.11249C7.25747 8.04276 7.55771 7.90703 7.82039 7.71406C8.08307 7.5211 8.30236 7.27518 8.4641 6.9922C8.62583 6.70921 8.72642 6.39546 8.75936 6.07118C8.79231 5.74691 8.75687 5.41933 8.65535 5.1096C8.55383 4.79988 8.38847 4.51488 8.16996 4.27303C7.95146 4.03118 7.68465 3.83784 7.38678 3.70551C7.08891 3.57318 6.7666 3.50479 6.44066 3.50476Z" fill="#FFC166"/>
<path d="M31.5312 6.44062C31.5336 7.94537 30.9654 9.39507 29.9413 10.4975C29.7077 10.7495 29.4531 10.9809 29.18 11.1894C28.2675 11.8878 27.172 12.3064 26.0262 12.3944C25.8725 12.4062 25.7162 12.4125 25.5594 12.4125C24.3783 12.4125 23.2237 12.0623 22.2416 11.4061C21.2595 10.7499 20.4941 9.81718 20.0421 8.72596C19.5901 7.63475 19.4718 6.434 19.7022 5.27557C19.9327 4.11714 20.5014 3.05305 21.3366 2.21786C22.1718 1.38268 23.2359 0.813913 24.3943 0.583486C25.5527 0.353059 26.7535 0.471322 27.8447 0.923319C28.9359 1.37532 29.8686 2.14075 30.5248 3.12282C31.181 4.10489 31.5312 5.25949 31.5312 6.44062L31.5312 6.44062Z" fill="white"/>
<path d="M29.9413 10.4975C29.7077 10.7495 29.4531 10.9809 29.18 11.1894C28.2675 11.8878 27.172 12.3064 26.0262 12.3944C24.8736 12.3045 23.7723 11.8805 22.8569 11.1744C22.8581 11.1638 22.8594 11.1525 22.8606 11.1425C23.0188 10.3596 23.4254 9.6487 24.0199 9.1154C24.6145 8.5821 25.3653 8.2549 26.1607 8.18245C26.9561 8.10999 27.7536 8.29615 28.4347 8.71324C29.1159 9.13033 29.6442 9.75609 29.9412 10.4975L29.9413 10.4975Z" fill="#DEDEDE"/>
<path d="M26.4968 8.166C27.784 8.166 28.8274 7.12254 28.8274 5.83537C28.8274 4.5482 27.784 3.50475 26.4968 3.50475C25.2096 3.50475 24.1662 4.5482 24.1662 5.83537C24.1662 7.12254 25.2096 8.166 26.4968 8.166Z" fill="#DEDEDE"/>
<path d="M29.1956 11.1425C29.1906 11.1581 29.1856 11.1731 29.18 11.1894C28.1364 11.9853 26.8596 12.4152 25.5471 12.4125C24.2347 12.4098 22.9597 11.9746 21.9194 11.1744C21.9206 11.1638 21.9219 11.1525 21.9231 11.1425C22.0925 10.3029 22.5472 9.54781 23.21 9.00535C23.8728 8.46289 24.7029 8.1665 25.5594 8.1665C26.4159 8.1665 27.246 8.46289 27.9088 9.00535C28.5716 9.54781 29.0263 10.3029 29.1956 11.1425H29.1956Z" fill="#63EA86"/>
<path d="M28.1819 9.25251C27.8379 8.90758 27.4291 8.63404 26.9791 8.44762C26.529 8.26121 26.0465 8.16558 25.5594 8.16625C25.4017 8.16637 25.2442 8.17644 25.0879 8.19642C25.9042 8.29867 26.6631 8.67031 27.2444 9.25251C27.5416 9.54976 27.8355 10.1589 28.0265 10.6152C28.0955 10.7797 28.1034 10.9634 28.0488 11.1332C27.9943 11.303 27.8808 11.4477 27.7288 11.5411C26.9293 12.0296 26.0254 12.3218 25.0912 12.3937C25.2457 12.4057 25.4017 12.4125 25.5594 12.4125C26.868 12.4147 28.1408 11.9847 29.18 11.1894C29.1856 11.1731 29.1906 11.1581 29.1956 11.1425C29.052 10.4261 28.6992 9.76841 28.1819 9.25251Z" fill="#3CE568"/>
<path d="M25.5593 8.166C26.8465 8.166 27.8899 7.12254 27.8899 5.83537C27.8899 4.5482 26.8465 3.50475 25.5593 3.50475C24.2721 3.50475 23.2287 4.5482 23.2287 5.83537C23.2287 7.12254 24.2721 8.166 25.5593 8.166Z" fill="#FFCD85"/>
<path d="M25.5593 3.50476C25.4019 3.50468 25.2448 3.52049 25.0906 3.55194C25.6164 3.66 26.0888 3.94621 26.428 4.36224C26.7672 4.77826 26.9525 5.29861 26.9525 5.8354C26.9525 6.3722 26.7672 6.89254 26.428 7.30857C26.0888 7.72459 25.6164 8.01081 25.0906 8.11887C25.4099 8.18439 25.7393 8.18222 26.0577 8.11249C26.3761 8.04277 26.6764 7.90704 26.9391 7.71407C27.2017 7.52111 27.421 7.27519 27.5828 6.9922C27.7445 6.70922 27.8451 6.39546 27.878 6.07118C27.911 5.74691 27.8756 5.41933 27.774 5.1096C27.6725 4.79987 27.5072 4.51488 27.2886 4.27303C27.0701 4.03117 26.8033 3.83784 26.5055 3.70551C26.2076 3.57317 25.8853 3.50479 25.5593 3.50476Z" fill="#FFC166"/>
<path d="M31.5313 25.5375C31.5313 27.0402 30.9649 28.4876 29.945 29.5911C28.9251 30.6946 27.5267 31.3731 26.0288 31.4912C25.8738 31.5031 25.7173 31.5092 25.5594 31.5094C24.3783 31.5094 23.2237 31.1591 22.2416 30.5029C21.2595 29.8467 20.4941 28.9141 20.0421 27.8228C19.5901 26.7316 19.4718 25.5309 19.7023 24.3724C19.9327 23.214 20.5015 22.1499 21.3366 21.3148C22.1718 20.4796 23.2359 19.9108 24.3943 19.6804C25.5528 19.45 26.7535 19.5682 27.8447 20.0202C28.9359 20.4722 29.8686 21.2376 30.5248 22.2197C31.181 23.2018 31.5313 24.3564 31.5313 25.5375Z" fill="white"/>
<path d="M29.9413 29.5944C28.9223 30.6965 27.5252 31.3739 26.0287 31.4912C24.8762 31.4026 23.7746 30.9792 22.8594 30.2731C22.8594 30.2606 22.86 30.25 22.8606 30.2394C23.0188 29.4565 23.4254 28.7456 24.0199 28.2123C24.6145 27.679 25.3653 27.3518 26.1607 27.2793C26.9561 27.2068 27.7536 27.393 28.4347 27.8101C29.1159 28.2272 29.6442 28.853 29.9412 29.5944L29.9413 29.5944Z" fill="#DEDEDE"/>
<path d="M26.4968 27.2629C27.784 27.2629 28.8274 26.2194 28.8274 24.9322C28.8274 23.6451 27.784 22.6016 26.4968 22.6016C25.2096 22.6016 24.1662 23.6451 24.1662 24.9322C24.1662 26.2194 25.2096 27.2629 26.4968 27.2629Z" fill="#DEDEDE"/>
<path d="M29.2037 30.2687C28.1604 31.0724 26.8806 31.5086 25.5636 31.5094C24.2465 31.5102 22.9662 31.0755 21.9219 30.2731C21.9219 30.2606 21.9225 30.25 21.9231 30.2394C22.0925 29.3998 22.5472 28.6447 23.21 28.1022C23.8728 27.5598 24.7029 27.2634 25.5594 27.2634C26.4159 27.2634 27.246 27.5598 27.9088 28.1022C28.5716 28.6447 29.0263 29.3998 29.1956 30.2394C29.1981 30.2494 29.2012 30.2594 29.2037 30.2687Z" fill="#FF6666"/>
<path d="M29.1956 30.2394C29.0262 29.3998 28.5716 28.6447 27.9088 28.1022C27.246 27.5597 26.4159 27.2632 25.5594 27.2631C25.4018 27.2632 25.2443 27.2733 25.088 27.2933C25.9044 27.3953 26.6633 27.767 27.2444 28.3494C27.5374 28.6424 27.8323 29.2349 28.0294 29.6845C28.1034 29.8522 28.1141 30.041 28.0595 30.2159C28.005 30.3909 27.8889 30.5401 27.7328 30.6361C26.932 31.1258 26.0265 31.4187 25.0906 31.4905C25.2453 31.5026 25.4016 31.5094 25.5594 31.5094C26.8782 31.5117 28.1603 31.0752 29.2037 30.2688C29.2012 30.2594 29.1981 30.2494 29.1956 30.2394Z" fill="#FF4E4E"/>
<path d="M25.5593 27.2629C26.8465 27.2629 27.8899 26.2194 27.8899 24.9322C27.8899 23.6451 26.8465 22.6016 25.5593 22.6016C24.2721 22.6016 23.2287 23.6451 23.2287 24.9322C23.2287 26.2194 24.2721 27.2629 25.5593 27.2629Z" fill="#FFCD85"/>
<path d="M25.5593 22.6016C25.4019 22.6015 25.2448 22.6173 25.0906 22.6488C25.6164 22.7568 26.0888 23.043 26.428 23.4591C26.7672 23.8751 26.9525 24.3954 26.9525 24.9322C26.9525 25.469 26.7672 25.9894 26.428 26.4054C26.0888 26.8214 25.6164 27.1076 25.0906 27.2157C25.4099 27.2812 25.7393 27.279 26.0577 27.2093C26.3761 27.1396 26.6764 27.0039 26.9391 26.8109C27.2017 26.6179 27.421 26.372 27.5828 26.089C27.7445 25.806 27.8451 25.4923 27.878 25.168C27.911 24.8437 27.8756 24.5161 27.774 24.2064C27.6725 23.8967 27.5072 23.6117 27.2886 23.3698C27.0701 23.128 26.8033 22.9347 26.5055 22.8023C26.2076 22.67 25.8853 22.6016 25.5593 22.6016Z" fill="#FFC166"/>
<path d="M12.4125 25.5375C12.4122 27.0402 11.8455 28.4877 10.8254 29.5911C9.80534 30.6946 8.40683 31.3731 6.90875 31.4912C6.75437 31.5031 6.59833 31.5092 6.44062 31.5094C5.2595 31.5094 4.1049 31.1591 3.12283 30.5029C2.14076 29.8467 1.37533 28.914 0.923339 27.8228C0.471344 26.7316 0.353082 25.5309 0.58351 24.3724C0.813937 23.214 1.3827 22.1499 2.21789 21.3147C3.05307 20.4796 4.11716 19.9108 5.27558 19.6804C6.43401 19.45 7.63476 19.5682 8.72597 20.0202C9.81719 20.4722 10.7499 21.2376 11.4061 22.2197C12.0623 23.2018 12.4125 24.3564 12.4125 25.5375L12.4125 25.5375Z" fill="white"/>
<path d="M10.8225 29.5937C9.80306 30.6961 8.40558 31.3736 6.90875 31.4912C5.75642 31.4024 4.65511 30.979 3.74 30.2731C3.74062 30.2612 3.74125 30.25 3.74187 30.2394C3.9024 29.4428 4.32009 28.721 4.93074 28.1848C5.54139 27.6487 6.3112 27.328 7.12186 27.2719C7.20624 27.2663 7.29186 27.2631 7.37812 27.2631C7.46374 27.2631 7.54874 27.2662 7.63311 27.2719C8.32926 27.3199 8.99777 27.5632 9.56191 27.9739C10.1261 28.3846 10.563 28.946 10.8225 29.5938L10.8225 29.5937Z" fill="#DEDEDE"/>
<path d="M7.37819 27.2856C8.67164 27.2856 9.72019 26.237 9.72019 24.9436C9.72019 23.6501 8.67164 22.6016 7.37819 22.6016C6.08474 22.6016 5.03619 23.6501 5.03619 24.9436C5.03619 26.237 6.08474 27.2856 7.37819 27.2856Z" fill="#DEDEDE"/>
<path d="M10.0775 30.2394C10.075 30.2531 10.0725 30.2662 10.0694 30.28C9.02608 31.0785 7.74856 31.5106 6.43477 31.5094C5.12098 31.5081 3.84428 31.0736 2.80251 30.2731C2.80313 30.2612 2.80376 30.25 2.80438 30.2394C2.97377 29.3997 3.42849 28.6446 4.09136 28.1021C4.75422 27.5596 5.58439 27.2632 6.44094 27.2632C7.29749 27.2632 8.12765 27.5596 8.79052 28.1021C9.45338 28.6446 9.9081 29.3997 10.0775 30.2394L10.0775 30.2394Z" fill="#FFE966"/>
<path d="M9.06375 28.3494C8.71969 28.0044 8.31081 27.7308 7.86064 27.5444C7.41046 27.3579 6.92787 27.2624 6.44063 27.2631C6.28303 27.2632 6.1256 27.2733 5.96927 27.2933C6.78578 27.3954 7.54486 27.767 8.12625 28.3494C8.42282 28.6459 8.71767 29.2517 8.91066 29.706C8.98063 29.8715 8.98883 30.0565 8.93379 30.2275C8.87875 30.3985 8.76413 30.544 8.61079 30.6375C7.81096 31.1264 6.90667 31.4187 5.97204 31.4906C6.12672 31.5026 6.28287 31.5094 6.44063 31.5094C7.75279 31.5116 9.02876 31.0793 10.0694 30.28L10.08 30.2519C9.93775 29.5308 9.58397 28.8685 9.06375 28.3494Z" fill="#FFE236"/>
<path d="M6.44069 27.2856C7.73414 27.2856 8.78269 26.237 8.78269 24.9436C8.78269 23.6501 7.73414 22.6016 6.44069 22.6016C5.14724 22.6016 4.09869 23.6501 4.09869 24.9436C4.09869 26.237 5.14724 27.2856 6.44069 27.2856Z" fill="#FFCD85"/>
<path d="M6.44066 22.6016C6.28323 22.6015 6.12619 22.6173 5.97191 22.6486C6.50077 22.7567 6.97606 23.0442 7.31739 23.4624C7.65872 23.8805 7.84515 24.4038 7.84515 24.9436C7.84515 25.4834 7.65872 26.0066 7.31739 26.4248C6.97606 26.843 6.50077 27.1304 5.97191 27.2386C6.29272 27.3041 6.6237 27.3016 6.94349 27.2313C7.26328 27.161 7.56478 27.0244 7.82852 26.8303C8.09225 26.6363 8.31238 26.3891 8.47468 26.1047C8.63698 25.8203 8.73785 25.5051 8.77078 25.1793C8.80371 24.8535 8.76797 24.5245 8.66587 24.2134C8.56376 23.9023 8.39757 23.616 8.178 23.3731C7.95843 23.1302 7.69037 22.9361 7.39112 22.8032C7.09188 22.6703 6.76809 22.6016 6.44066 22.6016V22.6016Z" fill="#FFC166"/>
<path d="M17.8239 3.62425L17.8302 3.62516C17.8529 3.62851 17.8759 3.63019 17.8989 3.6302C18.0173 3.63003 18.1312 3.5851 18.2178 3.50443C18.3044 3.42376 18.3573 3.31332 18.3658 3.19528C18.3744 3.07724 18.338 2.96033 18.2639 2.86802C18.1898 2.77571 18.0836 2.71484 17.9665 2.69761L17.9603 2.69669C17.8373 2.67871 17.7123 2.71028 17.6126 2.78447C17.5129 2.85866 17.4467 2.9694 17.4287 3.09234C17.4106 3.21529 17.4421 3.34038 17.5162 3.44012C17.5903 3.53986 17.701 3.60609 17.8239 3.62425ZM16.0029 3.49146H16.0092C16.1336 3.49146 16.2528 3.44208 16.3407 3.35417C16.4286 3.26626 16.478 3.14703 16.478 3.02271C16.478 2.89839 16.4286 2.77917 16.3407 2.69126C16.2528 2.60335 16.1336 2.55396 16.0092 2.55396H16.0029C15.8786 2.55396 15.7594 2.60335 15.6715 2.69126C15.5836 2.77917 15.5342 2.89839 15.5342 3.02271C15.5342 3.14703 15.5836 3.26626 15.6715 3.35417C15.7594 3.44208 15.8786 3.49146 16.0029 3.49146ZM14.1131 3.62721C14.1361 3.6272 14.1591 3.62552 14.1818 3.62217L14.1881 3.62126C14.311 3.60311 14.4217 3.53689 14.4959 3.43715C14.57 3.3374 14.6015 3.2123 14.5834 3.08934C14.5653 2.96638 14.4992 2.85563 14.3995 2.78144C14.2998 2.70725 14.1747 2.67569 14.0517 2.6937L14.0455 2.69462C13.9284 2.71185 13.8222 2.77272 13.7481 2.86503C13.674 2.95734 13.6376 3.07425 13.6462 3.19229C13.6547 3.31033 13.7076 3.42077 13.7942 3.50144C13.8808 3.58211 13.9947 3.62704 14.1131 3.62721ZM28.8812 14.7663C28.8949 14.7663 28.9086 14.7657 28.9223 14.7645C28.9836 14.7592 29.0431 14.7418 29.0977 14.7135C29.1522 14.6851 29.2007 14.6463 29.2402 14.5992C29.2797 14.5522 29.3096 14.4978 29.3281 14.4392C29.3466 14.3806 29.3534 14.3189 29.3481 14.2576L29.346 14.2372C29.3343 14.148 29.2971 14.0641 29.2389 13.9955C29.1808 13.9269 29.1041 13.8764 29.018 13.8503C28.9319 13.8241 28.8401 13.8233 28.7536 13.8479C28.6671 13.8726 28.5895 13.9216 28.5301 13.9892C28.4708 14.0568 28.4321 14.1401 28.4188 14.229C28.4056 14.318 28.4182 14.4089 28.4552 14.4909C28.4923 14.5729 28.5522 14.6424 28.6277 14.6913C28.7033 14.7401 28.7913 14.7661 28.8812 14.7663ZM25.5593 12.8812C26.8331 12.8812 28.0784 12.5034 29.1375 11.7957C30.1967 11.088 31.0222 10.0821 31.5097 8.90524C31.9971 7.72836 32.1247 6.43335 31.8762 5.18399C31.6277 3.93463 31.0142 2.78701 30.1135 1.88627C29.2127 0.985531 28.0651 0.37212 26.8158 0.123608C25.5664 -0.124903 24.2714 0.00264665 23.0945 0.490128C21.9176 0.977609 20.9118 1.80313 20.204 2.86229C19.4963 3.92145 19.1186 5.16669 19.1186 6.44053C19.1205 8.14811 19.7997 9.78519 21.0072 10.9926C22.2146 12.2001 23.8517 12.8792 25.5593 12.8812H25.5593ZM25.5593 11.9437C24.4472 11.9449 23.3612 11.6073 22.4459 10.9757C22.641 10.3008 23.0502 9.7076 23.6117 9.2854C24.1733 8.86319 24.8568 8.63489 25.5593 8.63487C26.2619 8.63486 26.9454 8.86313 27.507 9.2853C28.0685 9.70748 28.4777 10.3007 28.6729 10.9756C27.7575 11.6072 26.6714 11.9449 25.5593 11.9437H25.5593ZM23.6974 5.83524C23.6974 5.467 23.8066 5.10703 24.0112 4.80085C24.2158 4.49467 24.5066 4.25604 24.8468 4.11512C25.187 3.9742 25.5614 3.93734 25.9225 4.00918C26.2837 4.08103 26.6155 4.25836 26.8758 4.51874C27.1362 4.77913 27.3135 5.11089 27.3854 5.47206C27.4572 5.83322 27.4204 6.20758 27.2794 6.54779C27.1385 6.88801 26.8999 7.17879 26.5937 7.38337C26.2875 7.58796 25.9275 7.69715 25.5593 7.69715C25.0656 7.6966 24.5924 7.50026 24.2433 7.1512C23.8943 6.80214 23.698 6.32888 23.6974 5.83524H23.6974ZM25.5593 0.937357C26.6483 0.936832 27.713 1.25958 28.6184 1.86472C29.5238 2.46985 30.2292 3.33013 30.6453 4.33655C31.0613 5.34297 31.1692 6.45024 30.9554 7.51805C30.7415 8.58587 30.2155 9.56617 29.444 10.3348C29.0403 9.31989 28.2563 8.50275 27.2591 8.0574C27.7243 7.70185 28.0663 7.20938 28.237 6.64929C28.4077 6.08919 28.3984 5.48967 28.2106 4.9351C28.0227 4.38053 27.6657 3.89883 27.1897 3.55779C26.7138 3.21674 26.1429 3.03352 25.5573 3.03392C24.9718 3.03431 24.4012 3.2183 23.9257 3.55998C23.4502 3.90167 23.0938 4.38386 22.9067 4.93868C22.7196 5.4935 22.7111 6.09303 22.8826 6.65289C23.054 7.21276 23.3967 7.70477 23.8624 8.05969C22.8648 8.50445 22.0801 9.32081 21.675 10.3352C20.9034 9.56665 20.3773 8.58635 20.1633 7.5185C19.9493 6.45065 20.0572 5.34332 20.4732 4.33683C20.8892 3.33034 21.5946 2.46999 22.5 1.8648C23.4055 1.25961 24.4702 0.936831 25.5593 0.937357ZM29.415 16.2414L29.4159 16.2222C29.4159 16.2199 29.416 16.2176 29.416 16.2154L29.416 16.215L29.4168 16.1958C29.4186 16.1344 29.4083 16.0733 29.3865 16.0159C29.3646 15.9585 29.3317 15.906 29.2896 15.8613C29.2474 15.8167 29.1969 15.7808 29.1409 15.7556C29.0848 15.7305 29.0244 15.7167 28.963 15.7149C28.9583 15.7148 28.9535 15.7147 28.9487 15.7147C28.8275 15.7149 28.7111 15.7621 28.6239 15.8463C28.5367 15.9306 28.4856 16.0453 28.4812 16.1664C28.4809 16.1718 28.4808 16.1771 28.4807 16.1824C28.4805 16.1859 28.4803 16.1893 28.4802 16.1928C28.4744 16.316 28.5175 16.4364 28.6001 16.528C28.6826 16.6196 28.7979 16.6749 28.921 16.6819C28.9301 16.6825 28.9392 16.6827 28.9482 16.6827C29.0676 16.6826 29.1825 16.6369 29.2693 16.5548C29.3561 16.4727 29.4082 16.3606 29.415 16.2414ZM25.5593 19.0967C24.2854 19.0967 23.0402 19.4744 21.981 20.1821C20.9219 20.8898 20.0964 21.8957 19.6089 23.0726C19.1214 24.2495 18.9939 25.5445 19.2424 26.7938C19.4909 28.0432 20.1043 29.1908 21.005 30.0916C21.9058 30.9923 23.0534 31.6057 24.3028 31.8542C25.5521 32.1028 26.8471 31.9752 28.024 31.4877C29.2009 31.0003 30.2068 30.1747 30.9145 29.1156C31.6222 28.0564 32 26.8112 32 25.5373C31.998 23.8298 31.3188 22.1927 30.1114 20.9852C28.904 19.7778 27.2669 19.0986 25.5593 19.0967ZM25.5593 31.0405C24.4472 31.0417 23.3612 30.7041 22.4459 30.0726C22.641 29.3977 23.0502 28.8044 23.6117 28.3823C24.1733 27.9601 24.8568 27.7318 25.5593 27.7317C26.2619 27.7317 26.9454 27.96 27.507 28.3822C28.0685 28.8043 28.4777 29.3975 28.6729 30.0724C27.7575 30.704 26.6714 31.0417 25.5593 31.0405ZM23.6974 24.9321C23.6974 24.5639 23.8066 24.2039 24.0112 23.8977C24.2158 23.5915 24.5066 23.3529 24.8468 23.212C25.187 23.071 25.5613 23.0342 25.9225 23.106C26.2837 23.1778 26.6154 23.3552 26.8758 23.6156C27.1362 23.876 27.3135 24.2077 27.3854 24.5689C27.4572 24.93 27.4204 25.3044 27.2794 25.6446C27.1385 25.9848 26.8999 26.2756 26.5937 26.4802C26.2875 26.6848 25.9275 26.794 25.5593 26.794C25.0657 26.7934 24.5924 26.5971 24.2434 26.248C23.8943 25.899 23.698 25.4257 23.6974 24.9321L23.6974 24.9321ZM29.444 29.4316C29.0403 28.4167 28.2563 27.5996 27.2591 27.1542C27.7243 26.7987 28.0663 26.3062 28.237 25.7461C28.4077 25.186 28.3984 24.5865 28.2106 24.0319C28.0227 23.4774 27.6657 22.9957 27.1897 22.6546C26.7138 22.3136 26.1429 22.1304 25.5573 22.1308C24.9718 22.1311 24.4012 22.3151 23.9257 22.6568C23.4502 22.9985 23.0938 23.4807 22.9067 24.0355C22.7196 24.5903 22.7111 25.1899 22.8826 25.7497C23.054 26.3096 23.3967 26.8016 23.8624 27.1565C22.8648 27.6013 22.0801 28.4176 21.675 29.432C20.9034 28.6632 20.3773 27.6827 20.1633 26.6147C19.9494 25.5466 20.0571 24.4391 20.473 23.4324C20.8889 22.4257 21.5942 21.565 22.4996 20.9594C23.405 20.3538 24.4697 20.0305 25.559 20.0304C26.6482 20.0304 27.713 20.3536 28.6185 20.9591C29.5239 21.5646 30.2293 22.4252 30.6453 23.4318C31.0613 24.4385 31.1692 25.546 30.9554 26.6141C30.7415 27.6821 30.2155 28.6627 29.444 29.4316V29.4316ZM28.2789 18.0048C28.2553 18.1262 28.2807 18.252 28.3496 18.3548C28.4185 18.4575 28.5252 18.5288 28.6465 18.5531C28.7678 18.5774 28.8937 18.5527 28.9969 18.4844C29.1 18.4161 29.1719 18.3097 29.1968 18.1886L29.2005 18.1693C29.2218 18.0473 29.1939 17.9219 29.1229 17.8204C29.0519 17.7189 28.9436 17.6497 28.8217 17.628C28.6998 17.6062 28.5742 17.6336 28.4725 17.7043C28.3707 17.7749 28.3012 17.8829 28.2789 18.0048H28.2789ZM17.8989 28.804C17.8759 28.804 17.8529 28.8057 17.8302 28.809L17.8239 28.8099C17.701 28.8281 17.5903 28.8943 17.5162 28.994C17.4421 29.0938 17.4106 29.2189 17.4287 29.3418C17.4467 29.4648 17.5129 29.5755 17.6126 29.6497C17.7123 29.7239 17.8373 29.7555 17.9603 29.7375L17.9665 29.7366C18.0836 29.7193 18.1898 29.6584 18.2639 29.5661C18.338 29.4738 18.3744 29.3569 18.3658 29.2389C18.3573 29.1208 18.3044 29.0104 18.2178 28.9297C18.1312 28.8491 18.0173 28.8041 17.8989 28.804ZM6.44063 19.0967C5.16679 19.0967 3.92155 19.4744 2.86238 20.1821C1.80322 20.8898 0.977704 21.8957 0.490224 23.0726C0.00274494 24.2495 -0.124802 25.5445 0.123713 26.7938C0.372228 28.0432 0.985642 29.1908 1.88639 30.0916C2.78713 30.9923 3.93475 31.6057 5.18412 31.8542C6.43349 32.1028 7.72849 31.9752 8.90537 31.4877C10.0822 31.0003 11.0881 30.1747 11.7959 29.1156C12.5036 28.0564 12.8813 26.8112 12.8813 25.5373C12.8794 23.8298 12.2002 22.1927 10.9927 20.9852C9.7853 19.7778 8.14821 19.0986 6.44063 19.0967H6.44063ZM6.44063 31.0405C5.32857 31.0417 4.24254 30.7041 3.3272 30.0725C3.5112 29.4401 3.88308 28.8786 4.39353 28.4624C4.90398 28.0462 5.52889 27.795 6.18539 27.7421C6.26952 27.7497 6.35454 27.7542 6.44064 27.7542C6.52622 27.7542 6.61074 27.7497 6.6944 27.7422C7.35154 27.7936 7.97737 28.0442 8.48836 28.4605C8.99934 28.8769 9.37118 29.4392 9.55422 30.0724C8.63885 30.704 7.55276 31.0417 6.44063 31.0405H6.44063ZM4.5674 24.9435C4.56731 24.5831 4.67119 24.2303 4.86657 23.9275C5.06195 23.6246 5.34054 23.3846 5.66894 23.2361C5.99733 23.0876 6.36158 23.0371 6.718 23.0904C7.07443 23.1438 7.40789 23.2988 7.6784 23.537C7.94891 23.7751 8.14498 24.0862 8.2431 24.433C8.34122 24.7798 8.33722 25.1475 8.23158 25.4921C8.12594 25.8366 7.92315 26.1434 7.64753 26.3756C7.3719 26.6078 7.03514 26.7556 6.67764 26.8012C6.59891 26.7968 6.51987 26.794 6.44039 26.794C6.36156 26.794 6.28333 26.797 6.2054 26.8014C5.75323 26.7436 5.33756 26.5232 5.0361 26.1813C4.73464 25.8393 4.56803 25.3993 4.5674 24.9435ZM10.3253 29.4316C9.92451 28.4241 9.1489 27.6112 8.16138 27.1635C8.62503 26.8046 8.96479 26.3095 9.13308 25.7478C9.30138 25.1861 9.28977 24.5858 9.0999 24.031C8.91002 23.4762 8.55138 22.9947 8.0742 22.6539C7.59703 22.3131 7.02521 22.1301 6.43882 22.1304C5.85243 22.1308 5.28085 22.3146 4.8041 22.656C4.32736 22.9974 3.96934 23.4794 3.78017 24.0344C3.59101 24.5895 3.58017 25.1898 3.74918 25.7513C3.91819 26.3128 4.25858 26.8073 4.72269 27.1657C3.7348 27.6128 2.9584 28.425 2.55636 29.432C1.78474 28.6632 1.25863 27.6827 1.04466 26.6146C0.830694 25.5466 0.938484 24.4391 1.35438 23.4324C1.77028 22.4256 2.47559 21.565 3.38097 20.9594C4.28635 20.3538 5.35109 20.0305 6.44034 20.0304C7.5296 20.0303 8.59437 20.3535 9.49981 20.9591C10.4053 21.5646 11.1106 22.4251 11.5267 23.4318C11.9427 24.4385 12.0506 25.546 11.8367 26.6141C11.6228 27.6821 11.0968 28.6627 10.3253 29.4316H10.3253ZM16.0092 28.9427H16.0029C15.8786 28.9427 15.7594 28.9921 15.6715 29.08C15.5836 29.1679 15.5342 29.2871 15.5342 29.4114C15.5342 29.5358 15.5836 29.655 15.6715 29.7429C15.7594 29.8308 15.8786 29.8802 16.0029 29.8802H16.0092C16.1336 29.8802 16.2528 29.8308 16.3407 29.7429C16.4286 29.655 16.478 29.5358 16.478 29.4114C16.478 29.2871 16.4286 29.1679 16.3407 29.08C16.2528 28.9921 16.1336 28.9427 16.0092 28.9427ZM16.9358 29.0279L16.9364 29.0359L16.931 28.9446L16.9358 29.0279ZM14.1881 28.8129L14.1818 28.812C14.1591 28.8086 14.1361 28.807 14.1131 28.807C13.9947 28.8071 13.8808 28.852 13.7942 28.9327C13.7076 29.0134 13.6547 29.1238 13.6462 29.2419C13.6376 29.3599 13.674 29.4768 13.7481 29.5691C13.8222 29.6614 13.9284 29.7223 14.0455 29.7395L14.0517 29.7405C14.1747 29.7585 14.2998 29.7269 14.3995 29.6527C14.4992 29.5785 14.5653 29.4678 14.5834 29.3448C14.6015 29.2219 14.57 29.0968 14.4959 28.997C14.4217 28.8973 14.311 28.831 14.1881 28.8129ZM15.031 29.006L15.0367 28.9413L15.0313 29.0017L15.031 29.006ZM18.8154 28.722L18.8161 28.7247L18.8054 28.6732L18.8154 28.722ZM20.6508 18.8049C20.651 18.4228 20.5326 18.0501 20.3119 17.7383C20.0912 17.4264 19.7791 17.1907 19.4187 17.0639C19.0583 16.937 18.6675 16.9251 18.3 17.0299C17.9326 17.1347 17.6068 17.351 17.3676 17.6489L15.0167 16.2954C15.0487 16.0997 15.0487 15.9 15.0167 15.7043L17.3676 14.3508C17.6485 14.699 18.0466 14.9331 18.4874 15.0093C18.9282 15.0855 19.3818 14.9987 19.7633 14.7651C20.1448 14.5314 20.4282 14.1669 20.5607 13.7396C20.6931 13.3123 20.6655 12.8514 20.4831 12.4429C20.3006 12.0344 19.9757 11.7063 19.569 11.5199C19.1623 11.3334 18.7017 11.3013 18.2731 11.4296C17.8445 11.5578 17.4773 11.8377 17.2399 12.2169C17.0025 12.5962 16.9113 13.0488 16.9832 13.4904L14.6323 14.8438C14.3929 14.5459 14.067 14.3296 13.6995 14.2249C13.332 14.1201 12.9411 14.1319 12.5806 14.2588C12.2202 14.3857 11.908 14.6213 11.6871 14.9332C11.4663 15.245 11.3477 15.6178 11.3477 15.9999C11.3477 16.382 11.4663 16.7547 11.6872 17.0666C11.908 17.3785 12.2202 17.6141 12.5807 17.7409C12.9411 17.8678 13.3321 17.8797 13.6996 17.7749C14.0671 17.6701 14.393 17.4538 14.6323 17.1559L16.9832 18.5094C16.9424 18.761 16.9541 19.0183 17.0177 19.2651C17.0812 19.512 17.1952 19.743 17.3524 19.9436C17.5096 20.1442 17.7067 20.3101 17.9312 20.4307C18.1557 20.5514 18.4028 20.6243 18.6569 20.6448C18.9109 20.6652 19.1665 20.6329 19.4074 20.5497C19.6483 20.4665 19.8694 20.3343 20.0568 20.1615C20.2441 19.9887 20.3936 19.7789 20.4958 19.5454C20.5981 19.3119 20.6509 19.0598 20.6508 18.8049V18.8049ZM18.805 12.2865C18.9847 12.2865 19.1603 12.3397 19.3096 12.4395C19.459 12.5393 19.5754 12.6812 19.6442 12.8472C19.7129 13.0131 19.7309 13.1958 19.6959 13.3719C19.6608 13.5481 19.5743 13.71 19.4473 13.837C19.3203 13.964 19.1584 14.0506 18.9823 14.0856C18.8061 14.1207 18.6234 14.1027 18.4575 14.0339C18.2915 13.9652 18.1496 13.8488 18.0498 13.6994C17.95 13.55 17.8967 13.3744 17.8967 13.1948C17.897 12.954 17.9928 12.7231 18.1631 12.5528C18.3333 12.3826 18.5642 12.2868 18.805 12.2865V12.2865ZM13.1949 16.9081C13.0153 16.9081 12.8397 16.8549 12.6903 16.755C12.5409 16.6552 12.4245 16.5134 12.3558 16.3474C12.287 16.1815 12.269 15.9988 12.3041 15.8226C12.3391 15.6465 12.4256 15.4846 12.5526 15.3576C12.6797 15.2306 12.8415 15.1441 13.0177 15.109C13.1939 15.074 13.3765 15.092 13.5425 15.1607C13.7084 15.2294 13.8503 15.3459 13.9501 15.4952C14.0499 15.6446 14.1032 15.8202 14.1032 15.9999C14.1029 16.2407 14.0071 16.4715 13.8368 16.6418C13.6666 16.8121 13.4357 16.9078 13.1949 16.9081V16.9081ZM18.805 19.7132C18.6254 19.7132 18.4498 19.66 18.3004 19.5601C18.151 19.4603 18.0346 19.3185 17.9659 19.1525C17.8971 18.9865 17.8792 18.8039 17.9142 18.6277C17.9492 18.4515 18.0358 18.2897 18.1628 18.1627C18.2898 18.0356 18.4516 17.9491 18.6278 17.9141C18.804 17.879 18.9866 17.897 19.1526 17.9658C19.3186 18.0345 19.4604 18.1509 19.5602 18.3003C19.6601 18.4497 19.7133 18.6253 19.7133 18.8049C19.7131 19.0457 19.6173 19.2766 19.447 19.4469C19.2767 19.6172 19.0458 19.713 18.805 19.7132V19.7132ZM6.44063 12.8812C7.71447 12.8812 8.95971 12.5034 10.0189 11.7957C11.078 11.088 11.9035 10.0821 12.391 8.90523C12.8785 7.72835 13.006 6.43335 12.7575 5.18398C12.509 3.93462 11.8956 2.787 10.9948 1.88626C10.0941 0.985523 8.94647 0.372113 7.69711 0.123602C6.44774 -0.124909 5.15274 0.00264189 3.97586 0.490124C2.79899 0.977606 1.7931 1.80312 1.08539 2.86229C0.377687 3.92145 -4.70844e-05 5.16669 -4.28816e-05 6.44053C0.00189157 8.14811 0.681083 9.78519 1.88853 10.9926C3.09597 12.2001 4.73305 12.8792 6.44063 12.8812V12.8812ZM6.44063 11.9437C5.32858 11.9449 4.24255 11.6072 3.32721 10.9757C3.52235 10.3008 3.9315 9.70757 4.49305 9.28538C5.05459 8.86318 5.73812 8.63488 6.44068 8.63487C7.14323 8.63486 7.82677 8.86313 8.38833 9.2853C8.94989 9.70747 9.35907 10.3007 9.55423 10.9756C8.63886 11.6072 7.55276 11.9449 6.44063 11.9437V11.9437ZM4.57876 5.83524C4.57876 5.467 4.68796 5.10703 4.89255 4.80085C5.09714 4.49467 5.38793 4.25603 5.72815 4.11511C6.06836 3.9742 6.44272 3.93733 6.80388 4.00918C7.16505 4.08102 7.4968 4.25835 7.75719 4.51874C8.01757 4.77913 8.19489 5.11088 8.26673 5.47205C8.33857 5.83322 8.3017 6.20758 8.16078 6.54779C8.01985 6.888 7.78121 7.17878 7.47503 7.38337C7.16885 7.58795 6.80887 7.69715 6.44063 7.69715C5.947 7.69659 5.47374 7.50025 5.12469 7.1512C4.77564 6.80214 4.5793 6.32888 4.57875 5.83524L4.57876 5.83524ZM6.44063 0.937357C7.52965 0.936832 8.59432 1.25958 9.49974 1.86472C10.4052 2.46985 11.1106 3.33013 11.5266 4.33655C11.9426 5.34297 12.0506 6.45024 11.8367 7.51805C11.6228 8.58587 11.0968 9.56617 10.3253 10.3348C9.9216 9.31992 9.13764 8.5028 8.1404 8.05741C8.60562 7.70187 8.94765 7.2094 9.11834 6.6493C9.28903 6.08921 9.2798 5.48969 9.09194 4.93511C8.90408 4.38054 8.54706 3.89883 8.07111 3.55778C7.59516 3.21673 7.02424 3.03351 6.43872 3.0339C5.85319 3.03429 5.28252 3.21828 4.80703 3.55997C4.33154 3.90165 3.97516 4.38384 3.78804 4.93866C3.60092 5.49349 3.59249 6.09302 3.76394 6.65289C3.93538 7.21275 4.27806 7.70477 4.74376 8.05969C3.74617 8.50444 2.96142 9.32079 2.55637 10.3352C1.78473 9.56662 1.2586 8.58632 1.04465 7.51847C0.830693 6.45062 0.938549 5.3433 1.35455 4.33681C1.77055 3.33032 2.47596 2.46997 3.3814 1.86479C4.28685 1.25961 5.35156 0.93683 6.44063 0.937357ZM3.04991 16.6448C3.05454 16.6448 3.05924 16.6448 3.06392 16.6446C3.188 16.641 3.30554 16.5882 3.3907 16.4978C3.47586 16.4075 3.52165 16.2871 3.51802 16.163L3.51717 16.1438C3.51076 16.0529 3.47794 15.9658 3.42273 15.8932C3.36751 15.8207 3.29232 15.7658 3.20637 15.7354C3.12043 15.705 3.02747 15.7003 2.93892 15.722C2.85036 15.7437 2.77007 15.7908 2.70788 15.8574C2.6457 15.9241 2.60434 16.0075 2.58889 16.0973C2.57343 16.1872 2.58454 16.2796 2.62087 16.3632C2.65719 16.4468 2.71714 16.518 2.79336 16.5681C2.86958 16.6181 2.95875 16.6448 3.04991 16.6448ZM2.97312 16.1789L3.05016 16.1768L2.96624 16.1793L2.97312 16.1789ZM3.06581 14.7516C3.08416 14.7538 3.10262 14.7549 3.1211 14.7549C3.23566 14.7547 3.34618 14.7126 3.43173 14.6364C3.51728 14.5602 3.57192 14.4553 3.5853 14.3415L3.58744 14.3211C3.59417 14.2296 3.57389 14.1382 3.52911 14.0582C3.48433 13.9781 3.41702 13.913 3.33555 13.8709C3.25408 13.8287 3.16202 13.8115 3.07083 13.8212C2.97963 13.831 2.8933 13.8673 2.82257 13.9257C2.75183 13.9841 2.69981 14.0619 2.67295 14.1496C2.64609 14.2373 2.64559 14.331 2.6715 14.419C2.69741 14.507 2.74859 14.5854 2.8187 14.6445C2.8888 14.7037 2.97473 14.7409 3.06581 14.7516V14.7516ZM3.25292 18.5251C3.3213 18.5251 3.38886 18.5102 3.45084 18.4813C3.51283 18.4524 3.56774 18.4103 3.61171 18.3579C3.65569 18.3056 3.68767 18.2442 3.70541 18.1782C3.72314 18.1121 3.7262 18.043 3.71437 17.9757L3.71073 17.9564C3.69176 17.8702 3.64883 17.7911 3.58686 17.7283C3.5249 17.6655 3.44644 17.6214 3.36053 17.6012C3.27461 17.5811 3.18475 17.5856 3.10129 17.6143C3.01784 17.643 2.9442 17.6947 2.88886 17.7634C2.83353 17.8322 2.79875 17.9152 2.78854 18.0028C2.77833 18.0905 2.7931 18.1792 2.83116 18.2589C2.86921 18.3385 2.929 18.4057 3.00362 18.4528C3.07825 18.5 3.16466 18.525 3.25291 18.5251H3.25292ZM3.17856 18.0701L3.25347 18.057L3.17192 18.0714L3.17856 18.0701Z" fill="#272A33"/>
</g>
<defs>
<clipPath id="clip0_3002_1164">
<rect width="32" height="32" fill="white"/>
</clipPath>
</defs>
</svg>
