<svg width="52" height="53" viewBox="0 0 52 53" fill="none" xmlns="http://www.w3.org/2000/svg">
<rect width="52" height="53" fill="#E5E5E5"/>
<rect width="1024" height="969" transform="translate(-156 -348)" fill="white"/>
<rect x="-126" y="-66.1312" width="964" height="278" rx="10" fill="#EDF0F2"/>
<rect y="0.868835" width="51.9066" height="51.9066" rx="25" fill="white"/>
<path d="M26.3206 29.5337H16.6947C16.6779 29.5337 16.6696 29.5337 16.6668 29.5283C16.6639 29.5229 16.6687 29.5161 16.6783 29.5023L16.6783 29.5023L26.3041 15.6411C26.3191 15.6196 26.3265 15.6088 26.3335 15.611C26.3406 15.6132 26.3406 15.6263 26.3406 15.6525V24.8653C26.3406 24.8748 26.3406 24.8795 26.3435 24.8824C26.3464 24.8853 26.3511 24.8853 26.3606 24.8853H35.9864C36.0032 24.8853 36.0116 24.8853 36.0144 24.8907C36.0172 24.8961 36.0124 24.9029 36.0028 24.9167L26.377 38.7779C26.3621 38.7994 26.3546 38.8102 26.3476 38.808C26.3406 38.8058 26.3406 38.7927 26.3406 38.7665V29.5537C26.3406 29.5442 26.3406 29.5395 26.3376 29.5366C26.3347 29.5337 26.33 29.5337 26.3206 29.5337Z" stroke="#06335B" stroke-width="3"/>
</svg>
