<svg width="18" height="18" viewBox="0 0 35 35" fill="none" xmlns="http://www.w3.org/2000/svg">
<circle cx="17.5" cy="17.5" r="17.5" fill="#11F94F"/>
<path d="M15.2404 9.52177C16.1979 7.17392 16.6767 6 17.5 6C18.3233 6 18.8021 7.17393 19.7596 9.52178L19.8042 9.63111C20.3452 10.9575 20.6156 11.6207 21.1669 12.0238C21.7182 12.4269 22.4418 12.4907 23.8891 12.6182L24.1507 12.6412C26.5194 12.8499 27.7037 12.9542 27.9571 13.6953C28.2105 14.4364 27.331 15.2234 25.5719 16.7974L24.9849 17.3228C24.0944 18.1196 23.6492 18.518 23.4416 19.0401C23.4029 19.1375 23.3707 19.2373 23.3453 19.3389C23.2089 19.8832 23.3393 20.4612 23.6 21.6171L23.6812 21.9769C24.1604 24.1013 24.4 25.1635 23.9817 25.6216C23.8253 25.7928 23.6222 25.9161 23.3964 25.9767C22.7924 26.1388 21.9348 25.4515 20.2197 24.0769C19.0935 23.1743 18.5304 22.723 17.8839 22.6215C17.6296 22.5815 17.3704 22.5815 17.1161 22.6215C16.4696 22.723 15.9065 23.1743 14.7803 24.0769C13.0652 25.4515 12.2076 26.1388 11.6036 25.9767C11.3778 25.9161 11.1747 25.7928 11.0183 25.6216C10.6 25.1635 10.8396 24.1013 11.3188 21.9769L11.4 21.6171C11.6607 20.4612 11.7911 19.8832 11.6547 19.3389C11.6293 19.2373 11.5971 19.1375 11.5584 19.0401C11.3508 18.518 10.9056 18.1196 10.0151 17.3228L9.42805 16.7974C7.66899 15.2234 6.78946 14.4364 7.04287 13.6953C7.29629 12.9542 8.48062 12.8499 10.8493 12.6412L11.1109 12.6182C12.5582 12.4907 13.2818 12.4269 13.8331 12.0238C14.3844 11.6207 14.6548 10.9575 15.1958 9.6311L15.2404 9.52177Z" fill="white"/>
</svg>
