<svg width="52" height="53" viewBox="0 0 52 53" fill="none" xmlns="http://www.w3.org/2000/svg">
<rect width="52" height="53" fill="#E5E5E5"/>
<rect width="1024" height="969" transform="translate(-486 -348)" fill="white"/>
<rect x="-456" y="-66.1312" width="964" height="278" rx="10" fill="#EDF0F2"/>
<rect y="0.868835" width="51.9066" height="51.9066" rx="25" fill="white"/>
<path d="M16.1425 28.7804L25.2208 37.3759C25.5336 37.672 25.6899 37.8201 25.8743 37.8565C25.9573 37.8729 26.0427 37.8729 26.1257 37.8565C26.3101 37.8201 26.4664 37.672 26.7792 37.3759L35.8575 28.7804C38.4118 26.3619 38.7219 22.3822 36.5737 19.5914L36.1697 19.0667C33.5998 15.7281 28.4413 16.288 26.6355 20.1015C26.3804 20.6402 25.6196 20.6402 25.3645 20.1015C23.5587 16.288 18.4002 15.7281 15.8303 19.0667L15.4263 19.5914C13.2781 22.3822 13.5882 26.3619 16.1425 28.7804Z" stroke="#06335B" stroke-width="3"/>
</svg>
