<svg width="116" height="37" viewBox="0 0 116 37" fill="none" xmlns="http://www.w3.org/2000/svg">
<rect x="0.24527" y="0.324951" width="115.755" height="36.6557" rx="18.3278" fill="#1D9BF0"/>
<rect x="19.5377" y="6.11255" width="23.1509" height="23.1509" rx="11.5755" fill="#1D9BF0"/>
<path d="M30.7823 25.2723C38.0673 25.2723 42.0506 19.2357 42.0506 14.0039C42.0506 13.8315 42.0506 13.659 42.0424 13.4947C42.8144 12.9363 43.4879 12.2381 44.0217 11.4415C43.3154 11.7536 42.5516 11.9671 41.7467 12.0657C42.568 11.5729 43.1922 10.8009 43.4879 9.87278C42.7241 10.3245 41.8781 10.653 40.9747 10.8337C40.2519 10.0617 39.2253 9.58533 38.0837 9.58533C35.899 9.58533 34.125 11.3593 34.125 13.544C34.125 13.8561 34.1579 14.16 34.2318 14.4475C30.9383 14.2832 28.0227 12.7063 26.068 10.3081C25.7313 10.8912 25.5342 11.5729 25.5342 12.2956C25.5342 13.6672 26.2323 14.8827 27.3 15.5891C26.6511 15.5726 26.0434 15.392 25.5095 15.0963C25.5095 15.1127 25.5095 15.1291 25.5095 15.1456C25.5095 17.0674 26.8729 18.6607 28.688 19.0303C28.3594 19.1207 28.0063 19.17 27.6449 19.17C27.3903 19.17 27.1439 19.1453 26.8975 19.096C27.3985 20.6729 28.8604 21.8146 30.5934 21.8474C29.2382 22.9069 27.5299 23.5393 25.6738 23.5393C25.3535 23.5393 25.0414 23.5229 24.7293 23.4818C26.4622 24.6152 28.5483 25.2723 30.7823 25.2723Z" fill="white"/>
<path d="M54.4185 23.9711H55.7766V14.4329H59.3882V13.1673H50.8069V14.4329H54.4185V23.9711ZM69.8247 16.1615L67.8337 22.3814L65.7656 16.1615H64.3456L62.2775 22.3814L60.2865 16.1615H58.9746L61.5366 23.9711H62.9566L65.0556 17.6431L67.1546 23.9711H68.5745L71.1366 16.1615H69.8247ZM79.7525 20.4676C79.7833 20.2361 79.7988 20.0045 79.7988 19.773C79.7988 17.5042 78.2554 15.9454 76.0792 15.9454C73.7795 15.9454 72.1744 17.6894 72.1744 20.0817C72.1744 22.5048 73.8258 24.1871 76.1872 24.1871C77.6226 24.1871 78.8264 23.5698 79.5827 22.5048L78.7029 21.764C78.0547 22.582 77.2213 22.9833 76.2181 22.9833C74.6901 22.9833 73.6406 22.0264 73.5017 20.4676H79.7525ZM73.5326 19.4181C73.7641 18.0136 74.7056 17.1493 76.0792 17.1493C77.4374 17.1493 78.348 17.9827 78.4714 19.4181H73.5326ZM89.0068 20.4676C89.0377 20.2361 89.0531 20.0045 89.0531 19.773C89.0531 17.5042 87.5097 15.9454 85.3335 15.9454C83.0339 15.9454 81.4287 17.6894 81.4287 20.0817C81.4287 22.5048 83.0802 24.1871 85.4416 24.1871C86.8769 24.1871 88.0808 23.5698 88.837 22.5048L87.9573 21.764C87.3091 22.582 86.4756 22.9833 85.4724 22.9833C83.9445 22.9833 82.895 22.0264 82.756 20.4676H89.0068ZM82.7869 19.4181C83.0184 18.0136 83.9599 17.1493 85.3335 17.1493C86.6917 17.1493 87.6023 17.9827 87.7258 19.4181H82.7869ZM91.659 21.9647C91.659 23.3691 92.4925 24.0945 94.0359 24.0945C94.5298 24.0945 94.9928 24.0328 95.4404 23.8939V22.8135C94.9928 22.9061 94.5761 22.9524 94.2211 22.9524C93.3413 22.9524 92.9555 22.6283 92.9555 21.8721V17.2727H95.4095V16.1615H92.9555V13.8464H91.659V16.1615H90.1002V17.2727H91.659V21.9647Z" fill="white"/>
</svg>
