<svg width="89" height="14" viewBox="0 0 89 14" fill="none" xmlns="http://www.w3.org/2000/svg">
<path d="M0 2C0 0.89543 0.895431 0 2 0H84C86.7614 0 89 2.23858 89 5V14H2C0.89543 14 0 13.1046 0 12V2Z" fill="#06335B"/>
<path d="M23.72 6.984C23.72 8.328 24.584 9.112 26.016 9.112C27.448 9.112 28.312 8.328 28.312 6.984V3.4H27.528V6.912C27.528 7.888 27.024 8.376 26.016 8.376C25.008 8.376 24.504 7.888 24.504 6.912V3.4H23.72V6.984ZM33.2953 6.392C33.2953 5.4 32.7593 4.832 31.8553 4.832C31.2153 4.832 30.7033 5.12 30.4713 5.608V4.944H29.7193V9H30.4713V6.608C30.4713 5.944 30.9593 5.528 31.6553 5.528C32.2633 5.528 32.5433 5.848 32.5433 6.576V9H33.2953V6.392ZM37.7451 4.944V5.664C37.5131 5.152 36.9451 4.832 36.2811 4.832C35.1771 4.832 34.3611 5.72 34.3611 6.976C34.3611 8.224 35.1771 9.112 36.2811 9.112C36.9451 9.112 37.5131 8.792 37.7451 8.28V9H38.4971V4.944H37.7451ZM37.7771 6.976C37.7771 7.4 37.6571 7.744 37.4171 8.016C37.1771 8.28 36.8571 8.416 36.4651 8.416C36.0731 8.416 35.7531 8.28 35.5051 8.016C35.2651 7.744 35.1451 7.4 35.1451 6.976C35.1451 6.552 35.2651 6.2 35.5051 5.936C35.7531 5.664 36.0731 5.528 36.4651 5.528C37.2571 5.528 37.7771 6.12 37.7771 6.976ZM42.5795 4.944L41.3555 8.176L40.1235 4.944H39.3235L40.9475 9H41.7555L43.3875 4.944H42.5795ZM47.1983 4.944V5.664C46.9663 5.152 46.3983 4.832 45.7343 4.832C44.6303 4.832 43.8143 5.72 43.8143 6.976C43.8143 8.224 44.6303 9.112 45.7343 9.112C46.3983 9.112 46.9663 8.792 47.1983 8.28V9H47.9503V4.944H47.1983ZM47.2303 6.976C47.2303 7.4 47.1103 7.744 46.8703 8.016C46.6303 8.28 46.3103 8.416 45.9183 8.416C45.5263 8.416 45.2063 8.28 44.9583 8.016C44.7183 7.744 44.5983 7.4 44.5983 6.976C44.5983 6.552 44.7183 6.2 44.9583 5.936C45.2063 5.664 45.5263 5.528 45.9183 5.528C46.7103 5.528 47.2303 6.12 47.2303 6.976ZM49.2086 3.64C49.2086 3.928 49.4166 4.144 49.7126 4.144C50.0086 4.144 50.2166 3.928 50.2166 3.64C50.2166 3.352 50.0086 3.136 49.7126 3.136C49.4166 3.136 49.2086 3.352 49.2086 3.64ZM49.3366 9H50.0886V4.944H49.3366V9ZM51.4693 9H52.2213V3.144H51.4693V9ZM56.6983 4.944V5.664C56.4663 5.152 55.8983 4.832 55.2343 4.832C54.1303 4.832 53.3143 5.72 53.3143 6.976C53.3143 8.224 54.1303 9.112 55.2343 9.112C55.8983 9.112 56.4663 8.792 56.6983 8.28V9H57.4503V4.944H56.6983ZM56.7303 6.976C56.7303 7.4 56.6103 7.744 56.3703 8.016C56.1303 8.28 55.8103 8.416 55.4183 8.416C55.0263 8.416 54.7063 8.28 54.4583 8.016C54.2183 7.744 54.0983 7.4 54.0983 6.976C54.0983 6.552 54.2183 6.2 54.4583 5.936C54.7063 5.664 55.0263 5.528 55.4183 5.528C56.2103 5.528 56.7303 6.12 56.7303 6.976ZM62.9566 6.976C62.9566 5.72 62.1566 4.832 61.0526 4.832C60.3806 4.832 59.8126 5.152 59.5806 5.664V3.144H58.8286V9H59.5806V8.28C59.8126 8.792 60.3806 9.112 61.0526 9.112C62.1566 9.112 62.9566 8.224 62.9566 6.976ZM62.1806 6.976C62.1806 7.4 62.0606 7.744 61.8126 8.016C61.5726 8.28 61.2526 8.416 60.8606 8.416C60.4686 8.416 60.1486 8.28 59.9086 8.016C59.6686 7.744 59.5486 7.4 59.5486 6.976C59.5486 6.12 60.0686 5.528 60.8606 5.528C61.2526 5.528 61.5726 5.664 61.8126 5.936C62.0606 6.2 62.1806 6.552 62.1806 6.976ZM64.063 9H64.815V3.144H64.063V9ZM69.86 7.2C69.876 7.08 69.884 6.96 69.884 6.84C69.884 5.648 69.076 4.832 67.948 4.832C66.756 4.832 65.908 5.744 65.908 6.984C65.908 8.24 66.764 9.112 68.012 9.112C68.756 9.112 69.38 8.808 69.772 8.264L69.284 7.832C68.956 8.232 68.532 8.432 68.028 8.432C67.268 8.432 66.764 7.976 66.676 7.2H69.86ZM66.692 6.624C66.812 5.928 67.268 5.52 67.948 5.52C68.612 5.52 69.06 5.92 69.124 6.624H66.692Z" fill="white"/>
</svg>
