<svg width="11" height="9" viewBox="0 0 11 9" fill="none" xmlns="http://www.w3.org/2000/svg">
<path d="M4.3164 1.5848C4.81796 0.528266 5.06875 0 5.5 0C5.93125 0 6.18204 0.528266 6.6836 1.5848L6.70696 1.634C6.99032 2.23089 7.132 2.52933 7.42076 2.71073C7.70951 2.89213 8.08856 2.92081 8.84666 2.97818L8.98371 2.98855C10.2244 3.08244 10.8448 3.12938 10.9775 3.46287C11.1103 3.79636 10.6496 4.15052 9.72816 4.85884L9.42064 5.09524C8.9542 5.4538 8.72099 5.63308 8.61229 5.86806C8.59201 5.91189 8.57515 5.9568 8.56182 6.00249C8.49037 6.24745 8.55867 6.50753 8.69526 7.0277L8.73777 7.18961C8.98879 8.14558 9.1143 8.62356 8.89516 8.82973C8.81327 8.90677 8.70684 8.96224 8.58861 8.98949C8.27222 9.06244 7.82302 8.75316 6.92461 8.1346C6.33469 7.72843 6.03973 7.52534 5.70108 7.47966C5.56787 7.46168 5.43213 7.46168 5.29892 7.47966C4.96027 7.52534 4.66531 7.72843 4.07539 8.1346C3.17698 8.75316 2.72778 9.06244 2.41139 8.98949C2.29316 8.96224 2.18673 8.90677 2.10484 8.82973C1.8857 8.62356 2.01121 8.14558 2.26223 7.18961L2.30475 7.0277C2.44133 6.50753 2.50963 6.24745 2.43818 6.00249C2.42485 5.9568 2.40799 5.91189 2.38771 5.86806C2.27901 5.63308 2.0458 5.4538 1.57936 5.09524L1.27184 4.85884C0.350423 4.15052 -0.110284 3.79636 0.0224581 3.46287C0.155201 3.12938 0.775563 3.08244 2.01629 2.98855L2.15334 2.97818C2.91144 2.92081 3.29049 2.89213 3.57924 2.71073C3.868 2.52933 4.00968 2.23089 4.29304 1.634L4.3164 1.5848Z" fill="#FBBC05" fill-opacity="0.5"/>
</svg>
