<svg width="36" height="36" viewBox="0 0 36 36" fill="none" xmlns="http://www.w3.org/2000/svg">
<path d="M29.0667 29.6728C29.6563 29.5499 30.0072 28.9346 29.7387 28.3955C28.8725 26.6566 27.4065 25.1283 25.49 23.9845C23.1978 22.6165 20.3893 21.875 17.5 21.875C14.6108 21.875 11.8023 22.6165 9.51005 23.9845C7.59357 25.1283 6.12756 26.6566 5.2614 28.3955C4.99287 28.9346 5.34379 29.5499 5.93341 29.6728L9.33918 30.3826C14.7219 31.5044 20.2782 31.5044 25.6609 30.3826L29.0667 29.6728Z" fill="#828282"/>
<ellipse cx="17.4997" cy="11.6667" rx="7.29167" ry="7.29167" fill="#828282"/>
<circle cx="28.6875" cy="28.6875" r="6.6875" fill="#00FF66"/>
<path d="M25.7157 28.6875L27.9449 30.9167L31.6602 26.4583" stroke="white" stroke-width="2"/>
</svg>
