<svg width="13" height="15" viewBox="0 0 13 15" fill="none" xmlns="http://www.w3.org/2000/svg">
<path fill-rule="evenodd" clip-rule="evenodd" d="M12.3421 2.28189L7.53927 0.223517C6.84388 -0.0745055 6.05674 -0.0745058 5.36135 0.223517L0.558487 2.28189C0.219677 2.42709 0 2.76024 0 3.12885V7.96926C0 9.7548 0.862309 11.4304 2.31527 12.4683L5.37912 14.6567C6.01991 15.1144 6.88071 15.1144 7.5215 14.6567L10.5854 12.4683C12.0383 11.4304 12.9006 9.7548 12.9006 7.96926V3.12885C12.9006 2.76024 12.6809 2.42709 12.3421 2.28189ZM9.9956 5.91056C10.3406 5.4793 10.2707 4.85001 9.83942 4.505C9.40816 4.15999 8.77887 4.22991 8.43386 4.66118L5.44592 8.3961L4.393 7.34318C4.00247 6.95266 3.36931 6.95266 2.97879 7.34318C2.58826 7.73371 2.58826 8.36687 2.97879 8.7574L4.42672 10.2053C5.05888 10.8375 6.10019 10.7798 6.65868 10.0817L9.9956 5.91056Z" fill="#00FF90"/>
</svg>
