<svg width="275" height="84" viewBox="0 0 275 84" fill="none" xmlns="http://www.w3.org/2000/svg">
<path d="M0 23.0864C1.84147 26.7146 6.01298 28.9215 11.3119 28.9215C17.851 28.9215 21.6843 25.5925 21.6843 20.6551C21.6843 16.8025 19.2791 14.3338 14.5063 13.1743L10.1469 12.1644C7.32831 11.4537 6.35121 10.6682 6.35121 9.35904C6.35121 7.71325 7.85445 6.62853 10.7106 6.62853C13.454 6.62853 15.5962 7.56363 17.137 9.47125L21.0078 6.47891C19.3167 3.52398 15.4834 1.69117 10.7858 1.69117C4.50973 1.69117 0.714041 4.90793 0.714041 9.47125C0.714041 13.2117 3.19439 15.7926 8.1551 16.9895L12.4018 17.9994C15.07 18.5979 16.0471 19.4956 16.0471 20.9543C16.0471 22.862 14.4311 23.9841 11.4622 23.9841C8.19268 23.9841 5.44926 22.5627 3.90843 20.1315L0 23.0864Z" fill="white"/>
<path d="M49.0712 9.32163L45.4634 22.1513L41.4798 9.32163H36.4064L32.3852 22.1887L28.7774 9.32163H23.3282L29.1908 28.3978H35.1286L38.9243 16.0544L42.7576 28.3978H48.6578L54.5581 9.32163H49.0712Z" fill="white"/>
<path d="M71.0433 9.32163V12.1644C69.9534 10.0697 67.5106 8.79797 64.7672 8.79797C59.7689 8.79797 56.1236 12.9498 56.1236 18.8597C56.1236 24.7696 59.7689 28.9215 64.7672 28.9215C67.5106 28.9215 69.9534 27.6497 71.0433 25.5551V28.3978H76.3046V9.32163H71.0433ZM71.156 18.8597C71.156 22.0391 69.3145 24.1337 66.3456 24.1337C63.3767 24.1337 61.5352 22.0391 61.5352 18.8597C61.5352 15.6804 63.3767 13.5857 66.3456 13.5857C69.3145 13.5857 71.156 15.6804 71.156 18.8597Z" fill="white"/>
<path d="M101.58 18.8597C101.58 12.9498 97.9346 8.79797 92.8987 8.79797C90.1553 8.79797 87.7125 10.0697 86.6227 12.2018V9.32163H81.3989V35.8786H86.7354V25.7047C87.9004 27.7619 90.1929 28.9215 92.8987 28.9215C97.9346 28.9215 101.58 24.7696 101.58 18.8597ZM96.1307 18.8597C96.1307 22.0391 94.2892 24.1337 91.3203 24.1337C88.3514 24.1337 86.5475 22.0391 86.5475 18.8597C86.5475 15.6804 88.3514 13.5857 91.3203 13.5857C94.2892 13.5857 96.1307 15.6804 96.1307 18.8597Z" fill="white"/>
<path d="M127.782 9.32163V12.1644C126.692 10.0697 124.249 8.79797 121.506 8.79797C116.508 8.79797 112.862 12.9498 112.862 18.8597C112.862 24.7696 116.508 28.9215 121.506 28.9215C124.249 28.9215 126.692 27.6497 127.782 25.5551V28.3978H133.043V9.32163H127.782ZM127.895 18.8597C127.895 22.0391 126.053 24.1337 123.084 24.1337C120.115 24.1337 118.274 22.0391 118.274 18.8597C118.274 15.6804 120.115 13.5857 123.084 13.5857C126.053 13.5857 127.895 15.6804 127.895 18.8597Z" fill="white"/>
<path d="M156.064 15.9048C156.064 11.3789 153.583 8.79797 149.487 8.79797C146.668 8.79797 144.414 10.0323 143.361 12.0895V9.32163H138.138V28.3978H143.474V17.6254C143.474 15.0819 144.94 13.6231 147.458 13.6231C149.713 13.6231 150.727 14.7826 150.727 17.2887V28.3978H156.064V15.9048Z" fill="white"/>
<path d="M173.102 9.32163V19.3086C173.102 21.8521 171.599 23.3108 169.194 23.3108C166.976 23.3108 165.999 22.1513 165.999 19.6452V9.32163H160.663V21.0292C160.663 25.5177 163.143 28.136 167.164 28.136C169.908 28.136 172.125 26.9016 173.177 24.9192V26.4528C173.177 29.8566 171.185 31.7268 167.841 31.7268C165.887 31.7268 163.82 31.0909 162.204 29.9314L159.986 33.8588C161.903 35.4672 164.872 36.4023 168.179 36.4023C174.756 36.4023 178.401 32.8489 178.401 26.4528V9.32163H173.102Z" fill="white"/>
<path d="M185.19 22.4879C185.19 26.8268 187.22 28.6596 191.88 28.6596C193.27 28.6596 194.548 28.51 195.713 28.1734V23.6475C194.924 23.8345 194.059 23.9467 193.12 23.9467C191.203 23.9467 190.527 23.3482 190.527 21.665V13.9598H195.638V9.32163H190.527V3.711H185.19V9.32163H181.695V13.9598H185.19V22.4879Z" fill="white"/>
<path d="M217.5 15.9048C217.5 11.3789 215.02 8.79797 210.923 8.79797C208.18 8.79797 206 9.9575 204.91 11.9025V1.01789H199.574V28.3978H204.91V17.6254C204.91 15.0819 206.376 13.6231 208.894 13.6231C211.149 13.6231 212.164 14.7826 212.164 17.2887V28.3978H217.5V15.9048Z" fill="white"/>
<path d="M221.874 3.33695C221.874 5.24457 223.189 6.51631 225.181 6.51631C227.172 6.51631 228.488 5.24457 228.488 3.33695C228.488 1.42934 227.172 0.157593 225.181 0.157593C223.189 0.157593 221.874 1.42934 221.874 3.33695ZM222.512 28.3978H227.849V9.32163H222.512V28.3978Z" fill="white"/>
<path d="M250.934 15.9048C250.934 11.3789 248.454 8.79797 244.357 8.79797C241.539 8.79797 239.284 10.0323 238.232 12.0895V9.32163H233.008V28.3978H238.344V17.6254C238.344 15.0819 239.81 13.6231 242.328 13.6231C244.583 13.6231 245.597 14.7826 245.597 17.2887V28.3978H250.934V15.9048Z" fill="white"/>
<path d="M269.776 9.32163V12.1269C268.686 10.0323 266.244 8.79797 263.5 8.79797C258.539 8.79797 254.819 12.9124 254.819 18.5605C254.819 24.1711 258.502 28.136 263.463 28.136C266.356 28.136 268.724 26.8642 269.814 24.7322V26.1909C269.814 29.6695 267.709 31.7268 264.101 31.7268C261.884 31.7268 259.629 30.9413 257.788 29.5573L255.383 33.41C257.45 35.3176 260.719 36.4023 264.44 36.4023C271.204 36.4023 275 32.6245 275 26.1909V9.32163H269.776ZM269.889 18.4857C269.889 21.4406 267.972 23.4604 265.079 23.4604C262.185 23.4604 260.268 21.4406 260.268 18.4857C260.268 15.5307 262.185 13.5109 265.079 13.5109C267.972 13.5109 269.889 15.5307 269.889 18.4857Z" fill="white"/>
<path d="M0.375811 65.615C0.375811 71.2256 4.43457 75.6767 10.5979 75.6767C16.7612 75.6767 20.8575 71.263 20.8575 65.615C20.8575 59.967 16.7612 55.5533 10.5979 55.5533C4.43457 55.5533 0.375811 59.967 0.375811 65.615ZM15.4083 65.615C15.4083 68.7944 13.5668 70.889 10.5979 70.889C7.62896 70.889 5.78749 68.7944 5.78749 65.615C5.78749 62.4356 7.62896 60.341 10.5979 60.341C13.5668 60.341 15.4083 62.4356 15.4083 65.615Z" fill="white"/>
<path d="M42.7699 62.6601C42.7699 58.1342 40.2896 55.5533 36.1932 55.5533C33.3747 55.5533 31.1198 56.7876 30.0675 58.8448V56.0769H24.8438V75.1531H30.1803V64.3807C30.1803 61.8372 31.6459 60.3784 34.1639 60.3784C36.4187 60.3784 37.4334 61.5379 37.4334 64.044V75.1531H42.7699V62.6601Z" fill="white"/>
<path d="M73.2118 75.1531H79.9388L69.3785 62.0242L79.563 48.9701H73.0239L64.944 59.4807H62.0878V48.9701H56.5258V75.1531H62.0878V64.5677H64.8688L73.2118 75.1531Z" fill="white"/>
<path d="M95.1553 56.0769V58.9196C94.0655 56.825 91.6227 55.5533 88.8793 55.5533C83.881 55.5533 80.2356 59.7051 80.2356 65.615C80.2356 71.5249 83.881 75.6767 88.8793 75.6767C91.6227 75.6767 94.0655 74.405 95.1553 72.3104V75.1531H100.417V56.0769H95.1553ZM95.2681 65.615C95.2681 68.7944 93.4266 70.889 90.4577 70.889C87.4888 70.889 85.6473 68.7944 85.6473 65.615C85.6473 62.4356 87.4888 60.341 90.4577 60.341C93.4266 60.341 95.2681 62.4356 95.2681 65.615Z" fill="white"/>
<path d="M125.692 65.615C125.692 59.7051 122.047 55.5533 117.011 55.5533C114.267 55.5533 111.825 56.825 110.735 58.9571V56.0769H105.511V82.6339H110.848V72.46C112.013 74.5172 114.305 75.6767 117.011 75.6767C122.047 75.6767 125.692 71.5249 125.692 65.615ZM120.243 65.615C120.243 68.7944 118.401 70.889 115.432 70.889C112.464 70.889 110.66 68.7944 110.66 65.615C110.66 62.4356 112.464 60.341 115.432 60.341C118.401 60.341 120.243 62.4356 120.243 65.615Z" fill="white"/>
<path d="M129.095 50.0922C129.095 51.9999 130.411 53.2716 132.402 53.2716C134.394 53.2716 135.709 51.9999 135.709 50.0922C135.709 48.1846 134.394 46.9129 132.402 46.9129C130.411 46.9129 129.095 48.1846 129.095 50.0922ZM129.734 75.1531H135.071V56.0769H129.734V75.1531Z" fill="white"/>
<path d="M141.921 69.2432C141.921 73.5821 143.95 75.4149 148.61 75.4149C150.001 75.4149 151.278 75.2653 152.443 74.9287V70.4027C151.654 70.5898 150.79 70.702 149.85 70.702C147.934 70.702 147.257 70.1035 147.257 68.4203V60.715H152.368V56.0769H147.257V50.4663H141.921V56.0769H138.426V60.715H141.921V69.2432Z" fill="white"/>
<path d="M155.703 50.0922C155.703 51.9999 157.018 53.2716 159.01 53.2716C161.002 53.2716 162.317 51.9999 162.317 50.0922C162.317 48.1846 161.002 46.9129 159.01 46.9129C157.018 46.9129 155.703 48.1846 155.703 50.0922ZM156.342 75.1531H161.678V56.0769H156.342V75.1531Z" fill="white"/>
<path d="M168.641 75.1531H173.978V60.715H178.938V56.0769H173.978V54.3563C173.978 52.7479 174.804 52.0373 176.796 52.0373C177.435 52.0373 178.149 52.1121 178.938 52.2617V47.7732C177.811 47.5488 176.721 47.4365 175.706 47.4365C171.009 47.4365 168.641 49.5686 168.641 53.7953V56.0769H165.108V60.715H168.641V75.1531Z" fill="white"/>
<path d="M194.241 56.0769V66.0639C194.241 68.6073 192.738 70.0661 190.333 70.0661C188.116 70.0661 187.139 68.9066 187.139 66.4005V56.0769H181.802V67.7844C181.802 72.273 184.282 74.8913 188.304 74.8913C191.047 74.8913 193.264 73.6569 194.317 71.6745V73.2081C194.317 76.6118 192.325 78.4821 188.98 78.4821C187.026 78.4821 184.959 77.8462 183.343 76.6867L181.126 80.6141C183.042 82.2225 186.011 83.1576 189.318 83.1576C195.895 83.1576 199.54 79.6042 199.54 73.2081V56.0769H194.241Z" fill="white"/>
</svg>
