<svg width="116" height="37" viewBox="0 0 116 37" fill="none" xmlns="http://www.w3.org/2000/svg">
<rect y="0.324951" width="115.755" height="36.6557" rx="18.3278" fill="#31BA46"/>
<path d="M19.2924 29.2635L20.9287 23.3217C19.9171 21.5777 19.3864 19.6026 19.392 17.5835C19.392 11.2566 24.5661 6.11255 30.9177 6.11255C34.0022 6.11255 36.8989 7.30641 39.0713 9.47406C41.2493 11.6417 42.4489 14.5246 42.4434 17.589C42.4434 23.9159 37.2692 29.0599 30.9121 29.0599H30.9066C28.9774 29.0599 27.0813 28.5758 25.3953 27.6625L19.2924 29.2635ZM25.6883 25.5884L26.0365 25.7975C27.5069 26.6667 29.193 27.1234 30.9121 27.1289H30.9177C36.1968 27.1289 40.4975 22.8541 40.4975 17.5945C40.4975 15.0472 39.5025 12.654 37.6949 10.8495C35.8873 9.04493 33.4771 8.05463 30.9177 8.05463C25.6385 8.04913 21.3378 12.3239 21.3378 17.5835C21.3378 19.3825 21.8408 21.1376 22.8027 22.656L23.0293 23.0191L22.0619 26.5347L25.6883 25.5884Z" fill="white"/>
<path d="M19.696 28.8621L21.277 23.1239C20.2986 21.4459 19.7845 19.5368 19.7845 17.5892C19.79 11.4824 24.7817 6.5144 30.9177 6.5144C33.8973 6.5144 36.6889 7.66975 38.7895 9.76038C40.8901 11.851 42.0454 14.6348 42.0454 17.5947C42.0454 23.7016 37.0482 28.6696 30.9177 28.6696H30.9122C29.0493 28.6696 27.2195 28.2019 25.5943 27.3217L19.696 28.8621Z" fill="url(#paint0_linear_3002_1274)"/>
<path d="M19.2924 29.2635L20.9287 23.3217C19.9171 21.5777 19.3864 19.6026 19.392 17.5835C19.392 11.2566 24.5661 6.11255 30.9177 6.11255C34.0022 6.11255 36.8989 7.30641 39.0713 9.47406C41.2493 11.6417 42.4489 14.5246 42.4434 17.589C42.4434 23.9159 37.2692 29.0599 30.9121 29.0599H30.9066C28.9774 29.0599 27.0813 28.5758 25.3953 27.6625L19.2924 29.2635ZM25.6883 25.5884L26.0365 25.7975C27.5069 26.6667 29.193 27.1234 30.9121 27.1289H30.9177C36.1968 27.1289 40.4975 22.8541 40.4975 17.5945C40.4975 15.0472 39.5025 12.654 37.6949 10.8495C35.8873 9.04493 33.4771 8.05463 30.9177 8.05463C25.6385 8.04913 21.3378 12.3239 21.3378 17.5835C21.3378 19.3825 21.8408 21.1376 22.8027 22.656L23.0293 23.0191L22.0619 26.5347L25.6883 25.5884Z" fill="url(#paint1_linear_3002_1274)"/>
<path fill-rule="evenodd" clip-rule="evenodd" d="M28.0376 12.7864C27.822 12.3078 27.5954 12.2968 27.3909 12.2913C27.225 12.2858 27.0315 12.2858 26.8381 12.2858C26.6446 12.2858 26.335 12.3573 26.0697 12.6434C25.8043 12.9295 25.0636 13.6227 25.0636 15.0366C25.0636 16.445 26.0973 17.8094 26.241 18.002C26.3848 18.1945 28.2366 21.1819 31.1609 22.3318C33.5932 23.2891 34.0907 23.0965 34.6158 23.047C35.141 22.9975 36.3184 22.3538 36.5617 21.6826C36.7994 21.0114 36.7994 20.4392 36.7275 20.3182C36.6556 20.1971 36.4622 20.1256 36.1747 19.9826C35.8873 19.8395 34.4721 19.1463 34.2068 19.0473C33.9414 18.9538 33.748 18.9043 33.56 19.1903C33.3665 19.4764 32.8137 20.1201 32.6479 20.3127C32.4821 20.5052 32.3107 20.5272 32.0232 20.3842C31.7358 20.2412 30.8071 19.9386 29.7071 18.9593C28.8502 18.2 28.2698 17.2593 28.104 16.9732C27.9381 16.6871 28.0874 16.533 28.2311 16.39C28.3582 16.2635 28.5185 16.0544 28.6623 15.8893C28.806 15.7243 28.8558 15.6033 28.9497 15.4107C29.0437 15.2181 28.9995 15.0531 28.9276 14.9101C28.8558 14.7725 28.2919 13.3531 28.0376 12.7864Z" fill="white"/>
<path d="M52.7996 21.6714C53.4169 23.2611 54.9912 24.1871 57.1674 24.1871C59.6985 24.1871 61.1956 22.8907 61.1956 21.0077C61.1956 19.5261 60.285 18.5846 58.2014 18.0907L56.4574 17.674C55.0529 17.3499 54.5127 16.8406 54.5127 15.9763C54.5127 14.8496 55.4388 14.1859 56.9822 14.1859C58.3249 14.1859 59.359 14.6953 59.8683 15.575L60.9333 14.9268C60.3931 13.7538 58.9268 12.9512 57.013 12.9512C54.6208 12.9512 53.1237 14.2168 53.1237 15.9917C53.1237 17.4271 54.1269 18.3994 56.1333 18.8779L57.8773 19.2946C59.2201 19.6187 59.7911 20.1743 59.7911 21.0541C59.7911 22.2116 58.8034 22.9524 57.1828 22.9524C55.6394 22.9524 54.4664 22.2733 53.8954 21.0386L52.7996 21.6714ZM70.1118 18.9705C70.1118 17.0412 69.1086 15.9454 67.3337 15.9454C66.0526 15.9454 65.0494 16.501 64.6173 17.4888V12.6734H63.3208V23.9711H64.6173V19.3254C64.6173 18.0136 65.6205 17.1493 67.025 17.1493C68.2597 17.1493 68.8153 17.7975 68.8153 19.2791V23.9711H70.1118V18.9705ZM78.8815 16.1615V17.5968C78.4339 16.5936 77.3072 15.9454 75.9954 15.9454C73.85 15.9454 72.2758 17.6586 72.2758 20.0663C72.2758 22.474 73.85 24.1871 75.9954 24.1871C77.3072 24.1871 78.4339 23.5389 78.8815 22.5357V23.9711H80.178V16.1615H78.8815ZM78.9432 20.0663C78.9432 20.9151 78.6963 21.6251 78.2024 22.1653C77.724 22.7055 77.0757 22.9833 76.2886 22.9833C75.5015 22.9833 74.8532 22.7055 74.3594 22.1653C73.8809 21.6251 73.634 20.9151 73.634 20.0663C73.634 19.2174 73.8809 18.5074 74.3594 17.9673C74.8532 17.4271 75.5015 17.1493 76.2886 17.1493C77.0757 17.1493 77.724 17.4271 78.2024 17.9673C78.6963 18.5074 78.9432 19.2174 78.9432 20.0663ZM87.3432 16.1461C87.1425 16.0689 86.8956 16.038 86.6332 16.038C85.4757 16.038 84.6114 16.6245 84.2564 17.6277V16.1615H82.9599V23.9711H84.2564V19.9737C84.2564 18.137 85.1361 17.2419 86.6641 17.2419C86.8956 17.2419 87.1117 17.2573 87.3432 17.2882V16.1461ZM95.8304 20.4676C95.8613 20.2361 95.8767 20.0045 95.8767 19.773C95.8767 17.5042 94.3333 15.9454 92.1571 15.9454C89.8575 15.9454 88.2523 17.6894 88.2523 20.0817C88.2523 22.5048 89.9038 24.1871 92.2652 24.1871C93.7005 24.1871 94.9044 23.5698 95.6606 22.5048L94.7809 21.764C94.1327 22.582 93.2992 22.9833 92.296 22.9833C90.7681 22.9833 89.7186 22.0264 89.5797 20.4676H95.8304ZM89.6105 19.4181C89.842 18.0136 90.7835 17.1493 92.1571 17.1493C93.5153 17.1493 94.4259 17.9827 94.5494 19.4181H89.6105Z" fill="white"/>
<defs>
<linearGradient id="paint0_linear_3002_1274" x1="30.8702" y1="28.861" x2="30.8702" y2="6.51362" gradientUnits="userSpaceOnUse">
<stop stop-color="#20B038"/>
<stop offset="1" stop-color="#60D66A"/>
</linearGradient>
<linearGradient id="paint1_linear_3002_1274" x1="30.8702" y1="29.2613" x2="30.8702" y2="6.11255" gradientUnits="userSpaceOnUse">
<stop stop-color="#F9F9F9"/>
<stop offset="1" stop-color="white"/>
</linearGradient>
</defs>
</svg>
