<svg width="60" height="16" viewBox="0 0 60 16" fill="none" xmlns="http://www.w3.org/2000/svg">
<path d="M0.429901 4.25098H3.96615L6.02526 9.20605L8.1111 4.25098H11.5542L6.36964 15.9812H2.90471L4.3239 12.8729L0.429901 4.25098Z" fill="#C9CFE3"/>
<path d="M15.141 4.05371C12.4841 4.05371 10.8044 6.29502 10.8044 8.527C10.8044 11.0386 12.646 13.0299 15.0906 13.0299C16.9143 13.0299 17.6018 11.9849 17.6018 11.9849V12.7989H20.6861V4.25102H17.6018V5.0281C17.6018 5.0281 16.8347 4.05371 15.141 4.05371ZM15.7971 6.80068C17.023 6.80068 17.6556 7.7131 17.6556 8.53639C17.6556 9.42293 16.9779 10.2929 15.7971 10.2929C14.8184 10.2929 13.9341 9.54068 13.9341 8.57412C13.9341 7.59389 14.6454 6.80068 15.7971 6.80068Z" fill="#C9CFE3"/>
<path d="M21.7484 12.7989V0.476562H24.9743V5.0577C24.9743 5.0577 25.7406 4.05477 27.3454 4.05477C29.3084 4.05477 30.4585 5.43048 30.4585 7.39631V12.7989H27.2561V8.13639C27.2561 7.47111 26.9192 6.82842 26.156 6.82842C25.3792 6.82842 24.9743 7.48085 24.9743 8.13639V12.7989H21.7484Z" fill="#C9CFE3"/>
<path d="M35.9587 4.05469C32.916 4.05469 31.1042 6.23091 31.1042 8.56253C31.1042 11.2159 33.2978 13.0299 35.9702 13.0299C38.5603 13.0299 40.8268 11.2983 40.8268 8.60704C40.8268 5.66236 38.4537 4.05469 35.9587 4.05469ZM35.9877 6.8258C37.0625 6.8258 37.8062 7.6678 37.8062 8.5657C37.8062 9.33154 37.1132 10.2761 35.9877 10.2761C34.9564 10.2761 34.1825 9.49802 34.1825 8.55732C34.1825 7.65113 34.8259 6.8258 35.9877 6.8258Z" fill="#C9CFE3"/>
<path d="M46.2011 4.05469C43.1584 4.05469 41.3466 6.23091 41.3466 8.56253C41.3466 11.2159 43.5403 13.0299 46.2127 13.0299C48.8028 13.0299 51.0693 11.2983 51.0693 8.60704C51.0693 5.66236 48.6962 4.05469 46.2011 4.05469ZM46.2302 6.8258C47.305 6.8258 48.0486 7.6678 48.0486 8.5657C48.0486 9.33154 47.3557 10.2761 46.2302 10.2761C45.1989 10.2761 44.4249 9.49802 44.4249 8.55732C44.4249 7.65113 45.0684 6.8258 46.2302 6.8258Z" fill="#C9CFE3"/>
<path d="M53.6148 12.9804C54.7979 12.9804 55.757 12.0783 55.757 10.9655C55.757 9.85267 54.7979 8.95056 53.6148 8.95056C52.4317 8.95056 51.4726 9.85267 51.4726 10.9655C51.4726 12.0783 52.4317 12.9804 53.6148 12.9804Z" fill="#C9CFE3"/>
<path d="M56.4609 8.2104H52.6044L56.0271 0.476562H59.8692L56.4609 8.2104Z" fill="#C9CFE3"/>
</svg>
